<?xml version="1.0" encoding="UTF-8" standalone="no"?>
<!DOCTYPE svg PUBLIC "-//W3C//DTD SVG 1.1//EN"
 "http://www.w3.org/Graphics/SVG/1.1/DTD/svg11.dtd">
<!-- Generated by graphviz version 2.50.0 (20211204.2007)
 -->
<!-- Title: G Pages: 1 -->
<svg width="216pt" height="213pt"
 viewBox="0.00 0.00 216.00 213.20" xmlns="http://www.w3.org/2000/svg" xmlns:xlink="http://www.w3.org/1999/xlink">
<g id="graph0" class="graph" transform="scale(0.27 0.27) rotate(0) translate(4 791.64)">
<title>G</title>
<polygon fill="white" stroke="transparent" points="-4,4 -4,-791.64 802.09,-791.64 802.09,4 -4,4"/>
<!-- 1 -->
<g id="node1" class="node">
<title>1</title>
<ellipse fill="none" stroke="Turquoise" cx="9" cy="-530.4" rx="9" ry="9"/>
<text text-anchor="middle" x="9" y="-528.8" font-family="Times,serif" font-size="7.00">1</text>
</g>
<!-- 2 -->
<g id="node2" class="node">
<title>2</title>
<ellipse fill="none" stroke="Turquoise" cx="66.19" cy="-471.45" rx="9" ry="9"/>
<text text-anchor="middle" x="66.19" y="-469.85" font-family="Times,serif" font-size="7.00">2</text>
</g>
<!-- 1&#45;&#45;2 -->
<g id="edge1" class="edge">
<title>1&#45;&#45;2</title>
<path fill="none" stroke="black" d="M15.56,-523.64C26.59,-512.26 48.73,-489.45 59.71,-478.13"/>
<text text-anchor="middle" x="36.64" y="-501.08" font-family="Times,serif" font-size="1.00">1.0</text>
</g>
<!-- 11 -->
<g id="node11" class="node">
<title>11</title>
<ellipse fill="none" stroke="Turquoise" cx="68.41" cy="-590.83" rx="9" ry="9"/>
<text text-anchor="middle" x="68.41" y="-589.23" font-family="Times,serif" font-size="7.00">11</text>
</g>
<!-- 1&#45;&#45;11 -->
<g id="edge2" class="edge">
<title>1&#45;&#45;11</title>
<path fill="none" stroke="black" d="M15.36,-536.86C26.73,-548.43 50.44,-572.56 61.91,-584.22"/>
<text text-anchor="middle" x="37.64" y="-560.74" font-family="Times,serif" font-size="1.00">1.0</text>
</g>
<!-- 3 -->
<g id="node3" class="node">
<title>3</title>
<ellipse fill="none" stroke="Turquoise" cx="124.94" cy="-411.97" rx="9" ry="9"/>
<text text-anchor="middle" x="124.94" y="-410.37" font-family="Times,serif" font-size="7.00">3</text>
</g>
<!-- 2&#45;&#45;3 -->
<g id="edge4" class="edge">
<title>2&#45;&#45;3</title>
<path fill="none" stroke="black" d="M72.93,-464.63C84.27,-453.15 107,-430.14 118.28,-418.72"/>
<text text-anchor="middle" x="94.61" y="-441.87" font-family="Times,serif" font-size="1.00">1.0</text>
</g>
<!-- 12 -->
<g id="node12" class="node">
<title>12</title>
<ellipse fill="none" stroke="Turquoise" cx="127.63" cy="-532.79" rx="9" ry="9"/>
<text text-anchor="middle" x="127.63" y="-531.19" font-family="Times,serif" font-size="7.00">12</text>
</g>
<!-- 2&#45;&#45;12 -->
<g id="edge5" class="edge">
<title>2&#45;&#45;12</title>
<path fill="none" stroke="black" d="M72.77,-478.01C84.53,-489.76 109.06,-514.25 120.92,-526.09"/>
<text text-anchor="middle" x="95.84" y="-502.25" font-family="Times,serif" font-size="1.00">1.0</text>
</g>
<!-- 4 -->
<g id="node4" class="node">
<title>4</title>
<ellipse fill="none" stroke="Turquoise" cx="184.58" cy="-352.93" rx="9" ry="9"/>
<text text-anchor="middle" x="184.58" y="-351.33" font-family="Times,serif" font-size="7.00">4</text>
</g>
<!-- 3&#45;&#45;4 -->
<g id="edge7" class="edge">
<title>3&#45;&#45;4</title>
<path fill="none" stroke="black" d="M131.78,-405.2C143.41,-393.69 166.86,-370.47 178.18,-359.26"/>
<text text-anchor="middle" x="153.98" y="-382.43" font-family="Times,serif" font-size="1.00">1.0</text>
</g>
<!-- 13 -->
<g id="node13" class="node">
<title>13</title>
<ellipse fill="none" stroke="Turquoise" cx="187.36" cy="-474.21" rx="9" ry="9"/>
<text text-anchor="middle" x="187.36" y="-472.61" font-family="Times,serif" font-size="7.00">13</text>
</g>
<!-- 3&#45;&#45;13 -->
<g id="edge8" class="edge">
<title>3&#45;&#45;13</title>
<path fill="none" stroke="black" d="M131.62,-418.63C143.7,-430.68 169.01,-455.92 180.91,-467.79"/>
<text text-anchor="middle" x="155.27" y="-443.41" font-family="Times,serif" font-size="1.00">1.0</text>
</g>
<!-- 5 -->
<g id="node5" class="node">
<title>5</title>
<ellipse fill="none" stroke="Turquoise" cx="244.68" cy="-294.31" rx="9" ry="9"/>
<text text-anchor="middle" x="244.68" y="-292.71" font-family="Times,serif" font-size="7.00">5</text>
</g>
<!-- 4&#45;&#45;5 -->
<g id="edge10" class="edge">
<title>4&#45;&#45;5</title>
<path fill="none" stroke="black" d="M191.48,-346.2C203.19,-334.78 226.82,-311.73 238.23,-300.6"/>
<text text-anchor="middle" x="213.85" y="-323.6" font-family="Times,serif" font-size="1.00">1.0</text>
</g>
<!-- 14 -->
<g id="node14" class="node">
<title>14</title>
<ellipse fill="none" stroke="Turquoise" cx="247.19" cy="-416.1" rx="9" ry="9"/>
<text text-anchor="middle" x="247.19" y="-414.5" font-family="Times,serif" font-size="7.00">14</text>
</g>
<!-- 4&#45;&#45;14 -->
<g id="edge11" class="edge">
<title>4&#45;&#45;14</title>
<path fill="none" stroke="black" d="M191.28,-359.69C203.39,-371.91 228.79,-397.53 240.72,-409.58"/>
<text text-anchor="middle" x="215" y="-384.83" font-family="Times,serif" font-size="1.00">1.0</text>
</g>
<!-- 6 -->
<g id="node6" class="node">
<title>6</title>
<ellipse fill="none" stroke="Turquoise" cx="305.08" cy="-236.03" rx="9" ry="9"/>
<text text-anchor="middle" x="305.08" y="-234.43" font-family="Times,serif" font-size="7.00">6</text>
</g>
<!-- 5&#45;&#45;6 -->
<g id="edge13" class="edge">
<title>5&#45;&#45;6</title>
<path fill="none" stroke="black" d="M251.61,-287.63C263.38,-276.27 287.13,-253.35 298.6,-242.28"/>
<text text-anchor="middle" x="274.1" y="-265.16" font-family="Times,serif" font-size="1.00">1.0</text>
</g>
<!-- 15 -->
<g id="node15" class="node">
<title>15</title>
<ellipse fill="none" stroke="Turquoise" cx="307" cy="-358.3" rx="9" ry="9"/>
<text text-anchor="middle" x="307" y="-356.7" font-family="Times,serif" font-size="7.00">15</text>
</g>
<!-- 5&#45;&#45;15 -->
<g id="edge14" class="edge">
<title>5&#45;&#45;15</title>
<path fill="none" stroke="black" d="M251.35,-301.16C263.41,-313.54 288.68,-339.49 300.57,-351.69"/>
<text text-anchor="middle" x="274.96" y="-326.63" font-family="Times,serif" font-size="1.00">1.0</text>
</g>
<!-- 7 -->
<g id="node7" class="node">
<title>7</title>
<ellipse fill="none" stroke="Turquoise" cx="365.81" cy="-178.06" rx="9" ry="9"/>
<text text-anchor="middle" x="365.81" y="-176.46" font-family="Times,serif" font-size="7.00">7</text>
</g>
<!-- 6&#45;&#45;7 -->
<g id="edge16" class="edge">
<title>6&#45;&#45;7</title>
<path fill="none" stroke="black" d="M312.04,-229.38C323.88,-218.08 347.76,-195.28 359.29,-184.28"/>
<text text-anchor="middle" x="334.67" y="-207.03" font-family="Times,serif" font-size="1.00">1.0</text>
</g>
<!-- 16 -->
<g id="node16" class="node">
<title>16</title>
<ellipse fill="none" stroke="Turquoise" cx="366.78" cy="-300.6" rx="9" ry="9"/>
<text text-anchor="middle" x="366.78" y="-299" font-family="Times,serif" font-size="7.00">16</text>
</g>
<!-- 6&#45;&#45;16 -->
<g id="edge17" class="edge">
<title>6&#45;&#45;16</title>
<path fill="none" stroke="black" d="M311.68,-242.94C323.62,-255.43 348.64,-281.62 360.41,-293.93"/>
<text text-anchor="middle" x="335.05" y="-268.64" font-family="Times,serif" font-size="1.00">1.0</text>
</g>
<!-- 8 -->
<g id="node8" class="node">
<title>8</title>
<ellipse fill="none" stroke="Turquoise" cx="426.97" cy="-120.58" rx="9" ry="9"/>
<text text-anchor="middle" x="426.97" y="-118.98" font-family="Times,serif" font-size="7.00">8</text>
</g>
<!-- 7&#45;&#45;8 -->
<g id="edge19" class="edge">
<title>7&#45;&#45;8</title>
<path fill="none" stroke="black" d="M372.82,-171.46C384.75,-160.26 408.8,-137.65 420.41,-126.74"/>
<text text-anchor="middle" x="395.61" y="-149.3" font-family="Times,serif" font-size="1.00">1.0</text>
</g>
<!-- 17 -->
<g id="node17" class="node">
<title>17</title>
<ellipse fill="none" stroke="Turquoise" cx="426.68" cy="-242.89" rx="9" ry="9"/>
<text text-anchor="middle" x="426.68" y="-241.29" font-family="Times,serif" font-size="7.00">17</text>
</g>
<!-- 7&#45;&#45;17 -->
<g id="edge20" class="edge">
<title>7&#45;&#45;17</title>
<path fill="none" stroke="black" d="M372.32,-185C384.1,-197.54 408.79,-223.83 420.4,-236.2"/>
<text text-anchor="middle" x="395.36" y="-210.8" font-family="Times,serif" font-size="1.00">1.0</text>
</g>
<!-- 9 -->
<g id="node9" class="node">
<title>9</title>
<ellipse fill="none" stroke="Turquoise" cx="488.54" cy="-64.02" rx="9" ry="9"/>
<text text-anchor="middle" x="488.54" y="-62.42" font-family="Times,serif" font-size="7.00">9</text>
</g>
<!-- 8&#45;&#45;9 -->
<g id="edge22" class="edge">
<title>8&#45;&#45;9</title>
<path fill="none" stroke="black" d="M434.03,-114.09C445.91,-103.18 469.74,-81.29 481.56,-70.43"/>
<text text-anchor="middle" x="456.8" y="-92.46" font-family="Times,serif" font-size="1.00">1.0</text>
</g>
<!-- 18 -->
<g id="node18" class="node">
<title>18</title>
<ellipse fill="none" stroke="Turquoise" cx="486.91" cy="-185.19" rx="9" ry="9"/>
<text text-anchor="middle" x="486.91" y="-183.59" font-family="Times,serif" font-size="7.00">18</text>
</g>
<!-- 8&#45;&#45;18 -->
<g id="edge23" class="edge">
<title>8&#45;&#45;18</title>
<path fill="none" stroke="black" d="M433.38,-127.49C444.98,-139.99 469.29,-166.2 480.72,-178.52"/>
<text text-anchor="middle" x="456.05" y="-153.2" font-family="Times,serif" font-size="1.00">1.0</text>
</g>
<!-- 10 -->
<g id="node10" class="node">
<title>10</title>
<ellipse fill="none" stroke="Turquoise" cx="549.54" cy="-9" rx="9" ry="9"/>
<text text-anchor="middle" x="549.54" y="-7.4" font-family="Times,serif" font-size="7.00">10</text>
</g>
<!-- 9&#45;&#45;10 -->
<g id="edge25" class="edge">
<title>9&#45;&#45;10</title>
<path fill="none" stroke="black" d="M495.54,-57.7C507.3,-47.09 530.91,-25.8 542.62,-15.24"/>
<text text-anchor="middle" x="518.08" y="-36.67" font-family="Times,serif" font-size="1.00">1.0</text>
</g>
<!-- 19 -->
<g id="node19" class="node">
<title>19</title>
<ellipse fill="none" stroke="Turquoise" cx="547.62" cy="-127.63" rx="9" ry="9"/>
<text text-anchor="middle" x="547.62" y="-126.03" font-family="Times,serif" font-size="7.00">19</text>
</g>
<!-- 9&#45;&#45;19 -->
<g id="edge26" class="edge">
<title>9&#45;&#45;19</title>
<path fill="none" stroke="black" d="M494.86,-70.82C506.18,-83 529.76,-108.39 541.17,-120.68"/>
<text text-anchor="middle" x="517.01" y="-95.95" font-family="Times,serif" font-size="1.00">1.0</text>
</g>
<!-- 20 -->
<g id="node20" class="node">
<title>20</title>
<ellipse fill="none" stroke="Turquoise" cx="607.78" cy="-70.55" rx="9" ry="9"/>
<text text-anchor="middle" x="607.78" y="-68.95" font-family="Times,serif" font-size="7.00">20</text>
</g>
<!-- 10&#45;&#45;20 -->
<g id="edge28" class="edge">
<title>10&#45;&#45;20</title>
<path fill="none" stroke="black" d="M555.77,-15.59C566.92,-27.37 590.17,-51.94 601.41,-63.82"/>
<text text-anchor="middle" x="577.59" y="-39.91" font-family="Times,serif" font-size="1.00">1.0</text>
</g>
<!-- 11&#45;&#45;12 -->
<g id="edge30" class="edge">
<title>11&#45;&#45;12</title>
<path fill="none" stroke="black" d="M75.2,-584.17C86.63,-572.98 109.55,-550.52 120.92,-539.37"/>
<text text-anchor="middle" x="97.06" y="-561.97" font-family="Times,serif" font-size="1.00">1.0</text>
</g>
<!-- 21 -->
<g id="node21" class="node">
<title>21</title>
<ellipse fill="none" stroke="Turquoise" cx="128.35" cy="-653.5" rx="9" ry="9"/>
<text text-anchor="middle" x="128.35" y="-651.9" font-family="Times,serif" font-size="7.00">21</text>
</g>
<!-- 11&#45;&#45;21 -->
<g id="edge31" class="edge">
<title>11&#45;&#45;21</title>
<path fill="none" stroke="black" d="M74.82,-597.53C86.3,-609.53 110.22,-634.55 121.8,-646.65"/>
<text text-anchor="middle" x="97.31" y="-622.29" font-family="Times,serif" font-size="1.00">1.0</text>
</g>
<!-- 12&#45;&#45;13 -->
<g id="edge34" class="edge">
<title>12&#45;&#45;13</title>
<path fill="none" stroke="black" d="M134.48,-526.07C146,-514.77 169.12,-492.1 180.58,-480.85"/>
<text text-anchor="middle" x="156.53" y="-503.66" font-family="Times,serif" font-size="1.00">1.0</text>
</g>
<!-- 22 -->
<g id="node22" class="node">
<title>22</title>
<ellipse fill="none" stroke="Turquoise" cx="188.96" cy="-596.58" rx="9" ry="9"/>
<text text-anchor="middle" x="188.96" y="-594.98" font-family="Times,serif" font-size="7.00">22</text>
</g>
<!-- 12&#45;&#45;22 -->
<g id="edge35" class="edge">
<title>12&#45;&#45;22</title>
<path fill="none" stroke="black" d="M134.2,-539.62C146.06,-551.96 170.94,-577.83 182.63,-589.99"/>
<text text-anchor="middle" x="157.41" y="-565" font-family="Times,serif" font-size="1.00">1.0</text>
</g>
<!-- 13&#45;&#45;14 -->
<g id="edge38" class="edge">
<title>13&#45;&#45;14</title>
<path fill="none" stroke="black" d="M194.22,-467.55C205.76,-456.34 228.92,-433.85 240.41,-422.69"/>
<text text-anchor="middle" x="216.31" y="-445.32" font-family="Times,serif" font-size="1.00">1.0</text>
</g>
<!-- 23 -->
<g id="node23" class="node">
<title>23</title>
<ellipse fill="none" stroke="Turquoise" cx="250.03" cy="-539.12" rx="9" ry="9"/>
<text text-anchor="middle" x="250.03" y="-537.52" font-family="Times,serif" font-size="7.00">23</text>
</g>
<!-- 13&#45;&#45;23 -->
<g id="edge39" class="edge">
<title>13&#45;&#45;23</title>
<path fill="none" stroke="black" d="M194.06,-481.16C206.19,-493.72 231.61,-520.04 243.56,-532.42"/>
<text text-anchor="middle" x="217.81" y="-506.99" font-family="Times,serif" font-size="1.00">1.0</text>
</g>
<!-- 14&#45;&#45;15 -->
<g id="edge42" class="edge">
<title>14&#45;&#45;15</title>
<path fill="none" stroke="black" d="M254.05,-409.47C265.59,-398.32 288.74,-375.95 300.22,-364.85"/>
<text text-anchor="middle" x="276.13" y="-387.36" font-family="Times,serif" font-size="1.00">1.0</text>
</g>
<!-- 24 -->
<g id="node24" class="node">
<title>24</title>
<ellipse fill="none" stroke="Turquoise" cx="310.66" cy="-481.76" rx="9" ry="9"/>
<text text-anchor="middle" x="310.66" y="-480.16" font-family="Times,serif" font-size="7.00">24</text>
</g>
<!-- 14&#45;&#45;24 -->
<g id="edge43" class="edge">
<title>14&#45;&#45;24</title>
<path fill="none" stroke="black" d="M253.51,-422.64C265.67,-435.22 292.22,-462.69 304.37,-475.25"/>
<text text-anchor="middle" x="277.94" y="-449.14" font-family="Times,serif" font-size="1.00">1.0</text>
</g>
<!-- 15&#45;&#45;16 -->
<g id="edge46" class="edge">
<title>15&#45;&#45;16</title>
<path fill="none" stroke="black" d="M313.86,-351.68C325.39,-340.55 348.53,-318.22 360,-307.14"/>
<text text-anchor="middle" x="335.93" y="-329.61" font-family="Times,serif" font-size="1.00">1.0</text>
</g>
<!-- 25 -->
<g id="node25" class="node">
<title>25</title>
<ellipse fill="none" stroke="Turquoise" cx="370.77" cy="-424.36" rx="9" ry="9"/>
<text text-anchor="middle" x="370.77" y="-422.76" font-family="Times,serif" font-size="7.00">25</text>
</g>
<!-- 15&#45;&#45;25 -->
<g id="edge47" class="edge">
<title>15&#45;&#45;25</title>
<path fill="none" stroke="black" d="M313.35,-364.88C325.57,-377.54 352.25,-405.17 364.45,-417.81"/>
<text text-anchor="middle" x="337.9" y="-391.54" font-family="Times,serif" font-size="1.00">1.0</text>
</g>
<!-- 16&#45;&#45;17 -->
<g id="edge50" class="edge">
<title>16&#45;&#45;17</title>
<path fill="none" stroke="black" d="M373.65,-293.98C385.21,-282.85 408.39,-260.51 419.89,-249.43"/>
<text text-anchor="middle" x="395.77" y="-271.91" font-family="Times,serif" font-size="1.00">1.0</text>
</g>
<!-- 26 -->
<g id="node26" class="node">
<title>26</title>
<ellipse fill="none" stroke="Turquoise" cx="430.5" cy="-366.71" rx="9" ry="9"/>
<text text-anchor="middle" x="430.5" y="-365.11" font-family="Times,serif" font-size="7.00">26</text>
</g>
<!-- 16&#45;&#45;26 -->
<g id="edge51" class="edge">
<title>16&#45;&#45;26</title>
<path fill="none" stroke="black" d="M373.12,-307.18C385.34,-319.85 411.99,-347.5 424.19,-360.15"/>
<text text-anchor="middle" x="397.66" y="-333.87" font-family="Times,serif" font-size="1.00">1.0</text>
</g>
<!-- 17&#45;&#45;18 -->
<g id="edge54" class="edge">
<title>17&#45;&#45;18</title>
<path fill="none" stroke="black" d="M433.59,-236.27C445.21,-225.14 468.52,-202.81 480.09,-191.73"/>
<text text-anchor="middle" x="455.84" y="-214.2" font-family="Times,serif" font-size="1.00">1.0</text>
</g>
<!-- 27 -->
<g id="node27" class="node">
<title>27</title>
<ellipse fill="none" stroke="Turquoise" cx="490.01" cy="-308.68" rx="9" ry="9"/>
<text text-anchor="middle" x="490.01" y="-307.08" font-family="Times,serif" font-size="7.00">27</text>
</g>
<!-- 17&#45;&#45;27 -->
<g id="edge55" class="edge">
<title>17&#45;&#45;27</title>
<path fill="none" stroke="black" d="M432.99,-249.44C445.13,-262.05 471.62,-289.57 483.74,-302.16"/>
<text text-anchor="middle" x="457.36" y="-276" font-family="Times,serif" font-size="1.00">1.0</text>
</g>
<!-- 18&#45;&#45;19 -->
<g id="edge58" class="edge">
<title>18&#45;&#45;19</title>
<path fill="none" stroke="black" d="M493.88,-178.59C505.59,-167.48 529.08,-145.2 540.74,-134.15"/>
<text text-anchor="middle" x="516.31" y="-156.57" font-family="Times,serif" font-size="1.00">1.0</text>
</g>
<!-- 28 -->
<g id="node28" class="node">
<title>28</title>
<ellipse fill="none" stroke="Turquoise" cx="549.52" cy="-250.16" rx="9" ry="9"/>
<text text-anchor="middle" x="549.52" y="-248.56" font-family="Times,serif" font-size="7.00">28</text>
</g>
<!-- 18&#45;&#45;28 -->
<g id="edge59" class="edge">
<title>18&#45;&#45;28</title>
<path fill="none" stroke="black" d="M493.61,-192.14C505.73,-204.71 531.12,-231.06 543.06,-243.45"/>
<text text-anchor="middle" x="517.34" y="-218" font-family="Times,serif" font-size="1.00">1.0</text>
</g>
<!-- 19&#45;&#45;20 -->
<g id="edge62" class="edge">
<title>19&#45;&#45;20</title>
<path fill="none" stroke="black" d="M554.52,-121.08C566.13,-110.07 589.41,-87.98 600.96,-77.02"/>
<text text-anchor="middle" x="576.74" y="-99.25" font-family="Times,serif" font-size="1.00">1.0</text>
</g>
<!-- 29 -->
<g id="node29" class="node">
<title>29</title>
<ellipse fill="none" stroke="Turquoise" cx="609.16" cy="-191.21" rx="9" ry="9"/>
<text text-anchor="middle" x="609.16" y="-189.61" font-family="Times,serif" font-size="7.00">29</text>
</g>
<!-- 19&#45;&#45;29 -->
<g id="edge63" class="edge">
<title>19&#45;&#45;29</title>
<path fill="none" stroke="black" d="M554.21,-134.43C566.11,-146.73 591.07,-172.52 602.8,-184.65"/>
<text text-anchor="middle" x="577.51" y="-159.74" font-family="Times,serif" font-size="1.00">1.0</text>
</g>
<!-- 30 -->
<g id="node30" class="node">
<title>30</title>
<ellipse fill="none" stroke="Turquoise" cx="668.25" cy="-132.71" rx="9" ry="9"/>
<text text-anchor="middle" x="668.25" y="-131.11" font-family="Times,serif" font-size="7.00">30</text>
</g>
<!-- 20&#45;&#45;30 -->
<g id="edge66" class="edge">
<title>20&#45;&#45;30</title>
<path fill="none" stroke="black" d="M614.25,-77.2C625.83,-89.1 649.96,-113.92 661.64,-125.92"/>
<text text-anchor="middle" x="636.94" y="-101.76" font-family="Times,serif" font-size="1.00">1.0</text>
</g>
<!-- 21&#45;&#45;22 -->
<g id="edge68" class="edge">
<title>21&#45;&#45;22</title>
<path fill="none" stroke="black" d="M135.3,-646.97C146.99,-635.99 170.45,-613.96 182.09,-603.03"/>
<text text-anchor="middle" x="157.7" y="-625.2" font-family="Times,serif" font-size="1.00">1.0</text>
</g>
<!-- 31 -->
<g id="node31" class="node">
<title>31</title>
<ellipse fill="none" stroke="Turquoise" cx="188.06" cy="-716.3" rx="9" ry="9"/>
<text text-anchor="middle" x="188.06" y="-714.7" font-family="Times,serif" font-size="7.00">31</text>
</g>
<!-- 21&#45;&#45;31 -->
<g id="edge69" class="edge">
<title>21&#45;&#45;31</title>
<path fill="none" stroke="black" d="M134.74,-660.22C146.17,-672.24 170,-697.31 181.53,-709.43"/>
<text text-anchor="middle" x="157.13" y="-685.03" font-family="Times,serif" font-size="1.00">1.0</text>
</g>
<!-- 22&#45;&#45;23 -->
<g id="edge72" class="edge">
<title>22&#45;&#45;23</title>
<path fill="none" stroke="black" d="M195.97,-589.98C207.75,-578.9 231.38,-556.66 243.11,-545.63"/>
<text text-anchor="middle" x="218.54" y="-568.01" font-family="Times,serif" font-size="1.00">1.0</text>
</g>
<!-- 32 -->
<g id="node32" class="node">
<title>32</title>
<ellipse fill="none" stroke="Turquoise" cx="249.86" cy="-660.72" rx="9" ry="9"/>
<text text-anchor="middle" x="249.86" y="-659.12" font-family="Times,serif" font-size="7.00">32</text>
</g>
<!-- 22&#45;&#45;32 -->
<g id="edge73" class="edge">
<title>22&#45;&#45;32</title>
<path fill="none" stroke="black" d="M195.48,-603.44C207.26,-615.85 231.96,-641.87 243.57,-654.1"/>
<text text-anchor="middle" x="218.53" y="-628.97" font-family="Times,serif" font-size="1.00">1.0</text>
</g>
<!-- 23&#45;&#45;24 -->
<g id="edge76" class="edge">
<title>23&#45;&#45;24</title>
<path fill="none" stroke="black" d="M256.99,-532.54C268.68,-521.47 292.15,-499.27 303.79,-488.26"/>
<text text-anchor="middle" x="279.39" y="-510.6" font-family="Times,serif" font-size="1.00">1.0</text>
</g>
<!-- 33 -->
<g id="node33" class="node">
<title>33</title>
<ellipse fill="none" stroke="Turquoise" cx="312.1" cy="-604.51" rx="9" ry="9"/>
<text text-anchor="middle" x="312.1" y="-602.91" font-family="Times,serif" font-size="7.00">33</text>
</g>
<!-- 23&#45;&#45;33 -->
<g id="edge77" class="edge">
<title>23&#45;&#45;33</title>
<path fill="none" stroke="black" d="M256.67,-546.12C268.68,-558.77 293.86,-585.29 305.69,-597.76"/>
<text text-anchor="middle" x="280.18" y="-572.14" font-family="Times,serif" font-size="1.00">1.0</text>
</g>
<!-- 24&#45;&#45;25 -->
<g id="edge80" class="edge">
<title>24&#45;&#45;25</title>
<path fill="none" stroke="black" d="M317.55,-475.17C329.15,-464.1 352.41,-441.89 363.96,-430.87"/>
<text text-anchor="middle" x="339.76" y="-453.22" font-family="Times,serif" font-size="1.00">1.0</text>
</g>
<!-- 34 -->
<g id="node34" class="node">
<title>34</title>
<ellipse fill="none" stroke="Turquoise" cx="373.6" cy="-547.78" rx="9" ry="9"/>
<text text-anchor="middle" x="373.6" y="-546.18" font-family="Times,serif" font-size="7.00">34</text>
</g>
<!-- 24&#45;&#45;34 -->
<g id="edge81" class="edge">
<title>24&#45;&#45;34</title>
<path fill="none" stroke="black" d="M316.92,-488.33C328.99,-500.99 355.31,-528.6 367.36,-541.24"/>
<text text-anchor="middle" x="341.14" y="-514.98" font-family="Times,serif" font-size="1.00">1.0</text>
</g>
<!-- 25&#45;&#45;26 -->
<g id="edge84" class="edge">
<title>25&#45;&#45;26</title>
<path fill="none" stroke="black" d="M377.62,-417.74C389.15,-406.62 412.26,-384.31 423.73,-373.24"/>
<text text-anchor="middle" x="399.68" y="-395.69" font-family="Times,serif" font-size="1.00">1.0</text>
</g>
<!-- 35 -->
<g id="node35" class="node">
<title>35</title>
<ellipse fill="none" stroke="Turquoise" cx="434.3" cy="-490.48" rx="9" ry="9"/>
<text text-anchor="middle" x="434.3" y="-488.88" font-family="Times,serif" font-size="7.00">35</text>
</g>
<!-- 25&#45;&#45;35 -->
<g id="edge85" class="edge">
<title>25&#45;&#45;35</title>
<path fill="none" stroke="black" d="M377.09,-430.94C389.27,-443.62 415.85,-471.27 428,-483.93"/>
<text text-anchor="middle" x="401.55" y="-457.63" font-family="Times,serif" font-size="1.00">1.0</text>
</g>
<!-- 26&#45;&#45;27 -->
<g id="edge88" class="edge">
<title>26&#45;&#45;27</title>
<path fill="none" stroke="black" d="M437.33,-360.05C448.81,-348.86 471.84,-326.4 483.27,-315.26"/>
<text text-anchor="middle" x="459.3" y="-337.85" font-family="Times,serif" font-size="1.00">1.0</text>
</g>
<!-- 36 -->
<g id="node36" class="node">
<title>36</title>
<ellipse fill="none" stroke="Turquoise" cx="494.31" cy="-432.57" rx="9" ry="9"/>
<text text-anchor="middle" x="494.31" y="-430.97" font-family="Times,serif" font-size="7.00">36</text>
</g>
<!-- 26&#45;&#45;36 -->
<g id="edge89" class="edge">
<title>26&#45;&#45;36</title>
<path fill="none" stroke="black" d="M436.86,-373.26C449.09,-385.89 475.77,-413.44 487.98,-426.04"/>
<text text-anchor="middle" x="461.42" y="-399.85" font-family="Times,serif" font-size="1.00">1.0</text>
</g>
<!-- 27&#45;&#45;28 -->
<g id="edge92" class="edge">
<title>27&#45;&#45;28</title>
<path fill="none" stroke="black" d="M496.84,-301.97C508.32,-290.68 531.35,-268.03 542.78,-256.8"/>
<text text-anchor="middle" x="518.81" y="-279.58" font-family="Times,serif" font-size="1.00">1.0</text>
</g>
<!-- 37 -->
<g id="node37" class="node">
<title>37</title>
<ellipse fill="none" stroke="Turquoise" cx="553.73" cy="-373.95" rx="9" ry="9"/>
<text text-anchor="middle" x="553.73" y="-372.35" font-family="Times,serif" font-size="7.00">37</text>
</g>
<!-- 27&#45;&#45;37 -->
<g id="edge93" class="edge">
<title>27&#45;&#45;37</title>
<path fill="none" stroke="black" d="M496.36,-315.18C508.57,-327.69 535.22,-354.99 547.42,-367.48"/>
<text text-anchor="middle" x="520.89" y="-341.53" font-family="Times,serif" font-size="1.00">1.0</text>
</g>
<!-- 28&#45;&#45;29 -->
<g id="edge96" class="edge">
<title>28&#45;&#45;29</title>
<path fill="none" stroke="black" d="M556.36,-243.4C567.87,-232.03 590.95,-209.21 602.39,-197.9"/>
<text text-anchor="middle" x="578.38" y="-220.85" font-family="Times,serif" font-size="1.00">1.0</text>
</g>
<!-- 38 -->
<g id="node38" class="node">
<title>38</title>
<ellipse fill="none" stroke="Turquoise" cx="612.65" cy="-314.54" rx="9" ry="9"/>
<text text-anchor="middle" x="612.65" y="-312.94" font-family="Times,serif" font-size="7.00">38</text>
</g>
<!-- 28&#45;&#45;38 -->
<g id="edge97" class="edge">
<title>28&#45;&#45;38</title>
<path fill="none" stroke="black" d="M556.28,-257.05C568.49,-269.51 594.09,-295.62 606.13,-307.9"/>
<text text-anchor="middle" x="580.2" y="-282.67" font-family="Times,serif" font-size="1.00">1.0</text>
</g>
<!-- 29&#45;&#45;30 -->
<g id="edge100" class="edge">
<title>29&#45;&#45;30</title>
<path fill="none" stroke="black" d="M615.93,-184.5C627.33,-173.22 650.2,-150.58 661.55,-139.34"/>
<text text-anchor="middle" x="637.74" y="-162.12" font-family="Times,serif" font-size="1.00">1.0</text>
</g>
<!-- 39 -->
<g id="node39" class="node">
<title>39</title>
<ellipse fill="none" stroke="Turquoise" cx="671.07" cy="-254.38" rx="9" ry="9"/>
<text text-anchor="middle" x="671.07" y="-252.78" font-family="Times,serif" font-size="7.00">39</text>
</g>
<!-- 29&#45;&#45;39 -->
<g id="edge101" class="edge">
<title>29&#45;&#45;39</title>
<path fill="none" stroke="black" d="M615.78,-197.97C627.76,-210.19 652.87,-235.81 664.68,-247.86"/>
<text text-anchor="middle" x="639.23" y="-223.11" font-family="Times,serif" font-size="1.00">1.0</text>
</g>
<!-- 40 -->
<g id="node40" class="node">
<title>40</title>
<ellipse fill="none" stroke="Turquoise" cx="728.85" cy="-194.65" rx="9" ry="9"/>
<text text-anchor="middle" x="728.85" y="-193.05" font-family="Times,serif" font-size="7.00">40</text>
</g>
<!-- 30&#45;&#45;40 -->
<g id="edge104" class="edge">
<title>30&#45;&#45;40</title>
<path fill="none" stroke="black" d="M674.73,-139.34C686.34,-151.2 710.53,-175.92 722.23,-187.88"/>
<text text-anchor="middle" x="697.48" y="-163.81" font-family="Times,serif" font-size="1.00">1.0</text>
</g>
<!-- 31&#45;&#45;32 -->
<g id="edge106" class="edge">
<title>31&#45;&#45;32</title>
<path fill="none" stroke="black" d="M195.15,-709.92C207.07,-699.2 230.99,-677.69 242.85,-667.02"/>
<text text-anchor="middle" x="218" y="-688.67" font-family="Times,serif" font-size="1.00">1.0</text>
</g>
<!-- 41 -->
<g id="node41" class="node">
<title>41</title>
<ellipse fill="none" stroke="Turquoise" cx="245.24" cy="-778.64" rx="9" ry="9"/>
<text text-anchor="middle" x="245.24" y="-777.04" font-family="Times,serif" font-size="7.00">41</text>
</g>
<!-- 31&#45;&#45;41 -->
<g id="edge107" class="edge">
<title>31&#45;&#45;41</title>
<path fill="none" stroke="black" d="M194.18,-722.97C205.13,-734.91 227.95,-759.79 238.99,-771.83"/>
<text text-anchor="middle" x="215.59" y="-747.6" font-family="Times,serif" font-size="1.00">1.0</text>
</g>
<!-- 32&#45;&#45;33 -->
<g id="edge110" class="edge">
<title>32&#45;&#45;33</title>
<path fill="none" stroke="black" d="M257,-654.27C269.13,-643.32 293.61,-621.21 305.42,-610.55"/>
<text text-anchor="middle" x="280.21" y="-632.61" font-family="Times,serif" font-size="1.00">1.0</text>
</g>
<!-- 42 -->
<g id="node42" class="node">
<title>42</title>
<ellipse fill="none" stroke="Turquoise" cx="307.93" cy="-725.04" rx="9" ry="9"/>
<text text-anchor="middle" x="307.93" y="-723.44" font-family="Times,serif" font-size="7.00">42</text>
</g>
<!-- 32&#45;&#45;42 -->
<g id="edge111" class="edge">
<title>32&#45;&#45;42</title>
<path fill="none" stroke="black" d="M256.07,-667.61C267.19,-679.92 290.37,-705.59 301.59,-718.01"/>
<text text-anchor="middle" x="277.83" y="-693.01" font-family="Times,serif" font-size="1.00">1.0</text>
</g>
<!-- 33&#45;&#45;34 -->
<g id="edge114" class="edge">
<title>33&#45;&#45;34</title>
<path fill="none" stroke="black" d="M319.16,-598.01C331.02,-587.06 354.82,-565.11 366.63,-554.21"/>
<text text-anchor="middle" x="341.89" y="-576.31" font-family="Times,serif" font-size="1.00">1.0</text>
</g>
<!-- 43 -->
<g id="node43" class="node">
<title>43</title>
<ellipse fill="none" stroke="Turquoise" cx="371.16" cy="-669.6" rx="9" ry="9"/>
<text text-anchor="middle" x="371.16" y="-668" font-family="Times,serif" font-size="7.00">43</text>
</g>
<!-- 33&#45;&#45;43 -->
<g id="edge115" class="edge">
<title>33&#45;&#45;43</title>
<path fill="none" stroke="black" d="M318.42,-611.48C329.85,-624.07 353.8,-650.47 365.06,-662.88"/>
<text text-anchor="middle" x="340.74" y="-637.38" font-family="Times,serif" font-size="1.00">1.0</text>
</g>
<!-- 34&#45;&#45;35 -->
<g id="edge118" class="edge">
<title>34&#45;&#45;35</title>
<path fill="none" stroke="black" d="M380.56,-541.21C392.27,-530.16 415.77,-507.98 427.42,-496.98"/>
<text text-anchor="middle" x="402.99" y="-519.29" font-family="Times,serif" font-size="1.00">1.0</text>
</g>
<!-- 44 -->
<g id="node44" class="node">
<title>44</title>
<ellipse fill="none" stroke="Turquoise" cx="433.78" cy="-612.79" rx="9" ry="9"/>
<text text-anchor="middle" x="433.78" y="-611.19" font-family="Times,serif" font-size="7.00">44</text>
</g>
<!-- 34&#45;&#45;44 -->
<g id="edge119" class="edge">
<title>34&#45;&#45;44</title>
<path fill="none" stroke="black" d="M380.04,-554.74C391.68,-567.32 416.09,-593.68 427.57,-606.08"/>
<text text-anchor="middle" x="402.8" y="-580.61" font-family="Times,serif" font-size="1.00">1.0</text>
</g>
<!-- 35&#45;&#45;36 -->
<g id="edge122" class="edge">
<title>35&#45;&#45;36</title>
<path fill="none" stroke="black" d="M441.19,-483.84C452.76,-472.67 475.98,-450.26 487.5,-439.14"/>
<text text-anchor="middle" x="463.35" y="-461.69" font-family="Times,serif" font-size="1.00">1.0</text>
</g>
<!-- 45 -->
<g id="node45" class="node">
<title>45</title>
<ellipse fill="none" stroke="Turquoise" cx="495.58" cy="-554.92" rx="9" ry="9"/>
<text text-anchor="middle" x="495.58" y="-553.32" font-family="Times,serif" font-size="7.00">45</text>
</g>
<!-- 35&#45;&#45;45 -->
<g id="edge123" class="edge">
<title>35&#45;&#45;45</title>
<path fill="none" stroke="black" d="M440.86,-497.38C452.71,-509.85 477.56,-535.98 489.25,-548.27"/>
<text text-anchor="middle" x="464.05" y="-523.02" font-family="Times,serif" font-size="1.00">1.0</text>
</g>
<!-- 36&#45;&#45;37 -->
<g id="edge126" class="edge">
<title>36&#45;&#45;37</title>
<path fill="none" stroke="black" d="M501.12,-425.85C512.59,-414.54 535.59,-391.85 547,-380.6"/>
<text text-anchor="middle" x="523.06" y="-403.42" font-family="Times,serif" font-size="1.00">1.0</text>
</g>
<!-- 46 -->
<g id="node46" class="node">
<title>46</title>
<ellipse fill="none" stroke="Turquoise" cx="556.51" cy="-496.12" rx="9" ry="9"/>
<text text-anchor="middle" x="556.51" y="-494.52" font-family="Times,serif" font-size="7.00">46</text>
</g>
<!-- 36&#45;&#45;46 -->
<g id="edge127" class="edge">
<title>36&#45;&#45;46</title>
<path fill="none" stroke="black" d="M500.96,-439.37C513,-451.67 538.23,-477.44 550.09,-489.56"/>
<text text-anchor="middle" x="524.53" y="-464.66" font-family="Times,serif" font-size="1.00">1.0</text>
</g>
<!-- 37&#45;&#45;38 -->
<g id="edge130" class="edge">
<title>37&#45;&#45;38</title>
<path fill="none" stroke="black" d="M560.49,-367.14C571.86,-355.68 594.66,-332.69 605.97,-321.28"/>
<text text-anchor="middle" x="582.23" y="-344.41" font-family="Times,serif" font-size="1.00">1.0</text>
</g>
<!-- 47 -->
<g id="node47" class="node">
<title>47</title>
<ellipse fill="none" stroke="Turquoise" cx="616.55" cy="-436.44" rx="9" ry="9"/>
<text text-anchor="middle" x="616.55" y="-434.84" font-family="Times,serif" font-size="7.00">47</text>
</g>
<!-- 37&#45;&#45;47 -->
<g id="edge131" class="edge">
<title>37&#45;&#45;47</title>
<path fill="none" stroke="black" d="M560.46,-380.64C572.61,-392.73 598.08,-418.07 610.06,-429.99"/>
<text text-anchor="middle" x="584.26" y="-405.51" font-family="Times,serif" font-size="1.00">1.0</text>
</g>
<!-- 38&#45;&#45;39 -->
<g id="edge134" class="edge">
<title>38&#45;&#45;39</title>
<path fill="none" stroke="black" d="M619.35,-307.64C630.62,-296.04 653.23,-272.75 664.44,-261.2"/>
<text text-anchor="middle" x="640.9" y="-284.62" font-family="Times,serif" font-size="1.00">1.0</text>
</g>
<!-- 48 -->
<g id="node48" class="node">
<title>48</title>
<ellipse fill="none" stroke="Turquoise" cx="675.56" cy="-375.91" rx="9" ry="9"/>
<text text-anchor="middle" x="675.56" y="-374.31" font-family="Times,serif" font-size="7.00">48</text>
</g>
<!-- 38&#45;&#45;48 -->
<g id="edge135" class="edge">
<title>38&#45;&#45;48</title>
<path fill="none" stroke="black" d="M619.38,-321.11C631.55,-332.98 657.07,-357.87 669.07,-369.57"/>
<text text-anchor="middle" x="643.22" y="-345.54" font-family="Times,serif" font-size="1.00">1.0</text>
</g>
<!-- 39&#45;&#45;40 -->
<g id="edge138" class="edge">
<title>39&#45;&#45;40</title>
<path fill="none" stroke="black" d="M677.7,-247.53C688.84,-236 711.21,-212.89 722.3,-201.42"/>
<text text-anchor="middle" x="699" y="-224.67" font-family="Times,serif" font-size="1.00">1.0</text>
</g>
<!-- 49 -->
<g id="node49" class="node">
<title>49</title>
<ellipse fill="none" stroke="Turquoise" cx="733.25" cy="-314.74" rx="9" ry="9"/>
<text text-anchor="middle" x="733.25" y="-313.14" font-family="Times,serif" font-size="7.00">49</text>
</g>
<!-- 39&#45;&#45;49 -->
<g id="edge139" class="edge">
<title>39&#45;&#45;49</title>
<path fill="none" stroke="black" d="M677.72,-260.84C689.63,-272.4 714.45,-296.49 726.46,-308.15"/>
<text text-anchor="middle" x="701.09" y="-284.69" font-family="Times,serif" font-size="1.00">1.0</text>
</g>
<!-- 50 -->
<g id="node50" class="node">
<title>50</title>
<ellipse fill="none" stroke="Turquoise" cx="789.09" cy="-254.05" rx="9" ry="9"/>
<text text-anchor="middle" x="789.09" y="-252.45" font-family="Times,serif" font-size="7.00">50</text>
</g>
<!-- 40&#45;&#45;50 -->
<g id="edge142" class="edge">
<title>40&#45;&#45;50</title>
<path fill="none" stroke="black" d="M735.3,-201C746.83,-212.38 770.88,-236.09 782.51,-247.56"/>
<text text-anchor="middle" x="757.91" y="-224.48" font-family="Times,serif" font-size="1.00">1.0</text>
</g>
<!-- 41&#45;&#45;42 -->
<g id="edge144" class="edge">
<title>41&#45;&#45;42</title>
<path fill="none" stroke="black" d="M252.43,-772.49C264.53,-762.15 288.79,-741.41 300.83,-731.12"/>
<text text-anchor="middle" x="275.63" y="-752.01" font-family="Times,serif" font-size="1.00">1.0</text>
</g>
<!-- 42&#45;&#45;43 -->
<g id="edge147" class="edge">
<title>42&#45;&#45;43</title>
<path fill="none" stroke="black" d="M315.19,-718.68C327.51,-707.87 352.37,-686.07 364.37,-675.55"/>
<text text-anchor="middle" x="338.78" y="-697.32" font-family="Times,serif" font-size="1.00">1.0</text>
</g>
<!-- 43&#45;&#45;44 -->
<g id="edge150" class="edge">
<title>43&#45;&#45;44</title>
<path fill="none" stroke="black" d="M377.86,-663.52C389.85,-652.64 414.84,-629.97 426.94,-619"/>
<text text-anchor="middle" x="401.4" y="-641.46" font-family="Times,serif" font-size="1.00">1.0</text>
</g>
<!-- 44&#45;&#45;45 -->
<g id="edge153" class="edge">
<title>44&#45;&#45;45</title>
<path fill="none" stroke="black" d="M440.39,-606.6C452.22,-595.52 476.89,-572.42 488.82,-561.24"/>
<text text-anchor="middle" x="463.61" y="-584.12" font-family="Times,serif" font-size="1.00">1.0</text>
</g>
<!-- 45&#45;&#45;46 -->
<g id="edge156" class="edge">
<title>45&#45;&#45;46</title>
<path fill="none" stroke="black" d="M502.1,-548.63C513.76,-537.37 538.08,-513.9 549.85,-502.54"/>
<text text-anchor="middle" x="524.97" y="-525.79" font-family="Times,serif" font-size="1.00">1.0</text>
</g>
<!-- 46&#45;&#45;47 -->
<g id="edge159" class="edge">
<title>46&#45;&#45;47</title>
<path fill="none" stroke="black" d="M562.93,-489.73C574.43,-478.3 598.39,-454.48 609.98,-442.96"/>
<text text-anchor="middle" x="585.46" y="-466.55" font-family="Times,serif" font-size="1.00">1.0</text>
</g>
<!-- 47&#45;&#45;48 -->
<g id="edge162" class="edge">
<title>47&#45;&#45;48</title>
<path fill="none" stroke="black" d="M622.86,-429.96C634.16,-418.37 657.72,-394.21 669.11,-382.52"/>
<text text-anchor="middle" x="644.99" y="-406.44" font-family="Times,serif" font-size="1.00">1.0</text>
</g>
<!-- 48&#45;&#45;49 -->
<g id="edge165" class="edge">
<title>48&#45;&#45;49</title>
<path fill="none" stroke="black" d="M682.18,-368.89C693.43,-356.97 716.11,-332.91 727.06,-321.31"/>
<text text-anchor="middle" x="703.62" y="-345.3" font-family="Times,serif" font-size="1.00">1.0</text>
</g>
<!-- 49&#45;&#45;50 -->
<g id="edge168" class="edge">
<title>49&#45;&#45;50</title>
<path fill="none" stroke="black" d="M739.66,-307.78C750.43,-296.07 772.04,-272.58 782.76,-260.93"/>
<text text-anchor="middle" x="760.21" y="-284.56" font-family="Times,serif" font-size="1.00">1.0</text>
</g>
</g>
</svg>
