<?xml version="1.0" encoding="UTF-8" standalone="no"?>
<!DOCTYPE svg PUBLIC "-//W3C//DTD SVG 1.1//EN"
 "http://www.w3.org/Graphics/SVG/1.1/DTD/svg11.dtd">
<!-- Generated by graphviz version 2.50.0 (20211204.2007)
 -->
<!-- Title: graphname Pages: 1 -->
<svg width="278pt" height="404pt"
 viewBox="0.00 0.00 278.00 404.00" xmlns="http://www.w3.org/2000/svg" xmlns:xlink="http://www.w3.org/1999/xlink">
<g id="graph0" class="graph" transform="scale(1 1) rotate(0) translate(4 400)">
<title>graphname</title>
<polygon fill="white" stroke="transparent" points="-4,4 -4,-400 274,-400 274,4 -4,4"/>
<!-- 1 -->
<g id="node1" class="node">
<title>1</title>
<polygon fill="none" stroke="Red" points="54,-396 36,-396 36,-394 34,-394 34,-392 36,-392 36,-382 34,-382 34,-380 36,-380 36,-378 54,-378 54,-396"/>
<polyline fill="none" stroke="Red" points="36,-394 38,-394 38,-392 36,-392 "/>
<polyline fill="none" stroke="Red" points="36,-382 38,-382 38,-380 36,-380 "/>
<text text-anchor="middle" x="45" y="-383.3" font-family="Times,serif" font-size="14.00">1</text>
</g>
<!-- 2 -->
<g id="node2" class="node">
<title>2</title>
<polygon fill="none" stroke="Red" points="18,-72 0,-72 0,-70 -2,-70 -2,-68 0,-68 0,-58 -2,-58 -2,-56 0,-56 0,-54 18,-54 18,-72"/>
<polyline fill="none" stroke="Red" points="0,-70 2,-70 2,-68 0,-68 "/>
<polyline fill="none" stroke="Red" points="0,-58 2,-58 2,-56 0,-56 "/>
<text text-anchor="middle" x="9" y="-59.3" font-family="Times,serif" font-size="14.00">2</text>
</g>
<!-- 3 -->
<g id="node3" class="node">
<title>3</title>
<polygon fill="none" stroke="Red" points="126,-396 108,-396 108,-394 106,-394 106,-392 108,-392 108,-382 106,-382 106,-380 108,-380 108,-378 126,-378 126,-396"/>
<polyline fill="none" stroke="Red" points="108,-394 110,-394 110,-392 108,-392 "/>
<polyline fill="none" stroke="Red" points="108,-382 110,-382 110,-380 108,-380 "/>
<text text-anchor="middle" x="117" y="-383.3" font-family="Times,serif" font-size="14.00">3</text>
</g>
<!-- 4 -->
<g id="node4" class="node">
<title>4</title>
<polygon fill="none" stroke="Red" points="54,-180 36,-180 36,-178 34,-178 34,-176 36,-176 36,-166 34,-166 34,-164 36,-164 36,-162 54,-162 54,-180"/>
<polyline fill="none" stroke="Red" points="36,-178 38,-178 38,-176 36,-176 "/>
<polyline fill="none" stroke="Red" points="36,-166 38,-166 38,-164 36,-164 "/>
<text text-anchor="middle" x="45" y="-167.3" font-family="Times,serif" font-size="14.00">4</text>
</g>
<!-- 11 -->
<g id="node11" class="node">
<title>11</title>
<polygon fill="none" stroke="Red" points="54,-126 36,-126 36,-124 34,-124 34,-122 36,-122 36,-112 34,-112 34,-110 36,-110 36,-108 54,-108 54,-126"/>
<polyline fill="none" stroke="Red" points="36,-124 38,-124 38,-122 36,-122 "/>
<polyline fill="none" stroke="Red" points="36,-112 38,-112 38,-110 36,-110 "/>
<text text-anchor="middle" x="45" y="-113.3" font-family="Times,serif" font-size="14.00">11</text>
</g>
<!-- 4&#45;&gt;11 -->
<g id="edge1" class="edge">
<title>4&#45;&gt;11</title>
<path fill="none" stroke="black" d="M45,-161.88C45,-153.76 45,-141.13 45,-131.5"/>
<polygon fill="black" stroke="black" points="46.75,-131.24 45,-126.24 43.25,-131.24 46.75,-131.24"/>
</g>
<!-- 5 -->
<g id="node5" class="node">
<title>5</title>
<polygon fill="none" stroke="Red" points="90,-396 72,-396 72,-394 70,-394 70,-392 72,-392 72,-382 70,-382 70,-380 72,-380 72,-378 90,-378 90,-396"/>
<polyline fill="none" stroke="Red" points="72,-394 74,-394 74,-392 72,-392 "/>
<polyline fill="none" stroke="Red" points="72,-382 74,-382 74,-380 72,-380 "/>
<text text-anchor="middle" x="81" y="-383.3" font-family="Times,serif" font-size="14.00">5</text>
</g>
<!-- 15 -->
<g id="node15" class="node">
<title>15</title>
<polygon fill="none" stroke="Red" points="90,-342 72,-342 72,-340 70,-340 70,-338 72,-338 72,-328 70,-328 70,-326 72,-326 72,-324 90,-324 90,-342"/>
<polyline fill="none" stroke="Red" points="72,-340 74,-340 74,-338 72,-338 "/>
<polyline fill="none" stroke="Red" points="72,-328 74,-328 74,-326 72,-326 "/>
<text text-anchor="middle" x="81" y="-329.3" font-family="Times,serif" font-size="14.00">15</text>
</g>
<!-- 5&#45;&gt;15 -->
<g id="edge2" class="edge">
<title>5&#45;&gt;15</title>
<path fill="none" stroke="black" d="M81,-377.88C81,-369.76 81,-357.13 81,-347.5"/>
<polygon fill="black" stroke="black" points="82.75,-347.24 81,-342.24 79.25,-347.24 82.75,-347.24"/>
</g>
<!-- 6 -->
<g id="node6" class="node">
<title>6</title>
<polygon fill="none" stroke="Red" points="90,-180 72,-180 72,-178 70,-178 70,-176 72,-176 72,-166 70,-166 70,-164 72,-164 72,-162 90,-162 90,-180"/>
<polyline fill="none" stroke="Red" points="72,-178 74,-178 74,-176 72,-176 "/>
<polyline fill="none" stroke="Red" points="72,-166 74,-166 74,-164 72,-164 "/>
<text text-anchor="middle" x="81" y="-167.3" font-family="Times,serif" font-size="14.00">6</text>
</g>
<!-- 18 -->
<g id="node18" class="node">
<title>18</title>
<polygon fill="none" stroke="Red" points="109,-126 91,-126 91,-124 89,-124 89,-122 91,-122 91,-112 89,-112 89,-110 91,-110 91,-108 109,-108 109,-126"/>
<polyline fill="none" stroke="Red" points="91,-124 93,-124 93,-122 91,-122 "/>
<polyline fill="none" stroke="Red" points="91,-112 93,-112 93,-110 91,-110 "/>
<text text-anchor="middle" x="100" y="-113.3" font-family="Times,serif" font-size="14.00">18</text>
</g>
<!-- 6&#45;&gt;18 -->
<g id="edge3" class="edge">
<title>6&#45;&gt;18</title>
<path fill="none" stroke="black" d="M83.97,-161.88C86.99,-153.6 91.72,-140.66 95.26,-130.97"/>
<polygon fill="black" stroke="black" points="96.92,-131.54 96.99,-126.24 93.63,-130.34 96.92,-131.54"/>
</g>
<!-- 7 -->
<g id="node7" class="node">
<title>7</title>
<polygon fill="none" stroke="Red" points="18,-126 0,-126 0,-124 -2,-124 -2,-122 0,-122 0,-112 -2,-112 -2,-110 0,-110 0,-108 18,-108 18,-126"/>
<polyline fill="none" stroke="Red" points="0,-124 2,-124 2,-122 0,-122 "/>
<polyline fill="none" stroke="Red" points="0,-112 2,-112 2,-110 0,-110 "/>
<text text-anchor="middle" x="9" y="-113.3" font-family="Times,serif" font-size="14.00">7</text>
</g>
<!-- 7&#45;&gt;2 -->
<g id="edge4" class="edge">
<title>7&#45;&gt;2</title>
<path fill="none" stroke="black" d="M9,-107.88C9,-99.76 9,-87.13 9,-77.5"/>
<polygon fill="black" stroke="black" points="10.75,-77.24 9,-72.24 7.25,-77.24 10.75,-77.24"/>
</g>
<!-- 8 -->
<g id="node8" class="node">
<title>8</title>
<polygon fill="none" stroke="Red" points="54,-72 36,-72 36,-70 34,-70 34,-68 36,-68 36,-58 34,-58 34,-56 36,-56 36,-54 54,-54 54,-72"/>
<polyline fill="none" stroke="Red" points="36,-70 38,-70 38,-68 36,-68 "/>
<polyline fill="none" stroke="Red" points="36,-58 38,-58 38,-56 36,-56 "/>
<text text-anchor="middle" x="45" y="-59.3" font-family="Times,serif" font-size="14.00">8</text>
</g>
<!-- 16 -->
<g id="node16" class="node">
<title>16</title>
<polygon fill="none" stroke="Red" points="54,-18 36,-18 36,-16 34,-16 34,-14 36,-14 36,-4 34,-4 34,-2 36,-2 36,0 54,0 54,-18"/>
<polyline fill="none" stroke="Red" points="36,-16 38,-16 38,-14 36,-14 "/>
<polyline fill="none" stroke="Red" points="36,-4 38,-4 38,-2 36,-2 "/>
<text text-anchor="middle" x="45" y="-5.3" font-family="Times,serif" font-size="14.00">16</text>
</g>
<!-- 8&#45;&gt;16 -->
<g id="edge5" class="edge">
<title>8&#45;&gt;16</title>
<path fill="none" stroke="black" d="M45,-53.88C45,-45.76 45,-33.13 45,-23.5"/>
<polygon fill="black" stroke="black" points="46.75,-23.24 45,-18.24 43.25,-23.24 46.75,-23.24"/>
</g>
<!-- 9 -->
<g id="node9" class="node">
<title>9</title>
<polygon fill="none" stroke="Red" points="162,-396 144,-396 144,-394 142,-394 142,-392 144,-392 144,-382 142,-382 142,-380 144,-380 144,-378 162,-378 162,-396"/>
<polyline fill="none" stroke="Red" points="144,-394 146,-394 146,-392 144,-392 "/>
<polyline fill="none" stroke="Red" points="144,-382 146,-382 146,-380 144,-380 "/>
<text text-anchor="middle" x="153" y="-383.3" font-family="Times,serif" font-size="14.00">9</text>
</g>
<!-- 10 -->
<g id="node10" class="node">
<title>10</title>
<polygon fill="none" stroke="Red" points="90,-234 72,-234 72,-232 70,-232 70,-230 72,-230 72,-220 70,-220 70,-218 72,-218 72,-216 90,-216 90,-234"/>
<polyline fill="none" stroke="Red" points="72,-232 74,-232 74,-230 72,-230 "/>
<polyline fill="none" stroke="Red" points="72,-220 74,-220 74,-218 72,-218 "/>
<text text-anchor="middle" x="81" y="-221.3" font-family="Times,serif" font-size="14.00">10</text>
</g>
<!-- 10&#45;&gt;6 -->
<g id="edge6" class="edge">
<title>10&#45;&gt;6</title>
<path fill="none" stroke="black" d="M81,-215.88C81,-207.76 81,-195.13 81,-185.5"/>
<polygon fill="black" stroke="black" points="82.75,-185.24 81,-180.24 79.25,-185.24 82.75,-185.24"/>
</g>
<!-- 11&#45;&gt;2 -->
<g id="edge7" class="edge">
<title>11&#45;&gt;2</title>
<path fill="none" stroke="black" d="M39.38,-107.88C33.54,-99.45 24.36,-86.18 17.61,-76.44"/>
<polygon fill="black" stroke="black" points="18.99,-75.35 14.7,-72.24 16.11,-77.35 18.99,-75.35"/>
</g>
<!-- 11&#45;&gt;8 -->
<g id="edge8" class="edge">
<title>11&#45;&gt;8</title>
<path fill="none" stroke="black" d="M45,-107.88C45,-99.76 45,-87.13 45,-77.5"/>
<polygon fill="black" stroke="black" points="46.75,-77.24 45,-72.24 43.25,-77.24 46.75,-77.24"/>
</g>
<!-- 12 -->
<g id="node12" class="node">
<title>12</title>
<polygon fill="none" stroke="Red" points="90,-288 72,-288 72,-286 70,-286 70,-284 72,-284 72,-274 70,-274 70,-272 72,-272 72,-270 90,-270 90,-288"/>
<polyline fill="none" stroke="Red" points="72,-286 74,-286 74,-284 72,-284 "/>
<polyline fill="none" stroke="Red" points="72,-274 74,-274 74,-272 72,-272 "/>
<text text-anchor="middle" x="81" y="-275.3" font-family="Times,serif" font-size="14.00">12</text>
</g>
<!-- 12&#45;&gt;10 -->
<g id="edge9" class="edge">
<title>12&#45;&gt;10</title>
<path fill="none" stroke="black" d="M81,-269.88C81,-261.76 81,-249.13 81,-239.5"/>
<polygon fill="black" stroke="black" points="82.75,-239.24 81,-234.24 79.25,-239.24 82.75,-239.24"/>
</g>
<!-- 13 -->
<g id="node13" class="node">
<title>13</title>
<polygon fill="none" stroke="Red" points="198,-396 180,-396 180,-394 178,-394 178,-392 180,-392 180,-382 178,-382 178,-380 180,-380 180,-378 198,-378 198,-396"/>
<polyline fill="none" stroke="Red" points="180,-394 182,-394 182,-392 180,-392 "/>
<polyline fill="none" stroke="Red" points="180,-382 182,-382 182,-380 180,-380 "/>
<text text-anchor="middle" x="189" y="-383.3" font-family="Times,serif" font-size="14.00">13</text>
</g>
<!-- 14 -->
<g id="node14" class="node">
<title>14</title>
<polygon fill="none" stroke="Red" points="234,-396 216,-396 216,-394 214,-394 214,-392 216,-392 216,-382 214,-382 214,-380 216,-380 216,-378 234,-378 234,-396"/>
<polyline fill="none" stroke="Red" points="216,-394 218,-394 218,-392 216,-392 "/>
<polyline fill="none" stroke="Red" points="216,-382 218,-382 218,-380 216,-380 "/>
<text text-anchor="middle" x="225" y="-383.3" font-family="Times,serif" font-size="14.00">14</text>
</g>
<!-- 15&#45;&gt;12 -->
<g id="edge10" class="edge">
<title>15&#45;&gt;12</title>
<path fill="none" stroke="black" d="M81,-323.88C81,-315.76 81,-303.13 81,-293.5"/>
<polygon fill="black" stroke="black" points="82.75,-293.24 81,-288.24 79.25,-293.24 82.75,-293.24"/>
</g>
<!-- 17 -->
<g id="node17" class="node">
<title>17</title>
<polygon fill="none" stroke="Red" points="126,-288 108,-288 108,-286 106,-286 106,-284 108,-284 108,-274 106,-274 106,-272 108,-272 108,-270 126,-270 126,-288"/>
<polyline fill="none" stroke="Red" points="108,-286 110,-286 110,-284 108,-284 "/>
<polyline fill="none" stroke="Red" points="108,-274 110,-274 110,-272 108,-272 "/>
<text text-anchor="middle" x="117" y="-275.3" font-family="Times,serif" font-size="14.00">17</text>
</g>
<!-- 17&#45;&gt;10 -->
<g id="edge11" class="edge">
<title>17&#45;&gt;10</title>
<path fill="none" stroke="black" d="M111.38,-269.88C105.54,-261.45 96.36,-248.18 89.61,-238.44"/>
<polygon fill="black" stroke="black" points="90.99,-237.35 86.7,-234.24 88.11,-239.35 90.99,-237.35"/>
</g>
<!-- 17&#45;&gt;18 -->
<g id="edge12" class="edge">
<title>17&#45;&gt;18</title>
<path fill="none" stroke="black" d="M116.13,-269.85C113.38,-243.96 104.83,-163.47 101.42,-131.39"/>
<polygon fill="black" stroke="black" points="103.15,-131.12 100.89,-126.33 99.67,-131.49 103.15,-131.12"/>
</g>
<!-- 19 -->
<g id="node19" class="node">
<title>19</title>
<polygon fill="none" stroke="Red" points="270,-396 252,-396 252,-394 250,-394 250,-392 252,-392 252,-382 250,-382 250,-380 252,-380 252,-378 270,-378 270,-396"/>
<polyline fill="none" stroke="Red" points="252,-394 254,-394 254,-392 252,-392 "/>
<polyline fill="none" stroke="Red" points="252,-382 254,-382 254,-380 252,-380 "/>
<text text-anchor="middle" x="261" y="-383.3" font-family="Times,serif" font-size="14.00">19</text>
</g>
<!-- 20 -->
<g id="node20" class="node">
<title>20</title>
<polygon fill="none" stroke="Red" points="54,-234 36,-234 36,-232 34,-232 34,-230 36,-230 36,-220 34,-220 34,-218 36,-218 36,-216 54,-216 54,-234"/>
<polyline fill="none" stroke="Red" points="36,-232 38,-232 38,-230 36,-230 "/>
<polyline fill="none" stroke="Red" points="36,-220 38,-220 38,-218 36,-218 "/>
<text text-anchor="middle" x="45" y="-221.3" font-family="Times,serif" font-size="14.00">20</text>
</g>
<!-- 20&#45;&gt;4 -->
<g id="edge13" class="edge">
<title>20&#45;&gt;4</title>
<path fill="none" stroke="black" d="M45,-215.88C45,-207.76 45,-195.13 45,-185.5"/>
<polygon fill="black" stroke="black" points="46.75,-185.24 45,-180.24 43.25,-185.24 46.75,-185.24"/>
</g>
<!-- 20&#45;&gt;6 -->
<g id="edge14" class="edge">
<title>20&#45;&gt;6</title>
<path fill="none" stroke="black" d="M50.62,-215.88C56.46,-207.45 65.64,-194.18 72.39,-184.44"/>
<polygon fill="black" stroke="black" points="73.89,-185.35 75.3,-180.24 71.01,-183.35 73.89,-185.35"/>
</g>
</g>
</svg>
