<?xml version="1.0" encoding="UTF-8" standalone="no"?>
<!DOCTYPE svg PUBLIC "-//W3C//DTD SVG 1.1//EN"
 "http://www.w3.org/Graphics/SVG/1.1/DTD/svg11.dtd">
<!-- Generated by graphviz version 2.50.0 (20211204.2007)
 -->
<!-- Title: G Pages: 1 -->
<svg width="98pt" height="88pt"
 viewBox="0.00 0.00 98.21 88.41" xmlns="http://www.w3.org/2000/svg" xmlns:xlink="http://www.w3.org/1999/xlink">
<g id="graph0" class="graph" transform="scale(1 1) rotate(0) translate(4 84.41)">
<title>G</title>
<polygon fill="white" stroke="transparent" points="-4,4 -4,-84.41 94.21,-84.41 94.21,4 -4,4"/>
<!-- 1 -->
<g id="node1" class="node">
<title>1</title>
<ellipse fill="none" stroke="Turquoise" cx="9" cy="-70.93" rx="9" ry="9"/>
<text text-anchor="middle" x="9" y="-69.33" font-family="Times,serif" font-size="7.00">1</text>
</g>
<!-- 2 -->
<g id="node2" class="node">
<title>2</title>
<ellipse fill="none" stroke="Turquoise" cx="81.21" cy="-71.41" rx="9" ry="9"/>
<text text-anchor="middle" x="81.21" y="-69.81" font-family="Times,serif" font-size="7.00">2</text>
</g>
<!-- 1&#45;&#45;2 -->
<g id="edge1" class="edge">
<title>1&#45;&#45;2</title>
<path fill="none" stroke="black" d="M18.14,-70.99C31.96,-71.08 58,-71.26 71.91,-71.35"/>
<text text-anchor="middle" x="44.03" y="-71.37" font-family="Times,serif" font-size="1.00">0.5</text>
</g>
<!-- 3 -->
<g id="node3" class="node">
<title>3</title>
<ellipse fill="none" stroke="Turquoise" cx="45.59" cy="-9" rx="9" ry="9"/>
<text text-anchor="middle" x="45.59" y="-7.4" font-family="Times,serif" font-size="7.00">3</text>
</g>
<!-- 1&#45;&#45;3 -->
<g id="edge2" class="edge">
<title>1&#45;&#45;3</title>
<path fill="none" stroke="black" d="M13.63,-63.09C20.63,-51.24 33.83,-28.9 40.88,-16.98"/>
<text text-anchor="middle" x="26.26" y="-40.23" font-family="Times,serif" font-size="1.00">2.0</text>
</g>
<!-- 2&#45;&#45;3 -->
<g id="edge4" class="edge">
<title>2&#45;&#45;3</title>
<path fill="none" stroke="black" d="M76.7,-63.5C69.88,-51.56 57.04,-29.05 50.18,-17.04"/>
<text text-anchor="middle" x="62.44" y="-40.47" font-family="Times,serif" font-size="1.00">0.8</text>
</g>
</g>
</svg>
