<?xml version="1.0" encoding="UTF-8" standalone="no"?>
<!DOCTYPE svg PUBLIC "-//W3C//DTD SVG 1.1//EN"
 "http://www.w3.org/Graphics/SVG/1.1/DTD/svg11.dtd">
<!-- Generated by graphviz version 2.50.0 (20211204.2007)
 -->
<!-- Title: G Pages: 1 -->
<svg width="422pt" height="188pt"
 viewBox="0.00 0.00 422.00 188.00" xmlns="http://www.w3.org/2000/svg" xmlns:xlink="http://www.w3.org/1999/xlink">
<g id="graph0" class="graph" transform="scale(1 1) rotate(0) translate(4 184)">
<title>G</title>
<polygon fill="white" stroke="transparent" points="-4,4 -4,-184 418,-184 418,4 -4,4"/>
<!-- 1 -->
<g id="node1" class="node">
<title>1</title>
<ellipse fill="none" stroke="#e41a1c" cx="9" cy="-171" rx="9" ry="9"/>
<text text-anchor="middle" x="9" y="-169.4" font-family="Times,serif" font-size="7.00">4</text>
</g>
<!-- 19 -->
<g id="node19" class="node">
<title>19</title>
<ellipse fill="none" stroke="#e41a1c" cx="9" cy="-117" rx="9" ry="9"/>
<text text-anchor="middle" x="9" y="-115.4" font-family="Times,serif" font-size="7.00">18</text>
</g>
<!-- 1&#45;&gt;19 -->
<g id="edge11" class="edge">
<title>1&#45;&gt;19</title>
<path fill="none" stroke="black" d="M9,-161.88C9,-153.76 9,-141.13 9,-131.5"/>
<polygon fill="black" stroke="black" points="10.75,-131.24 9,-126.24 7.25,-131.24 10.75,-131.24"/>
</g>
<!-- 2 -->
<g id="node2" class="node">
<title>2</title>
<ellipse fill="none" stroke="#377eb8" cx="45" cy="-117" rx="9" ry="9"/>
<text text-anchor="middle" x="45" y="-115.4" font-family="Times,serif" font-size="7.00">1</text>
</g>
<!-- 3 -->
<g id="node3" class="node">
<title>3</title>
<ellipse fill="none" stroke="#4daf4a" cx="189" cy="-63" rx="9" ry="9"/>
<text text-anchor="middle" x="189" y="-61.4" font-family="Times,serif" font-size="7.00">12</text>
</g>
<!-- 4 -->
<g id="node4" class="node">
<title>4</title>
<ellipse fill="none" stroke="#4daf4a" cx="153" cy="-117" rx="9" ry="9"/>
<text text-anchor="middle" x="153" y="-115.4" font-family="Times,serif" font-size="7.00">20</text>
</g>
<!-- 5 -->
<g id="node5" class="node">
<title>5</title>
<ellipse fill="none" stroke="#984ea3" cx="243" cy="-171" rx="9" ry="9"/>
<text text-anchor="middle" x="243" y="-169.4" font-family="Times,serif" font-size="7.00">2</text>
</g>
<!-- 6 -->
<g id="node6" class="node">
<title>6</title>
<ellipse fill="none" stroke="#984ea3" cx="225" cy="-117" rx="9" ry="9"/>
<text text-anchor="middle" x="225" y="-115.4" font-family="Times,serif" font-size="7.00">6</text>
</g>
<!-- 5&#45;&gt;6 -->
<g id="edge1" class="edge">
<title>5&#45;&gt;6</title>
<path fill="none" stroke="black" d="M240.34,-162.33C237.45,-153.96 232.76,-140.42 229.33,-130.51"/>
<polygon fill="black" stroke="black" points="230.96,-129.86 227.67,-125.7 227.65,-131 230.96,-129.86"/>
</g>
<!-- 17 -->
<g id="node17" class="node">
<title>17</title>
<ellipse fill="none" stroke="#984ea3" cx="261" cy="-117" rx="9" ry="9"/>
<text text-anchor="middle" x="261" y="-115.4" font-family="Times,serif" font-size="7.00">19</text>
</g>
<!-- 5&#45;&gt;17 -->
<g id="edge5" class="edge">
<title>5&#45;&gt;17</title>
<path fill="none" stroke="black" d="M245.66,-162.33C248.55,-153.96 253.24,-140.42 256.67,-130.51"/>
<polygon fill="black" stroke="black" points="258.35,-131 258.33,-125.7 255.04,-129.86 258.35,-131"/>
</g>
<!-- 18 -->
<g id="node18" class="node">
<title>18</title>
<ellipse fill="none" stroke="#984ea3" cx="225" cy="-63" rx="9" ry="9"/>
<text text-anchor="middle" x="225" y="-61.4" font-family="Times,serif" font-size="7.00">9</text>
</g>
<!-- 6&#45;&gt;18 -->
<g id="edge10" class="edge">
<title>6&#45;&gt;18</title>
<path fill="none" stroke="black" d="M225,-107.88C225,-99.76 225,-87.13 225,-77.5"/>
<polygon fill="black" stroke="black" points="226.75,-77.24 225,-72.24 223.25,-77.24 226.75,-77.24"/>
</g>
<!-- 7 -->
<g id="node7" class="node">
<title>7</title>
<ellipse fill="none" stroke="#377eb8" cx="81" cy="-117" rx="9" ry="9"/>
<text text-anchor="middle" x="81" y="-115.4" font-family="Times,serif" font-size="7.00">11</text>
</g>
<!-- 8 -->
<g id="node8" class="node">
<title>8</title>
<ellipse fill="none" stroke="#ff7f00" cx="297" cy="-171" rx="9" ry="9"/>
<text text-anchor="middle" x="297" y="-169.4" font-family="Times,serif" font-size="7.00">13</text>
</g>
<!-- 20 -->
<g id="node20" class="node">
<title>20</title>
<ellipse fill="none" stroke="#ff7f00" cx="297" cy="-117" rx="9" ry="9"/>
<text text-anchor="middle" x="297" y="-115.4" font-family="Times,serif" font-size="7.00">3</text>
</g>
<!-- 8&#45;&gt;20 -->
<g id="edge12" class="edge">
<title>8&#45;&gt;20</title>
<path fill="none" stroke="black" d="M297,-156.63C297,-148.83 297,-139.03 297,-131.25"/>
<polygon fill="black" stroke="black" points="295.25,-156.87 297,-161.88 298.75,-156.88 295.25,-156.87"/>
<polygon fill="black" stroke="black" points="298.75,-131.24 297,-126.24 295.25,-131.24 298.75,-131.24"/>
</g>
<!-- 9 -->
<g id="node9" class="node">
<title>9</title>
<ellipse fill="none" stroke="#4daf4a" cx="189" cy="-117" rx="9" ry="9"/>
<text text-anchor="middle" x="189" y="-115.4" font-family="Times,serif" font-size="7.00">5</text>
</g>
<!-- 9&#45;&gt;3 -->
<g id="edge6" class="edge">
<title>9&#45;&gt;3</title>
<path fill="none" stroke="black" d="M189,-107.88C189,-99.76 189,-87.13 189,-77.5"/>
<polygon fill="black" stroke="black" points="190.75,-77.24 189,-72.24 187.25,-77.24 190.75,-77.24"/>
</g>
<!-- 10 -->
<g id="node10" class="node">
<title>10</title>
<ellipse fill="none" stroke="#984ea3" cx="225" cy="-9" rx="9" ry="9"/>
<text text-anchor="middle" x="225" y="-7.4" font-family="Times,serif" font-size="7.00">15</text>
</g>
<!-- 11 -->
<g id="node11" class="node">
<title>11</title>
<ellipse fill="none" stroke="#4daf4a" cx="171" cy="-171" rx="9" ry="9"/>
<text text-anchor="middle" x="171" y="-169.4" font-family="Times,serif" font-size="7.00">16</text>
</g>
<!-- 11&#45;&gt;4 -->
<g id="edge9" class="edge">
<title>11&#45;&gt;4</title>
<path fill="none" stroke="black" d="M168.34,-162.33C165.45,-153.96 160.76,-140.42 157.33,-130.51"/>
<polygon fill="black" stroke="black" points="158.96,-129.86 155.67,-125.7 155.65,-131 158.96,-129.86"/>
</g>
<!-- 11&#45;&gt;9 -->
<g id="edge7" class="edge">
<title>11&#45;&gt;9</title>
<path fill="none" stroke="black" d="M173.66,-162.33C176.55,-153.96 181.24,-140.42 184.67,-130.51"/>
<polygon fill="black" stroke="black" points="186.35,-131 186.33,-125.7 183.04,-129.86 186.35,-131"/>
</g>
<!-- 12 -->
<g id="node12" class="node">
<title>12</title>
<ellipse fill="none" stroke="#ffff33" cx="333" cy="-171" rx="9" ry="9"/>
<text text-anchor="middle" x="333" y="-169.4" font-family="Times,serif" font-size="7.00">14</text>
</g>
<!-- 13 -->
<g id="node13" class="node">
<title>13</title>
<ellipse fill="none" stroke="#377eb8" cx="117" cy="-117" rx="9" ry="9"/>
<text text-anchor="middle" x="117" y="-115.4" font-family="Times,serif" font-size="7.00">7</text>
</g>
<!-- 14 -->
<g id="node14" class="node">
<title>14</title>
<ellipse fill="none" stroke="#a65628" cx="369" cy="-171" rx="9" ry="9"/>
<text text-anchor="middle" x="369" y="-169.4" font-family="Times,serif" font-size="7.00">8</text>
</g>
<!-- 15 -->
<g id="node15" class="node">
<title>15</title>
<ellipse fill="none" stroke="#f781bf" cx="405" cy="-171" rx="9" ry="9"/>
<text text-anchor="middle" x="405" y="-169.4" font-family="Times,serif" font-size="7.00">17</text>
</g>
<!-- 16 -->
<g id="node16" class="node">
<title>16</title>
<ellipse fill="none" stroke="#377eb8" cx="81" cy="-171" rx="9" ry="9"/>
<text text-anchor="middle" x="81" y="-169.4" font-family="Times,serif" font-size="7.00">10</text>
</g>
<!-- 16&#45;&gt;2 -->
<g id="edge8" class="edge">
<title>16&#45;&gt;2</title>
<path fill="none" stroke="black" d="M76.29,-163.2C70.34,-154.61 60.02,-139.69 52.86,-129.35"/>
<polygon fill="black" stroke="black" points="54.11,-128.08 49.82,-124.97 51.23,-130.07 54.11,-128.08"/>
</g>
<!-- 16&#45;&gt;7 -->
<g id="edge13" class="edge">
<title>16&#45;&gt;7</title>
<path fill="none" stroke="black" d="M81,-161.88C81,-153.76 81,-141.13 81,-131.5"/>
<polygon fill="black" stroke="black" points="82.75,-131.24 81,-126.24 79.25,-131.24 82.75,-131.24"/>
</g>
<!-- 16&#45;&gt;13 -->
<g id="edge4" class="edge">
<title>16&#45;&gt;13</title>
<path fill="none" stroke="black" d="M85.71,-163.2C91.66,-154.61 101.98,-139.69 109.14,-129.35"/>
<polygon fill="black" stroke="black" points="110.77,-130.07 112.18,-124.97 107.89,-128.08 110.77,-130.07"/>
</g>
<!-- 18&#45;&gt;10 -->
<g id="edge3" class="edge">
<title>18&#45;&gt;10</title>
<path fill="none" stroke="black" d="M225,-53.88C225,-45.76 225,-33.13 225,-23.5"/>
<polygon fill="black" stroke="black" points="226.75,-23.24 225,-18.24 223.25,-23.24 226.75,-23.24"/>
</g>
</g>
</svg>
