<?xml version="1.0" encoding="UTF-8" standalone="no"?>
<!DOCTYPE svg PUBLIC "-//W3C//DTD SVG 1.1//EN"
 "http://www.w3.org/Graphics/SVG/1.1/DTD/svg11.dtd">
<!-- Generated by graphviz version 2.50.0 (20211204.2007)
 -->
<!-- Title: G Pages: 1 -->
<svg width="110pt" height="216pt"
 viewBox="0.00 0.00 110.15 216.00" xmlns="http://www.w3.org/2000/svg" xmlns:xlink="http://www.w3.org/1999/xlink">
<g id="graph0" class="graph" transform="scale(0.53 0.53) rotate(0) translate(4 403)">
<title>G</title>
<polygon fill="white" stroke="transparent" points="-4,4 -4,-403 203.56,-403 203.56,4 -4,4"/>
<g id="clust1" class="cluster">
<title>cluster_0</title>
<polygon fill="lightgrey" stroke="lightgrey" points="10.56,-64 10.56,-355 84.56,-355 84.56,-64 10.56,-64"/>
<text text-anchor="middle" x="47.56" y="-339.8" font-family="Times,serif" font-size="14.00">process #1</text>
</g>
<g id="clust2" class="cluster">
<title>cluster_1</title>
<polygon fill="none" stroke="blue" points="117.56,-64 117.56,-355 191.56,-355 191.56,-64 117.56,-64"/>
<text text-anchor="middle" x="154.56" y="-339.8" font-family="Times,serif" font-size="14.00">process #2</text>
</g>
<!-- 9 -->
<g id="node1" class="node">
<title>9</title>
<polygon fill="white" stroke="white" points="74.56,-324 20.56,-324 20.56,-288 74.56,-288 74.56,-324"/>
<text text-anchor="middle" x="47.56" y="-302.3" font-family="Times,serif" font-size="14.00">a0</text>
</g>
<!-- 4 -->
<g id="node2" class="node">
<title>4</title>
<polygon fill="white" stroke="white" points="74.56,-252 20.56,-252 20.56,-216 74.56,-216 74.56,-252"/>
<text text-anchor="middle" x="47.56" y="-230.3" font-family="Times,serif" font-size="14.00">a1</text>
</g>
<!-- 9&#45;&gt;4 -->
<g id="edge1" class="edge">
<title>9&#45;&gt;4</title>
<path fill="none" stroke="black" d="M47.56,-287.7C47.56,-279.98 47.56,-270.71 47.56,-262.11"/>
<polygon fill="black" stroke="black" points="51.06,-262.1 47.56,-252.1 44.06,-262.1 51.06,-262.1"/>
</g>
<!-- 3 -->
<g id="node3" class="node">
<title>3</title>
<polygon fill="white" stroke="white" points="73.56,-180 19.56,-180 19.56,-144 73.56,-144 73.56,-180"/>
<text text-anchor="middle" x="46.56" y="-158.3" font-family="Times,serif" font-size="14.00">a2</text>
</g>
<!-- 4&#45;&gt;3 -->
<g id="edge2" class="edge">
<title>4&#45;&gt;3</title>
<path fill="none" stroke="black" d="M47.31,-215.7C47.2,-207.98 47.07,-198.71 46.95,-190.11"/>
<polygon fill="black" stroke="black" points="50.45,-190.05 46.8,-180.1 43.45,-190.15 50.45,-190.05"/>
</g>
<!-- 5 -->
<g id="node8" class="node">
<title>5</title>
<polygon fill="lightgrey" stroke="black" points="179.56,-108 125.56,-108 125.56,-72 179.56,-72 179.56,-108"/>
<text text-anchor="middle" x="152.56" y="-86.3" font-family="Times,serif" font-size="14.00">b3</text>
</g>
<!-- 4&#45;&gt;5 -->
<g id="edge15" class="edge">
<title>4&#45;&gt;5</title>
<path fill="none" stroke="black" d="M60.23,-215.87C78.52,-191.14 112.45,-145.24 133.7,-116.51"/>
<polygon fill="black" stroke="black" points="136.72,-118.31 139.85,-108.19 131.09,-114.15 136.72,-118.31"/>
</g>
<!-- 1 -->
<g id="node4" class="node">
<title>1</title>
<polygon fill="white" stroke="white" points="75.56,-108 21.56,-108 21.56,-72 75.56,-72 75.56,-108"/>
<text text-anchor="middle" x="48.56" y="-86.3" font-family="Times,serif" font-size="14.00">a3</text>
</g>
<!-- 3&#45;&gt;1 -->
<g id="edge3" class="edge">
<title>3&#45;&gt;1</title>
<path fill="none" stroke="black" d="M47.05,-143.7C47.28,-135.98 47.54,-126.71 47.79,-118.11"/>
<polygon fill="black" stroke="black" points="51.28,-118.2 48.07,-108.1 44.29,-118 51.28,-118.2"/>
</g>
<!-- 1&#45;&gt;9 -->
<g id="edge17" class="edge">
<title>1&#45;&gt;9</title>
<path fill="none" stroke="black" d="M32.1,-108.08C23.91,-117.78 14.86,-130.63 10.56,-144 -4.13,-189.7 -2.87,-206.22 11.56,-252 14.64,-261.76 20.15,-271.36 25.96,-279.64"/>
<polygon fill="black" stroke="black" points="23.23,-281.84 32.02,-287.75 28.84,-277.65 23.23,-281.84"/>
</g>
<!-- 7 -->
<g id="node10" class="node">
<title>7</title>
<polygon fill="none" stroke="black" points="119.56,-36 83.56,-36 83.56,0 119.56,0 119.56,-36"/>
<polyline fill="none" stroke="black" points="95.56,-36 83.56,-24 "/>
<polyline fill="none" stroke="black" points="83.56,-12 95.56,0 "/>
<polyline fill="none" stroke="black" points="107.56,0 119.56,-12 "/>
<polyline fill="none" stroke="black" points="119.56,-24 107.56,-36 "/>
<text text-anchor="middle" x="101.56" y="-14.3" font-family="Times,serif" font-size="14.00">end</text>
</g>
<!-- 1&#45;&gt;7 -->
<g id="edge9" class="edge">
<title>1&#45;&gt;7</title>
<path fill="none" stroke="black" d="M61.66,-71.7C67.95,-63.39 75.61,-53.28 82.53,-44.14"/>
<polygon fill="black" stroke="black" points="85.36,-46.19 88.61,-36.1 79.78,-41.96 85.36,-46.19"/>
</g>
<!-- 8 -->
<g id="node5" class="node">
<title>8</title>
<polygon fill="lightgrey" stroke="black" points="179.56,-324 125.56,-324 125.56,-288 179.56,-288 179.56,-324"/>
<text text-anchor="middle" x="152.56" y="-302.3" font-family="Times,serif" font-size="14.00">b0</text>
</g>
<!-- 10 -->
<g id="node6" class="node">
<title>10</title>
<polygon fill="lightgrey" stroke="black" points="181.56,-252 127.56,-252 127.56,-216 181.56,-216 181.56,-252"/>
<text text-anchor="middle" x="154.56" y="-230.3" font-family="Times,serif" font-size="14.00">b1</text>
</g>
<!-- 8&#45;&gt;10 -->
<g id="edge4" class="edge">
<title>8&#45;&gt;10</title>
<path fill="none" stroke="black" d="M153.05,-287.7C153.28,-279.98 153.54,-270.71 153.79,-262.11"/>
<polygon fill="black" stroke="black" points="157.28,-262.2 154.07,-252.1 150.29,-262 157.28,-262.2"/>
</g>
<!-- 6 -->
<g id="node7" class="node">
<title>6</title>
<polygon fill="lightgrey" stroke="black" points="183.56,-180 129.56,-180 129.56,-144 183.56,-144 183.56,-180"/>
<text text-anchor="middle" x="156.56" y="-158.3" font-family="Times,serif" font-size="14.00">b2</text>
</g>
<!-- 10&#45;&gt;6 -->
<g id="edge5" class="edge">
<title>10&#45;&gt;6</title>
<path fill="none" stroke="black" d="M155.05,-215.7C155.28,-207.98 155.54,-198.71 155.79,-190.11"/>
<polygon fill="black" stroke="black" points="159.28,-190.2 156.07,-180.1 152.29,-190 159.28,-190.2"/>
</g>
<!-- 6&#45;&gt;1 -->
<g id="edge14" class="edge">
<title>6&#45;&gt;1</title>
<path fill="none" stroke="black" d="M130.14,-143.88C116.15,-134.81 98.78,-123.55 83.67,-113.76"/>
<polygon fill="black" stroke="black" points="85.38,-110.69 75.08,-108.19 81.57,-116.57 85.38,-110.69"/>
</g>
<!-- 6&#45;&gt;5 -->
<g id="edge6" class="edge">
<title>6&#45;&gt;5</title>
<path fill="none" stroke="black" d="M155.57,-143.7C155.13,-135.98 154.6,-126.71 154.11,-118.11"/>
<polygon fill="black" stroke="black" points="157.6,-117.89 153.54,-108.1 150.61,-118.29 157.6,-117.89"/>
</g>
<!-- 5&#45;&gt;7 -->
<g id="edge19" class="edge">
<title>5&#45;&gt;7</title>
<path fill="none" stroke="black" d="M139.95,-71.7C133.96,-63.47 126.68,-53.48 120.08,-44.42"/>
<polygon fill="black" stroke="black" points="122.74,-42.13 114.02,-36.1 117.08,-46.25 122.74,-42.13"/>
</g>
<!-- 2 -->
<g id="node9" class="node">
<title>2</title>
<polygon fill="none" stroke="black" points="99.56,-399 63.03,-381 99.56,-363 136.09,-381 99.56,-399"/>
<polyline fill="none" stroke="black" points="73.79,-386.3 73.79,-375.7 "/>
<polyline fill="none" stroke="black" points="88.8,-368.3 110.32,-368.3 "/>
<polyline fill="none" stroke="black" points="125.33,-375.7 125.33,-386.3 "/>
<polyline fill="none" stroke="black" points="110.32,-393.7 88.8,-393.7 "/>
<text text-anchor="middle" x="99.56" y="-377.3" font-family="Times,serif" font-size="14.00">start</text>
</g>
<!-- 2&#45;&gt;9 -->
<g id="edge18" class="edge">
<title>2&#45;&gt;9</title>
<path fill="none" stroke="black" d="M90.5,-367.28C83.67,-357.69 74.06,-344.2 65.67,-332.42"/>
<polygon fill="black" stroke="black" points="68.48,-330.33 59.83,-324.22 62.78,-334.39 68.48,-330.33"/>
</g>
<!-- 2&#45;&gt;8 -->
<g id="edge8" class="edge">
<title>2&#45;&gt;8</title>
<path fill="none" stroke="black" d="M108.79,-367.28C115.76,-357.69 125.55,-344.2 134.11,-332.42"/>
<polygon fill="black" stroke="black" points="137.02,-334.37 140.06,-324.22 131.35,-330.25 137.02,-334.37"/>
</g>
</g>
</svg>
