<?xml version="1.0" encoding="UTF-8" standalone="no"?>
<!DOCTYPE svg PUBLIC "-//W3C//DTD SVG 1.1//EN"
 "http://www.w3.org/Graphics/SVG/1.1/DTD/svg11.dtd">
<!-- Generated by graphviz version 2.50.0 (20211204.2007)
 -->
<!-- Title: G Pages: 1 -->
<svg width="360pt" height="142pt"
 viewBox="0.00 0.00 360.00 142.00" xmlns="http://www.w3.org/2000/svg" xmlns:xlink="http://www.w3.org/1999/xlink">
<g id="graph0" class="graph" transform="scale(0.67 0.67) rotate(0) translate(4 207)">
<title>G</title>
<polygon fill="white" stroke="transparent" points="-4,4 -4,-207 530.93,-207 530.93,4 -4,4"/>
<g id="clust1" class="cluster">
<title>cluster_0</title>
<polygon fill="Turquoise" stroke="Turquoise" points="101.53,-100 101.53,-195 462.93,-195 462.93,-100 101.53,-100"/>
<text text-anchor="middle" x="282.23" y="-179.8" font-family="Times,serif" font-size="14.00">process #NEW 1</text>
</g>
<g id="clust2" class="cluster">
<title>cluster_1</title>
<polygon fill="none" stroke="blue" points="112.23,-8 112.23,-83 462.93,-83 462.93,-8 112.23,-8"/>
<text text-anchor="middle" x="287.58" y="-67.8" font-family="Times,serif" font-size="14.00">process #2</text>
</g>
<!-- 9 -->
<g id="node1" class="node">
<title>9</title>
<polygon fill="yellow" stroke="yellow" points="147.23,-154 109.33,-119.5 185.12,-119.5 147.23,-154"/>
<text text-anchor="middle" x="147.23" y="-127.3" font-family="Times,serif" font-size="14.00">a0</text>
</g>
<!-- 4 -->
<g id="node2" class="node">
<title>4</title>
<polygon fill="white" stroke="white" points="274.93,-144 220.93,-144 220.93,-108 274.93,-108 274.93,-144"/>
<text text-anchor="middle" x="247.93" y="-122.3" font-family="Times,serif" font-size="14.00">a1</text>
</g>
<!-- 9&#45;&gt;4 -->
<g id="edge1" class="edge">
<title>9&#45;&gt;4</title>
<path fill="none" stroke="blue" d="M174.16,-129.69C185.29,-129.12 198.49,-128.45 210.58,-127.84"/>
<polygon fill="blue" stroke="blue" points="211.01,-131.32 220.83,-127.32 210.66,-124.33 211.01,-131.32"/>
</g>
<!-- 3 -->
<g id="node3" class="node">
<title>3</title>
<polygon fill="white" stroke="white" points="364.93,-144 310.93,-144 310.93,-108 364.93,-108 364.93,-144"/>
<text text-anchor="middle" x="337.93" y="-122.3" font-family="Times,serif" font-size="14.00">a2</text>
</g>
<!-- 4&#45;&gt;3 -->
<g id="edge2" class="edge">
<title>4&#45;&gt;3</title>
<path fill="none" stroke="blue" d="M275.33,-126C283.32,-126 292.24,-126 300.75,-126"/>
<polygon fill="blue" stroke="blue" points="300.84,-129.5 310.84,-126 300.84,-122.5 300.84,-129.5"/>
</g>
<!-- 5 -->
<g id="node8" class="node">
<title>5</title>
<polygon fill="lightgrey" stroke="black" points="454.93,-52 400.93,-52 400.93,-16 454.93,-16 454.93,-52"/>
<text text-anchor="middle" x="427.93" y="-30.3" font-family="Times,serif" font-size="14.00">b3</text>
</g>
<!-- 4&#45;&gt;5 -->
<g id="edge15" class="edge">
<title>4&#45;&gt;5</title>
<path fill="none" stroke="blue" d="M275.19,-112.43C306.04,-96.48 357.35,-69.96 391.65,-52.23"/>
<polygon fill="blue" stroke="blue" points="393.57,-55.18 400.84,-47.48 390.35,-48.96 393.57,-55.18"/>
</g>
<!-- 1 -->
<g id="node4" class="node">
<title>1</title>
<polygon fill="white" stroke="white" points="454.93,-144 400.93,-144 400.93,-108 454.93,-108 454.93,-144"/>
<text text-anchor="middle" x="427.93" y="-122.3" font-family="Times,serif" font-size="14.00">a3</text>
</g>
<!-- 3&#45;&gt;1 -->
<g id="edge3" class="edge">
<title>3&#45;&gt;1</title>
<path fill="none" stroke="blue" d="M365.33,-126C373.32,-126 382.24,-126 390.75,-126"/>
<polygon fill="blue" stroke="blue" points="390.84,-129.5 400.84,-126 390.84,-122.5 390.84,-129.5"/>
</g>
<!-- 1&#45;&gt;9 -->
<g id="edge17" class="edge">
<title>1&#45;&gt;9</title>
<path fill="none" stroke="blue" d="M400.86,-140.19C390.07,-145.3 377.22,-150.44 364.93,-153 302.27,-166.05 284.24,-162.37 220.93,-153 205.33,-150.69 188.45,-145.74 174.89,-141.12"/>
<polygon fill="blue" stroke="blue" points="175.83,-137.74 165.24,-137.7 173.49,-144.34 175.83,-137.74"/>
</g>
<!-- 7 -->
<g id="node10" class="node">
<title>7</title>
<polygon fill="none" stroke="black" points="526.93,-98 490.93,-98 490.93,-62 526.93,-62 526.93,-98"/>
<polyline fill="none" stroke="black" points="502.93,-98 490.93,-86 "/>
<polyline fill="none" stroke="black" points="490.93,-74 502.93,-62 "/>
<polyline fill="none" stroke="black" points="514.93,-62 526.93,-74 "/>
<polyline fill="none" stroke="black" points="526.93,-86 514.93,-98 "/>
<text text-anchor="middle" x="508.93" y="-76.3" font-family="Times,serif" font-size="14.00">end</text>
</g>
<!-- 1&#45;&gt;7 -->
<g id="edge9" class="edge">
<title>1&#45;&gt;7</title>
<path fill="none" stroke="blue" d="M455.23,-110.68C463.8,-105.69 473.31,-100.16 481.86,-95.18"/>
<polygon fill="blue" stroke="blue" points="483.8,-98.1 490.68,-90.04 480.27,-92.05 483.8,-98.1"/>
</g>
<!-- 8 -->
<g id="node5" class="node">
<title>8</title>
<polygon fill="lightgrey" stroke="black" points="174.23,-52 120.23,-52 120.23,-16 174.23,-16 174.23,-52"/>
<text text-anchor="middle" x="147.23" y="-30.3" font-family="Times,serif" font-size="14.00">b0</text>
</g>
<!-- 10 -->
<g id="node6" class="node">
<title>10</title>
<polygon fill="lightgrey" stroke="black" points="274.93,-52 220.93,-52 220.93,-16 274.93,-16 274.93,-52"/>
<text text-anchor="middle" x="247.93" y="-30.3" font-family="Times,serif" font-size="14.00">b1</text>
</g>
<!-- 8&#45;&gt;10 -->
<g id="edge4" class="edge">
<title>8&#45;&gt;10</title>
<path fill="none" stroke="blue" d="M174.42,-34C185.46,-34 198.5,-34 210.46,-34"/>
<polygon fill="blue" stroke="blue" points="210.61,-37.5 220.61,-34 210.61,-30.5 210.61,-37.5"/>
</g>
<!-- 6 -->
<g id="node7" class="node">
<title>6</title>
<polygon fill="lightgrey" stroke="black" points="364.93,-52 310.93,-52 310.93,-16 364.93,-16 364.93,-52"/>
<text text-anchor="middle" x="337.93" y="-30.3" font-family="Times,serif" font-size="14.00">b2</text>
</g>
<!-- 10&#45;&gt;6 -->
<g id="edge5" class="edge">
<title>10&#45;&gt;6</title>
<path fill="none" stroke="blue" d="M275.33,-34C283.32,-34 292.24,-34 300.75,-34"/>
<polygon fill="blue" stroke="blue" points="300.84,-37.5 310.84,-34 300.84,-30.5 300.84,-37.5"/>
</g>
<!-- 6&#45;&gt;1 -->
<g id="edge14" class="edge">
<title>6&#45;&gt;1</title>
<path fill="none" stroke="blue" d="M356.31,-52.18C369.45,-65.91 387.66,-84.95 402.29,-100.25"/>
<polygon fill="blue" stroke="blue" points="400.13,-103.05 409.58,-107.86 405.19,-98.22 400.13,-103.05"/>
</g>
<!-- 6&#45;&gt;5 -->
<g id="edge6" class="edge">
<title>6&#45;&gt;5</title>
<path fill="none" stroke="blue" d="M365.33,-34C373.32,-34 382.24,-34 390.75,-34"/>
<polygon fill="blue" stroke="blue" points="390.84,-37.5 400.84,-34 390.84,-30.5 390.84,-37.5"/>
</g>
<!-- 5&#45;&gt;7 -->
<g id="edge19" class="edge">
<title>5&#45;&gt;7</title>
<path fill="none" stroke="blue" d="M455.23,-49.32C463.8,-54.31 473.31,-59.84 481.86,-64.82"/>
<polygon fill="blue" stroke="blue" points="480.27,-67.95 490.68,-69.96 483.8,-61.9 480.27,-67.95"/>
</g>
<!-- 2 -->
<g id="node9" class="node">
<title>2</title>
<polygon fill="none" stroke="black" points="36.77,-100 0.23,-82 36.77,-64 73.3,-82 36.77,-100"/>
<polyline fill="none" stroke="black" points="11,-87.3 11,-76.7 "/>
<polyline fill="none" stroke="black" points="26,-69.3 47.53,-69.3 "/>
<polyline fill="none" stroke="black" points="62.54,-76.7 62.54,-87.3 "/>
<polyline fill="none" stroke="black" points="47.53,-94.7 26,-94.7 "/>
<text text-anchor="middle" x="36.77" y="-78.3" font-family="Times,serif" font-size="14.00">start</text>
</g>
<!-- 2&#45;&gt;9 -->
<g id="edge18" class="edge">
<title>2&#45;&gt;9</title>
<path fill="none" stroke="red" d="M56.66,-90.54C71.75,-97.35 93.31,-107.09 111.5,-115.31"/>
<polygon fill="red" stroke="red" points="110.09,-118.51 120.65,-119.44 112.97,-112.14 110.09,-118.51"/>
<text text-anchor="middle" x="83.77" y="-98.64" font-family="Times,serif" font-size="8.00">2.0</text>
</g>
<!-- 2&#45;&gt;8 -->
<g id="edge8" class="edge">
<title>2&#45;&gt;8</title>
<path fill="none" stroke="blue" d="M56.66,-73.64C71.41,-67.11 92.33,-57.85 110.25,-49.92"/>
<polygon fill="blue" stroke="blue" points="112.11,-52.93 119.83,-45.68 109.27,-46.53 112.11,-52.93"/>
</g>
</g>
</svg>
