<?xml version="1.0" encoding="UTF-8" standalone="no"?>
<!DOCTYPE svg PUBLIC "-//W3C//DTD SVG 1.1//EN"
 "http://www.w3.org/Graphics/SVG/1.1/DTD/svg11.dtd">
<!-- Generated by graphviz version 2.50.0 (20211204.2007)
 -->
<!-- Title: G Pages: 1 -->
<svg width="504pt" height="197pt"
 viewBox="0.00 0.00 504.00 196.72" xmlns="http://www.w3.org/2000/svg" xmlns:xlink="http://www.w3.org/1999/xlink">
<g id="graph0" class="graph" transform="scale(0.81 0.81) rotate(0) translate(4 238)">
<title>G</title>
<polygon fill="white" stroke="transparent" points="-4,4 -4,-238 616,-238 616,4 -4,4"/>
<!-- 1 -->
<g id="node1" class="node">
<title>1</title>
<ellipse fill="none" stroke="Turquoise" cx="171" cy="-117" rx="9" ry="9"/>
<text text-anchor="middle" x="171" y="-115.4" font-family="Times,serif" font-size="7.00">1</text>
</g>
<!-- 23 -->
<g id="node23" class="node">
<title>23</title>
<ellipse fill="none" stroke="Turquoise" cx="225" cy="-117" rx="9" ry="9"/>
<text text-anchor="middle" x="225" y="-115.4" font-family="Times,serif" font-size="7.00">23</text>
</g>
<!-- 1&#45;&gt;23 -->
<g id="edge1" class="edge">
<title>1&#45;&gt;23</title>
<path fill="none" stroke="black" d="M180.12,-117C188.24,-117 200.87,-117 210.5,-117"/>
<polygon fill="black" stroke="black" points="210.76,-118.75 215.76,-117 210.76,-115.25 210.76,-118.75"/>
<text text-anchor="middle" x="196.78" y="-116.2" font-family="Times,serif" font-size="1.00">1.0</text>
</g>
<!-- 2 -->
<g id="node2" class="node">
<title>2</title>
<ellipse fill="none" stroke="Turquoise" cx="549" cy="-135" rx="9" ry="9"/>
<text text-anchor="middle" x="549" y="-133.4" font-family="Times,serif" font-size="7.00">2</text>
</g>
<!-- 3 -->
<g id="node3" class="node">
<title>3</title>
<ellipse fill="red" stroke="Turquoise" cx="603" cy="-99" rx="9" ry="9"/>
<text text-anchor="middle" x="603" y="-97.4" font-family="Times,serif" font-size="7.00">3</text>
</g>
<!-- 2&#45;&gt;3 -->
<g id="edge2" class="edge">
<title>2&#45;&gt;3</title>
<path fill="none" stroke="black" d="M556.8,-130.29C565.39,-124.34 580.31,-114.02 590.65,-106.86"/>
<polygon fill="black" stroke="black" points="591.92,-108.11 595.03,-103.82 589.93,-105.23 591.92,-108.11"/>
<text text-anchor="middle" x="574.94" y="-116.24" font-family="Times,serif" font-size="1.00">1.0</text>
</g>
<!-- 4 -->
<g id="node4" class="node">
<title>4</title>
<ellipse fill="none" stroke="Turquoise" cx="387" cy="-135" rx="9" ry="9"/>
<text text-anchor="middle" x="387" y="-133.4" font-family="Times,serif" font-size="7.00">4</text>
</g>
<!-- 31 -->
<g id="node31" class="node">
<title>31</title>
<ellipse fill="red" stroke="Turquoise" cx="441" cy="-99" rx="9" ry="9"/>
<text text-anchor="middle" x="441" y="-97.4" font-family="Times,serif" font-size="7.00">31</text>
</g>
<!-- 4&#45;&gt;31 -->
<g id="edge3" class="edge">
<title>4&#45;&gt;31</title>
<path fill="none" stroke="black" d="M394.8,-130.29C403.39,-124.34 418.31,-114.02 428.65,-106.86"/>
<polygon fill="black" stroke="black" points="429.92,-108.11 433.03,-103.82 427.93,-105.23 429.92,-108.11"/>
<text text-anchor="middle" x="412.94" y="-116.24" font-family="Times,serif" font-size="1.00">1.0</text>
</g>
<!-- 5 -->
<g id="node5" class="node">
<title>5</title>
<ellipse fill="none" stroke="Turquoise" cx="63" cy="-45" rx="9" ry="9"/>
<text text-anchor="middle" x="63" y="-43.4" font-family="Times,serif" font-size="7.00">5</text>
</g>
<!-- 10 -->
<g id="node10" class="node">
<title>10</title>
<ellipse fill="none" stroke="Turquoise" cx="117" cy="-117" rx="9" ry="9"/>
<text text-anchor="middle" x="117" y="-115.4" font-family="Times,serif" font-size="7.00">10</text>
</g>
<!-- 5&#45;&gt;10 -->
<g id="edge4" class="edge">
<title>5&#45;&gt;10</title>
<path fill="none" stroke="black" d="M68.99,-51.9C77.92,-64.28 96.76,-90.36 107.68,-105.48"/>
<polygon fill="black" stroke="black" points="106.45,-106.77 110.8,-109.8 109.29,-104.72 106.45,-106.77"/>
<text text-anchor="middle" x="88.96" y="-80.14" font-family="Times,serif" font-size="1.00">1.0</text>
</g>
<!-- 6 -->
<g id="node6" class="node">
<title>6</title>
<ellipse fill="none" stroke="Turquoise" cx="279" cy="-99" rx="9" ry="9"/>
<text text-anchor="middle" x="279" y="-97.4" font-family="Times,serif" font-size="7.00">6</text>
</g>
<!-- 16 -->
<g id="node16" class="node">
<title>16</title>
<ellipse fill="red" stroke="Turquoise" cx="333" cy="-99" rx="9" ry="9"/>
<text text-anchor="middle" x="333" y="-97.4" font-family="Times,serif" font-size="7.00">16</text>
</g>
<!-- 6&#45;&gt;16 -->
<g id="edge5" class="edge">
<title>6&#45;&gt;16</title>
<path fill="none" stroke="black" d="M288.12,-99C296.24,-99 308.87,-99 318.5,-99"/>
<polygon fill="black" stroke="black" points="318.76,-100.75 323.76,-99 318.76,-97.25 318.76,-100.75"/>
<text text-anchor="middle" x="304.78" y="-98.2" font-family="Times,serif" font-size="1.00">1.0</text>
</g>
<!-- 21 -->
<g id="node21" class="node">
<title>21</title>
<ellipse fill="none" stroke="Turquoise" cx="333" cy="-135" rx="9" ry="9"/>
<text text-anchor="middle" x="333" y="-133.4" font-family="Times,serif" font-size="7.00">21</text>
</g>
<!-- 6&#45;&gt;21 -->
<g id="edge6" class="edge">
<title>6&#45;&gt;21</title>
<path fill="none" stroke="black" d="M286.8,-103.71C295.39,-109.66 310.31,-119.98 320.65,-127.14"/>
<polygon fill="black" stroke="black" points="319.93,-128.77 325.03,-130.18 321.92,-125.89 319.93,-128.77"/>
<text text-anchor="middle" x="304.94" y="-116.16" font-family="Times,serif" font-size="1.00">1.0</text>
</g>
<!-- 7 -->
<g id="node7" class="node">
<title>7</title>
<ellipse fill="none" stroke="Turquoise" cx="63" cy="-9" rx="9" ry="9"/>
<text text-anchor="middle" x="63" y="-7.4" font-family="Times,serif" font-size="7.00">7</text>
</g>
<!-- 7&#45;&gt;10 -->
<g id="edge7" class="edge">
<title>7&#45;&gt;10</title>
<path fill="none" stroke="black" d="M67.74,-16.77C76.66,-35.29 99.24,-82.2 110.05,-104.65"/>
<polygon fill="black" stroke="black" points="108.55,-105.56 112.29,-109.3 111.7,-104.04 108.55,-105.56"/>
<text text-anchor="middle" x="89.09" y="-62.39" font-family="Times,serif" font-size="1.00">1.0</text>
</g>
<!-- 8 -->
<g id="node8" class="node">
<title>8</title>
<ellipse fill="none" stroke="Turquoise" cx="549" cy="-63" rx="9" ry="9"/>
<text text-anchor="middle" x="549" y="-61.4" font-family="Times,serif" font-size="7.00">8</text>
</g>
<!-- 8&#45;&gt;3 -->
<g id="edge8" class="edge">
<title>8&#45;&gt;3</title>
<path fill="none" stroke="black" d="M556.8,-67.71C565.39,-73.66 580.31,-83.98 590.65,-91.14"/>
<polygon fill="black" stroke="black" points="589.93,-92.77 595.03,-94.18 591.92,-89.89 589.93,-92.77"/>
<text text-anchor="middle" x="574.94" y="-80.16" font-family="Times,serif" font-size="1.00">1.0</text>
</g>
<!-- 9 -->
<g id="node9" class="node">
<title>9</title>
<ellipse fill="none" stroke="Turquoise" cx="495" cy="-27" rx="9" ry="9"/>
<text text-anchor="middle" x="495" y="-25.4" font-family="Times,serif" font-size="7.00">9</text>
</g>
<!-- 9&#45;&gt;8 -->
<g id="edge9" class="edge">
<title>9&#45;&gt;8</title>
<path fill="none" stroke="black" d="M502.8,-31.71C511.39,-37.66 526.31,-47.98 536.65,-55.14"/>
<polygon fill="black" stroke="black" points="535.93,-56.77 541.03,-58.18 537.92,-53.89 535.93,-56.77"/>
<text text-anchor="middle" x="520.94" y="-44.16" font-family="Times,serif" font-size="1.00">1.0</text>
</g>
<!-- 34 -->
<g id="node34" class="node">
<title>34</title>
<ellipse fill="red" stroke="Turquoise" cx="549" cy="-99" rx="9" ry="9"/>
<text text-anchor="middle" x="549" y="-97.4" font-family="Times,serif" font-size="7.00">34</text>
</g>
<!-- 9&#45;&gt;34 -->
<g id="edge10" class="edge">
<title>9&#45;&gt;34</title>
<path fill="none" stroke="black" d="M500.99,-33.9C509.92,-46.28 528.76,-72.36 539.68,-87.48"/>
<polygon fill="black" stroke="black" points="538.45,-88.77 542.8,-91.8 541.29,-86.72 538.45,-88.77"/>
<text text-anchor="middle" x="520.96" y="-62.14" font-family="Times,serif" font-size="1.00">1.0</text>
</g>
<!-- 10&#45;&gt;1 -->
<g id="edge11" class="edge">
<title>10&#45;&gt;1</title>
<path fill="none" stroke="black" d="M126.12,-117C134.24,-117 146.87,-117 156.5,-117"/>
<polygon fill="black" stroke="black" points="156.76,-118.75 161.76,-117 156.76,-115.25 156.76,-118.75"/>
<text text-anchor="middle" x="142.78" y="-116.2" font-family="Times,serif" font-size="1.00">1.0</text>
</g>
<!-- 11 -->
<g id="node11" class="node">
<title>11</title>
<ellipse fill="red" stroke="Turquoise" cx="171" cy="-171" rx="9" ry="9"/>
<text text-anchor="middle" x="171" y="-169.4" font-family="Times,serif" font-size="7.00">11</text>
</g>
<!-- 10&#45;&gt;11 -->
<g id="edge12" class="edge">
<title>10&#45;&gt;11</title>
<path fill="none" stroke="black" d="M123.97,-123.19C132.9,-132.47 149.84,-150.06 160.49,-161.13"/>
<polygon fill="black" stroke="black" points="159.38,-162.49 164.1,-164.88 161.9,-160.06 159.38,-162.49"/>
<text text-anchor="middle" x="142.78" y="-142.97" font-family="Times,serif" font-size="1.00">1.0</text>
</g>
<!-- 12 -->
<g id="node12" class="node">
<title>12</title>
<ellipse fill="red" stroke="Turquoise" cx="225" cy="-171" rx="9" ry="9"/>
<text text-anchor="middle" x="225" y="-169.4" font-family="Times,serif" font-size="7.00">12</text>
</g>
<!-- 11&#45;&gt;12 -->
<g id="edge13" class="edge">
<title>11&#45;&gt;12</title>
<path fill="none" stroke="red" d="M180.12,-171C188.24,-171 200.87,-171 210.5,-171"/>
<polygon fill="red" stroke="red" points="210.76,-172.75 215.76,-171 210.76,-169.25 210.76,-172.75"/>
<text text-anchor="middle" x="196.78" y="-170.2" font-family="Times,serif" font-size="1.00">1.0</text>
</g>
<!-- 28 -->
<g id="node28" class="node">
<title>28</title>
<ellipse fill="red" stroke="Turquoise" cx="279" cy="-171" rx="9" ry="9"/>
<text text-anchor="middle" x="279" y="-169.4" font-family="Times,serif" font-size="7.00">28</text>
</g>
<!-- 12&#45;&gt;28 -->
<g id="edge14" class="edge">
<title>12&#45;&gt;28</title>
<path fill="none" stroke="red" d="M234.12,-171C242.24,-171 254.87,-171 264.5,-171"/>
<polygon fill="red" stroke="red" points="264.76,-172.75 269.76,-171 264.76,-169.25 264.76,-172.75"/>
<text text-anchor="middle" x="250.78" y="-170.2" font-family="Times,serif" font-size="1.00">1.0</text>
</g>
<!-- 13 -->
<g id="node13" class="node">
<title>13</title>
<ellipse fill="none" stroke="Turquoise" cx="387" cy="-63" rx="9" ry="9"/>
<text text-anchor="middle" x="387" y="-61.4" font-family="Times,serif" font-size="7.00">13</text>
</g>
<!-- 29 -->
<g id="node29" class="node">
<title>29</title>
<ellipse fill="none" stroke="Turquoise" cx="441" cy="-63" rx="9" ry="9"/>
<text text-anchor="middle" x="441" y="-61.4" font-family="Times,serif" font-size="7.00">29</text>
</g>
<!-- 13&#45;&gt;29 -->
<g id="edge15" class="edge">
<title>13&#45;&gt;29</title>
<path fill="none" stroke="black" d="M396.12,-63C404.24,-63 416.87,-63 426.5,-63"/>
<polygon fill="black" stroke="black" points="426.76,-64.75 431.76,-63 426.76,-61.25 426.76,-64.75"/>
<text text-anchor="middle" x="412.78" y="-62.2" font-family="Times,serif" font-size="1.00">1.0</text>
</g>
<!-- 13&#45;&gt;31 -->
<g id="edge16" class="edge">
<title>13&#45;&gt;31</title>
<path fill="none" stroke="black" d="M394.8,-67.71C403.39,-73.66 418.31,-83.98 428.65,-91.14"/>
<polygon fill="black" stroke="black" points="427.93,-92.77 433.03,-94.18 429.92,-89.89 427.93,-92.77"/>
<text text-anchor="middle" x="412.94" y="-80.16" font-family="Times,serif" font-size="1.00">1.0</text>
</g>
<!-- 14 -->
<g id="node14" class="node">
<title>14</title>
<ellipse fill="none" stroke="Turquoise" cx="387" cy="-171" rx="9" ry="9"/>
<text text-anchor="middle" x="387" y="-169.4" font-family="Times,serif" font-size="7.00">14</text>
</g>
<!-- 14&#45;&gt;31 -->
<g id="edge17" class="edge">
<title>14&#45;&gt;31</title>
<path fill="none" stroke="black" d="M392.99,-164.1C401.92,-151.72 420.76,-125.64 431.68,-110.52"/>
<polygon fill="black" stroke="black" points="433.29,-111.28 434.8,-106.2 430.45,-109.23 433.29,-111.28"/>
<text text-anchor="middle" x="412.96" y="-134.26" font-family="Times,serif" font-size="1.00">1.0</text>
</g>
<!-- 15 -->
<g id="node15" class="node">
<title>15</title>
<ellipse fill="none" stroke="Turquoise" cx="495" cy="-99" rx="9" ry="9"/>
<text text-anchor="middle" x="495" y="-97.4" font-family="Times,serif" font-size="7.00">15</text>
</g>
<!-- 15&#45;&gt;8 -->
<g id="edge18" class="edge">
<title>15&#45;&gt;8</title>
<path fill="none" stroke="black" d="M502.8,-94.29C511.39,-88.34 526.31,-78.02 536.65,-70.86"/>
<polygon fill="black" stroke="black" points="537.92,-72.11 541.03,-67.82 535.93,-69.23 537.92,-72.11"/>
<text text-anchor="middle" x="520.94" y="-80.24" font-family="Times,serif" font-size="1.00">1.0</text>
</g>
<!-- 15&#45;&gt;34 -->
<g id="edge19" class="edge">
<title>15&#45;&gt;34</title>
<path fill="none" stroke="black" d="M504.12,-99C512.24,-99 524.87,-99 534.5,-99"/>
<polygon fill="black" stroke="black" points="534.76,-100.75 539.76,-99 534.76,-97.25 534.76,-100.75"/>
<text text-anchor="middle" x="520.78" y="-98.2" font-family="Times,serif" font-size="1.00">1.0</text>
</g>
<!-- 16&#45;&gt;4 -->
<g id="edge20" class="edge">
<title>16&#45;&gt;4</title>
<path fill="none" stroke="black" d="M340.8,-103.71C349.39,-109.66 364.31,-119.98 374.65,-127.14"/>
<polygon fill="black" stroke="black" points="373.93,-128.77 379.03,-130.18 375.92,-125.89 373.93,-128.77"/>
<text text-anchor="middle" x="358.94" y="-116.16" font-family="Times,serif" font-size="1.00">1.0</text>
</g>
<!-- 16&#45;&gt;13 -->
<g id="edge21" class="edge">
<title>16&#45;&gt;13</title>
<path fill="none" stroke="black" d="M340.8,-94.29C349.39,-88.34 364.31,-78.02 374.65,-70.86"/>
<polygon fill="black" stroke="black" points="375.92,-72.11 379.03,-67.82 373.93,-69.23 375.92,-72.11"/>
<text text-anchor="middle" x="358.94" y="-80.24" font-family="Times,serif" font-size="1.00">1.0</text>
</g>
<!-- 22 -->
<g id="node22" class="node">
<title>22</title>
<ellipse fill="red" stroke="Turquoise" cx="387" cy="-99" rx="9" ry="9"/>
<text text-anchor="middle" x="387" y="-97.4" font-family="Times,serif" font-size="7.00">22</text>
</g>
<!-- 16&#45;&gt;22 -->
<g id="edge22" class="edge">
<title>16&#45;&gt;22</title>
<path fill="none" stroke="red" d="M342.12,-99C350.24,-99 362.87,-99 372.5,-99"/>
<polygon fill="red" stroke="red" points="372.76,-100.75 377.76,-99 372.76,-97.25 372.76,-100.75"/>
<text text-anchor="middle" x="358.78" y="-98.2" font-family="Times,serif" font-size="1.00">1.0</text>
</g>
<!-- 17 -->
<g id="node17" class="node">
<title>17</title>
<ellipse fill="none" stroke="Turquoise" cx="63" cy="-225" rx="9" ry="9"/>
<text text-anchor="middle" x="63" y="-223.4" font-family="Times,serif" font-size="7.00">17</text>
</g>
<!-- 27 -->
<g id="node27" class="node">
<title>27</title>
<ellipse fill="red" stroke="Turquoise" cx="117" cy="-171" rx="9" ry="9"/>
<text text-anchor="middle" x="117" y="-169.4" font-family="Times,serif" font-size="7.00">27</text>
</g>
<!-- 17&#45;&gt;27 -->
<g id="edge23" class="edge">
<title>17&#45;&gt;27</title>
<path fill="none" stroke="black" d="M69.97,-218.81C78.9,-209.53 95.84,-191.94 106.49,-180.87"/>
<polygon fill="black" stroke="black" points="107.9,-181.94 110.1,-177.12 105.38,-179.51 107.9,-181.94"/>
<text text-anchor="middle" x="88.78" y="-197.43" font-family="Times,serif" font-size="1.00">1.0</text>
</g>
<!-- 18 -->
<g id="node18" class="node">
<title>18</title>
<ellipse fill="none" stroke="Turquoise" cx="63" cy="-189" rx="9" ry="9"/>
<text text-anchor="middle" x="63" y="-187.4" font-family="Times,serif" font-size="7.00">18</text>
</g>
<!-- 18&#45;&gt;10 -->
<g id="edge24" class="edge">
<title>18&#45;&gt;10</title>
<path fill="none" stroke="black" d="M68.99,-182.1C77.92,-169.72 96.76,-143.64 107.68,-128.52"/>
<polygon fill="black" stroke="black" points="109.29,-129.28 110.8,-124.2 106.45,-127.23 109.29,-129.28"/>
<text text-anchor="middle" x="88.96" y="-152.26" font-family="Times,serif" font-size="1.00">1.0</text>
</g>
<!-- 18&#45;&gt;27 -->
<g id="edge25" class="edge">
<title>18&#45;&gt;27</title>
<path fill="none" stroke="black" d="M71.67,-186.34C80.04,-183.45 93.58,-178.76 103.49,-175.33"/>
<polygon fill="black" stroke="black" points="104.14,-176.96 108.3,-173.67 103,-173.65 104.14,-176.96"/>
<text text-anchor="middle" x="88.67" y="-179.31" font-family="Times,serif" font-size="1.00">1.0</text>
</g>
<!-- 19 -->
<g id="node19" class="node">
<title>19</title>
<ellipse fill="none" stroke="Turquoise" cx="63" cy="-117" rx="9" ry="9"/>
<text text-anchor="middle" x="63" y="-115.4" font-family="Times,serif" font-size="7.00">19</text>
</g>
<!-- 19&#45;&gt;10 -->
<g id="edge26" class="edge">
<title>19&#45;&gt;10</title>
<path fill="none" stroke="black" d="M72.12,-117C80.24,-117 92.87,-117 102.5,-117"/>
<polygon fill="black" stroke="black" points="102.76,-118.75 107.76,-117 102.76,-115.25 102.76,-118.75"/>
<text text-anchor="middle" x="88.78" y="-116.2" font-family="Times,serif" font-size="1.00">1.0</text>
</g>
<!-- 20 -->
<g id="node20" class="node">
<title>20</title>
<ellipse fill="red" stroke="Turquoise" cx="63" cy="-153" rx="9" ry="9"/>
<text text-anchor="middle" x="63" y="-151.4" font-family="Times,serif" font-size="7.00">20</text>
</g>
<!-- 20&#45;&gt;10 -->
<g id="edge27" class="edge">
<title>20&#45;&gt;10</title>
<path fill="none" stroke="black" d="M70.8,-148.29C79.39,-142.34 94.31,-132.02 104.65,-124.86"/>
<polygon fill="black" stroke="black" points="105.92,-126.11 109.03,-121.82 103.93,-123.23 105.92,-126.11"/>
<text text-anchor="middle" x="88.94" y="-134.24" font-family="Times,serif" font-size="1.00">1.0</text>
</g>
<!-- 20&#45;&gt;27 -->
<g id="edge28" class="edge">
<title>20&#45;&gt;27</title>
<path fill="none" stroke="red" d="M71.67,-155.66C80.04,-158.55 93.58,-163.24 103.49,-166.67"/>
<polygon fill="red" stroke="red" points="103,-168.35 108.3,-168.33 104.14,-165.04 103,-168.35"/>
<text text-anchor="middle" x="88.67" y="-161.09" font-family="Times,serif" font-size="1.00">1.0</text>
</g>
<!-- 21&#45;&gt;4 -->
<g id="edge29" class="edge">
<title>21&#45;&gt;4</title>
<path fill="none" stroke="black" d="M342.12,-135C350.24,-135 362.87,-135 372.5,-135"/>
<polygon fill="black" stroke="black" points="372.76,-136.75 377.76,-135 372.76,-133.25 372.76,-136.75"/>
<text text-anchor="middle" x="358.78" y="-134.2" font-family="Times,serif" font-size="1.00">1.0</text>
</g>
<!-- 21&#45;&gt;14 -->
<g id="edge30" class="edge">
<title>21&#45;&gt;14</title>
<path fill="none" stroke="black" d="M340.8,-139.71C349.39,-145.66 364.31,-155.98 374.65,-163.14"/>
<polygon fill="black" stroke="black" points="373.93,-164.77 379.03,-166.18 375.92,-161.89 373.93,-164.77"/>
<text text-anchor="middle" x="358.94" y="-152.16" font-family="Times,serif" font-size="1.00">1.0</text>
</g>
<!-- 22&#45;&gt;31 -->
<g id="edge31" class="edge">
<title>22&#45;&gt;31</title>
<path fill="none" stroke="red" d="M396.12,-99C404.24,-99 416.87,-99 426.5,-99"/>
<polygon fill="red" stroke="red" points="426.76,-100.75 431.76,-99 426.76,-97.25 426.76,-100.75"/>
<text text-anchor="middle" x="412.78" y="-98.2" font-family="Times,serif" font-size="1.00">1.0</text>
</g>
<!-- 23&#45;&gt;6 -->
<g id="edge32" class="edge">
<title>23&#45;&gt;6</title>
<path fill="none" stroke="black" d="M233.67,-114.34C242.04,-111.45 255.58,-106.76 265.49,-103.33"/>
<polygon fill="black" stroke="black" points="266.14,-104.96 270.3,-101.67 265,-101.65 266.14,-104.96"/>
<text text-anchor="middle" x="250.67" y="-107.31" font-family="Times,serif" font-size="1.00">1.0</text>
</g>
<!-- 23&#45;&gt;28 -->
<g id="edge33" class="edge">
<title>23&#45;&gt;28</title>
<path fill="none" stroke="black" d="M231.97,-123.19C240.9,-132.47 257.84,-150.06 268.49,-161.13"/>
<polygon fill="black" stroke="black" points="267.38,-162.49 272.1,-164.88 269.9,-160.06 267.38,-162.49"/>
<text text-anchor="middle" x="250.78" y="-142.97" font-family="Times,serif" font-size="1.00">1.0</text>
</g>
<!-- 30 -->
<g id="node30" class="node">
<title>30</title>
<ellipse fill="none" stroke="Turquoise" cx="279" cy="-63" rx="9" ry="9"/>
<text text-anchor="middle" x="279" y="-61.4" font-family="Times,serif" font-size="7.00">30</text>
</g>
<!-- 23&#45;&gt;30 -->
<g id="edge34" class="edge">
<title>23&#45;&gt;30</title>
<path fill="none" stroke="black" d="M231.97,-110.81C240.9,-101.53 257.84,-83.94 268.49,-72.87"/>
<polygon fill="black" stroke="black" points="269.9,-73.94 272.1,-69.12 267.38,-71.51 269.9,-73.94"/>
<text text-anchor="middle" x="250.78" y="-89.43" font-family="Times,serif" font-size="1.00">1.0</text>
</g>
<!-- 32 -->
<g id="node32" class="node">
<title>32</title>
<ellipse fill="none" stroke="Turquoise" cx="279" cy="-135" rx="9" ry="9"/>
<text text-anchor="middle" x="279" y="-133.4" font-family="Times,serif" font-size="7.00">32</text>
</g>
<!-- 23&#45;&gt;32 -->
<g id="edge35" class="edge">
<title>23&#45;&gt;32</title>
<path fill="none" stroke="black" d="M233.67,-119.66C242.04,-122.55 255.58,-127.24 265.49,-130.67"/>
<polygon fill="black" stroke="black" points="265,-132.35 270.3,-132.33 266.14,-129.04 265,-132.35"/>
<text text-anchor="middle" x="250.67" y="-125.09" font-family="Times,serif" font-size="1.00">1.0</text>
</g>
<!-- 24 -->
<g id="node24" class="node">
<title>24</title>
<ellipse fill="none" stroke="Turquoise" cx="495" cy="-135" rx="9" ry="9"/>
<text text-anchor="middle" x="495" y="-133.4" font-family="Times,serif" font-size="7.00">24</text>
</g>
<!-- 24&#45;&gt;2 -->
<g id="edge36" class="edge">
<title>24&#45;&gt;2</title>
<path fill="none" stroke="black" d="M504.12,-135C512.24,-135 524.87,-135 534.5,-135"/>
<polygon fill="black" stroke="black" points="534.76,-136.75 539.76,-135 534.76,-133.25 534.76,-136.75"/>
<text text-anchor="middle" x="520.78" y="-134.2" font-family="Times,serif" font-size="1.00">1.0</text>
</g>
<!-- 24&#45;&gt;34 -->
<g id="edge37" class="edge">
<title>24&#45;&gt;34</title>
<path fill="none" stroke="black" d="M502.8,-130.29C511.39,-124.34 526.31,-114.02 536.65,-106.86"/>
<polygon fill="black" stroke="black" points="537.92,-108.11 541.03,-103.82 535.93,-105.23 537.92,-108.11"/>
<text text-anchor="middle" x="520.94" y="-116.24" font-family="Times,serif" font-size="1.00">1.0</text>
</g>
<!-- 25 -->
<g id="node25" class="node">
<title>25</title>
<ellipse fill="red" stroke="Turquoise" cx="9" cy="-117" rx="9" ry="9"/>
<text text-anchor="middle" x="9" y="-115.4" font-family="Times,serif" font-size="7.00">25</text>
</g>
<!-- 25&#45;&gt;5 -->
<g id="edge38" class="edge">
<title>25&#45;&gt;5</title>
<path fill="none" stroke="black" d="M14.99,-110.1C23.92,-97.72 42.76,-71.64 53.68,-56.52"/>
<polygon fill="black" stroke="black" points="55.29,-57.28 56.8,-52.2 52.45,-55.23 55.29,-57.28"/>
<text text-anchor="middle" x="34.96" y="-80.26" font-family="Times,serif" font-size="1.00">1.0</text>
</g>
<!-- 25&#45;&gt;7 -->
<g id="edge39" class="edge">
<title>25&#45;&gt;7</title>
<path fill="none" stroke="black" d="M13.74,-109.23C22.66,-90.71 45.24,-43.8 56.05,-21.35"/>
<polygon fill="black" stroke="black" points="57.7,-21.96 58.29,-16.7 54.55,-20.44 57.7,-21.96"/>
<text text-anchor="middle" x="35.09" y="-62.01" font-family="Times,serif" font-size="1.00">1.0</text>
</g>
<!-- 25&#45;&gt;17 -->
<g id="edge40" class="edge">
<title>25&#45;&gt;17</title>
<path fill="none" stroke="black" d="M13.74,-124.77C22.66,-143.29 45.24,-190.2 56.05,-212.65"/>
<polygon fill="black" stroke="black" points="54.55,-213.56 58.29,-217.3 57.7,-212.04 54.55,-213.56"/>
<text text-anchor="middle" x="35.09" y="-170.39" font-family="Times,serif" font-size="1.00">1.0</text>
</g>
<!-- 25&#45;&gt;18 -->
<g id="edge41" class="edge">
<title>25&#45;&gt;18</title>
<path fill="none" stroke="black" d="M14.99,-123.9C23.92,-136.28 42.76,-162.36 53.68,-177.48"/>
<polygon fill="black" stroke="black" points="52.45,-178.77 56.8,-181.8 55.29,-176.72 52.45,-178.77"/>
<text text-anchor="middle" x="34.96" y="-152.14" font-family="Times,serif" font-size="1.00">1.0</text>
</g>
<!-- 25&#45;&gt;19 -->
<g id="edge42" class="edge">
<title>25&#45;&gt;19</title>
<path fill="none" stroke="black" d="M18.12,-117C26.24,-117 38.87,-117 48.5,-117"/>
<polygon fill="black" stroke="black" points="48.76,-118.75 53.76,-117 48.76,-115.25 48.76,-118.75"/>
<text text-anchor="middle" x="34.78" y="-116.2" font-family="Times,serif" font-size="1.00">1.0</text>
</g>
<!-- 25&#45;&gt;20 -->
<g id="edge43" class="edge">
<title>25&#45;&gt;20</title>
<path fill="none" stroke="red" d="M16.8,-121.71C25.39,-127.66 40.31,-137.98 50.65,-145.14"/>
<polygon fill="red" stroke="red" points="49.93,-146.77 55.03,-148.18 51.92,-143.89 49.93,-146.77"/>
<text text-anchor="middle" x="34.94" y="-134.16" font-family="Times,serif" font-size="1.00">1.0</text>
</g>
<!-- 33 -->
<g id="node33" class="node">
<title>33</title>
<ellipse fill="none" stroke="Turquoise" cx="63" cy="-81" rx="9" ry="9"/>
<text text-anchor="middle" x="63" y="-79.4" font-family="Times,serif" font-size="7.00">33</text>
</g>
<!-- 25&#45;&gt;33 -->
<g id="edge44" class="edge">
<title>25&#45;&gt;33</title>
<path fill="none" stroke="black" d="M16.8,-112.29C25.39,-106.34 40.31,-96.02 50.65,-88.86"/>
<polygon fill="black" stroke="black" points="51.92,-90.11 55.03,-85.82 49.93,-87.23 51.92,-90.11"/>
<text text-anchor="middle" x="34.94" y="-98.24" font-family="Times,serif" font-size="1.00">1.0</text>
</g>
<!-- 26 -->
<g id="node26" class="node">
<title>26</title>
<ellipse fill="red" stroke="Turquoise" cx="495" cy="-63" rx="9" ry="9"/>
<text text-anchor="middle" x="495" y="-61.4" font-family="Times,serif" font-size="7.00">26</text>
</g>
<!-- 26&#45;&gt;8 -->
<g id="edge45" class="edge">
<title>26&#45;&gt;8</title>
<path fill="none" stroke="black" d="M504.12,-63C512.24,-63 524.87,-63 534.5,-63"/>
<polygon fill="black" stroke="black" points="534.76,-64.75 539.76,-63 534.76,-61.25 534.76,-64.75"/>
<text text-anchor="middle" x="520.78" y="-63.2" font-family="Times,serif" font-size="1.00">1.0</text>
</g>
<!-- 26&#45;&gt;34 -->
<g id="edge46" class="edge">
<title>26&#45;&gt;34</title>
<path fill="none" stroke="red" d="M502.8,-67.71C511.39,-73.66 526.31,-83.98 536.65,-91.14"/>
<polygon fill="red" stroke="red" points="535.93,-92.77 541.03,-94.18 537.92,-89.89 535.93,-92.77"/>
<text text-anchor="middle" x="520.94" y="-80.16" font-family="Times,serif" font-size="1.00">1.0</text>
</g>
<!-- 27&#45;&gt;11 -->
<g id="edge47" class="edge">
<title>27&#45;&gt;11</title>
<path fill="none" stroke="red" d="M126.12,-171C134.24,-171 146.87,-171 156.5,-171"/>
<polygon fill="red" stroke="red" points="156.76,-172.75 161.76,-171 156.76,-169.25 156.76,-172.75"/>
<text text-anchor="middle" x="142.78" y="-170.2" font-family="Times,serif" font-size="1.00">1.0</text>
</g>
<!-- 28&#45;&gt;16 -->
<g id="edge48" class="edge">
<title>28&#45;&gt;16</title>
<path fill="none" stroke="red" d="M284.99,-164.1C293.92,-151.72 312.76,-125.64 323.68,-110.52"/>
<polygon fill="red" stroke="red" points="325.29,-111.28 326.8,-106.2 322.45,-109.23 325.29,-111.28"/>
<text text-anchor="middle" x="306.96" y="-134.26" font-family="Times,serif" font-size="1.00">1.0</text>
</g>
<!-- 28&#45;&gt;21 -->
<g id="edge49" class="edge">
<title>28&#45;&gt;21</title>
<path fill="none" stroke="black" d="M286.8,-166.29C295.39,-160.34 310.31,-150.02 320.65,-142.86"/>
<polygon fill="black" stroke="black" points="321.92,-144.11 325.03,-139.82 319.93,-141.23 321.92,-144.11"/>
<text text-anchor="middle" x="304.94" y="-152.24" font-family="Times,serif" font-size="1.00">1.0</text>
</g>
<!-- 29&#45;&gt;9 -->
<g id="edge50" class="edge">
<title>29&#45;&gt;9</title>
<path fill="none" stroke="black" d="M448.8,-58.29C457.39,-52.34 472.31,-42.02 482.65,-34.86"/>
<polygon fill="black" stroke="black" points="483.92,-36.11 487.03,-31.82 481.93,-33.23 483.92,-36.11"/>
<text text-anchor="middle" x="466.94" y="-44.24" font-family="Times,serif" font-size="1.00">1.0</text>
</g>
<!-- 29&#45;&gt;15 -->
<g id="edge51" class="edge">
<title>29&#45;&gt;15</title>
<path fill="none" stroke="black" d="M448.8,-67.71C457.39,-73.66 472.31,-83.98 482.65,-91.14"/>
<polygon fill="black" stroke="black" points="481.93,-92.77 487.03,-94.18 483.92,-89.89 481.93,-92.77"/>
<text text-anchor="middle" x="466.94" y="-80.16" font-family="Times,serif" font-size="1.00">1.0</text>
</g>
<!-- 29&#45;&gt;24 -->
<g id="edge52" class="edge">
<title>29&#45;&gt;24</title>
<path fill="none" stroke="black" d="M446.99,-69.9C455.92,-82.28 474.76,-108.36 485.68,-123.48"/>
<polygon fill="black" stroke="black" points="484.45,-124.77 488.8,-127.8 487.29,-122.72 484.45,-124.77"/>
<text text-anchor="middle" x="466.96" y="-98.14" font-family="Times,serif" font-size="1.00">1.0</text>
</g>
<!-- 29&#45;&gt;26 -->
<g id="edge53" class="edge">
<title>29&#45;&gt;26</title>
<path fill="none" stroke="black" d="M450.12,-63C458.24,-63 470.87,-63 480.5,-63"/>
<polygon fill="black" stroke="black" points="480.76,-64.75 485.76,-63 480.76,-61.25 480.76,-64.75"/>
<text text-anchor="middle" x="466.78" y="-62.2" font-family="Times,serif" font-size="1.00">1.0</text>
</g>
<!-- 30&#45;&gt;16 -->
<g id="edge54" class="edge">
<title>30&#45;&gt;16</title>
<path fill="none" stroke="black" d="M286.8,-67.71C295.39,-73.66 310.31,-83.98 320.65,-91.14"/>
<polygon fill="black" stroke="black" points="319.93,-92.77 325.03,-94.18 321.92,-89.89 319.93,-92.77"/>
<text text-anchor="middle" x="304.94" y="-80.16" font-family="Times,serif" font-size="1.00">1.0</text>
</g>
<!-- 31&#45;&gt;15 -->
<g id="edge55" class="edge">
<title>31&#45;&gt;15</title>
<path fill="none" stroke="black" d="M450.12,-99C458.24,-99 470.87,-99 480.5,-99"/>
<polygon fill="black" stroke="black" points="480.76,-100.75 485.76,-99 480.76,-97.25 480.76,-100.75"/>
<text text-anchor="middle" x="466.78" y="-98.2" font-family="Times,serif" font-size="1.00">1.0</text>
</g>
<!-- 31&#45;&gt;24 -->
<g id="edge56" class="edge">
<title>31&#45;&gt;24</title>
<path fill="none" stroke="black" d="M448.8,-103.71C457.39,-109.66 472.31,-119.98 482.65,-127.14"/>
<polygon fill="black" stroke="black" points="481.93,-128.77 487.03,-130.18 483.92,-125.89 481.93,-128.77"/>
<text text-anchor="middle" x="466.94" y="-116.16" font-family="Times,serif" font-size="1.00">1.0</text>
</g>
<!-- 31&#45;&gt;26 -->
<g id="edge57" class="edge">
<title>31&#45;&gt;26</title>
<path fill="none" stroke="red" d="M448.8,-94.29C457.39,-88.34 472.31,-78.02 482.65,-70.86"/>
<polygon fill="red" stroke="red" points="483.92,-72.11 487.03,-67.82 481.93,-69.23 483.92,-72.11"/>
<text text-anchor="middle" x="466.94" y="-80.24" font-family="Times,serif" font-size="1.00">1.0</text>
</g>
<!-- 32&#45;&gt;16 -->
<g id="edge58" class="edge">
<title>32&#45;&gt;16</title>
<path fill="none" stroke="black" d="M286.8,-130.29C295.39,-124.34 310.31,-114.02 320.65,-106.86"/>
<polygon fill="black" stroke="black" points="321.92,-108.11 325.03,-103.82 319.93,-105.23 321.92,-108.11"/>
<text text-anchor="middle" x="304.94" y="-116.24" font-family="Times,serif" font-size="1.00">1.0</text>
</g>
<!-- 32&#45;&gt;21 -->
<g id="edge59" class="edge">
<title>32&#45;&gt;21</title>
<path fill="none" stroke="black" d="M288.12,-135C296.24,-135 308.87,-135 318.5,-135"/>
<polygon fill="black" stroke="black" points="318.76,-136.75 323.76,-135 318.76,-133.25 318.76,-136.75"/>
<text text-anchor="middle" x="304.78" y="-134.2" font-family="Times,serif" font-size="1.00">1.0</text>
</g>
<!-- 33&#45;&gt;10 -->
<g id="edge60" class="edge">
<title>33&#45;&gt;10</title>
<path fill="none" stroke="black" d="M70.8,-85.71C79.39,-91.66 94.31,-101.98 104.65,-109.14"/>
<polygon fill="black" stroke="black" points="103.93,-110.77 109.03,-112.18 105.92,-107.89 103.93,-110.77"/>
<text text-anchor="middle" x="88.94" y="-98.16" font-family="Times,serif" font-size="1.00">1.0</text>
</g>
<!-- 34&#45;&gt;3 -->
<g id="edge61" class="edge">
<title>34&#45;&gt;3</title>
<path fill="none" stroke="black" d="M558.12,-99C566.24,-99 578.87,-99 588.5,-99"/>
<polygon fill="black" stroke="black" points="588.76,-100.75 593.76,-99 588.76,-97.25 588.76,-100.75"/>
<text text-anchor="middle" x="574.78" y="-98.2" font-family="Times,serif" font-size="1.00">1.0</text>
</g>
</g>
</svg>
