<?xml version="1.0" encoding="UTF-8" standalone="no"?>
<!DOCTYPE svg PUBLIC "-//W3C//DTD SVG 1.1//EN"
 "http://www.w3.org/Graphics/SVG/1.1/DTD/svg11.dtd">
<!-- Generated by graphviz version 2.50.0 (20211204.2007)
 -->
<!-- Pages: 1 -->
<svg width="360pt" height="134pt"
 viewBox="0.00 0.00 360.00 133.81" xmlns="http://www.w3.org/2000/svg" xmlns:xlink="http://www.w3.org/1999/xlink">
<g id="graph0" class="graph" transform="scale(0.62 0.62) rotate(-90) translate(-210.4 572.8)">
<polygon fill="white" stroke="transparent" points="-4,4 -4,-572.8 210.4,-572.8 210.4,4 -4,4"/>
<!-- 1 -->
<g id="node1" class="node">
<title>1</title>
<ellipse fill="Turquoise" stroke="Turquoise" cx="87.2" cy="-561.6" rx="7.2" ry="7.2"/>
</g>
<!-- 2 -->
<g id="node2" class="node">
<title>2</title>
<ellipse fill="Turquoise" stroke="Turquoise" cx="55.2" cy="-511.2" rx="7.2" ry="7.2"/>
</g>
<!-- 1&#45;&gt;2 -->
<g id="edge1" class="edge">
<title>1&#45;&gt;2</title>
<path fill="none" stroke="black" d="M83.53,-555.05C78.22,-547.02 68.33,-532.06 61.76,-522.12"/>
<polygon fill="black" stroke="black" points="63.05,-520.89 58.83,-517.69 60.13,-522.82 63.05,-520.89"/>
</g>
<!-- 3 -->
<g id="node3" class="node">
<title>3</title>
<ellipse fill="Turquoise" stroke="Turquoise" cx="87.2" cy="-511.2" rx="7.2" ry="7.2"/>
</g>
<!-- 1&#45;&gt;3 -->
<g id="edge2" class="edge">
<title>1&#45;&gt;3</title>
<path fill="none" stroke="black" d="M87.2,-554.27C87.2,-546.56 87.2,-533.38 87.2,-523.82"/>
<polygon fill="black" stroke="black" points="88.95,-523.68 87.2,-518.68 85.45,-523.68 88.95,-523.68"/>
</g>
<!-- 4 -->
<g id="node4" class="node">
<title>4</title>
<ellipse fill="Turquoise" stroke="Turquoise" cx="119.2" cy="-511.2" rx="7.2" ry="7.2"/>
</g>
<!-- 1&#45;&gt;4 -->
<g id="edge3" class="edge">
<title>1&#45;&gt;4</title>
<path fill="none" stroke="black" d="M90.87,-555.05C96.18,-547.02 106.07,-532.06 112.64,-522.12"/>
<polygon fill="black" stroke="black" points="114.27,-522.82 115.57,-517.69 111.35,-520.89 114.27,-522.82"/>
</g>
<!-- 5 -->
<g id="node5" class="node">
<title>5</title>
<ellipse fill="Turquoise" stroke="Turquoise" cx="87.2" cy="-460.8" rx="7.2" ry="7.2"/>
</g>
<!-- 2&#45;&gt;5 -->
<g id="edge4" class="edge">
<title>2&#45;&gt;5</title>
<path fill="none" stroke="black" d="M58.87,-504.65C64.18,-496.62 74.07,-481.66 80.64,-471.72"/>
<polygon fill="black" stroke="black" points="82.27,-472.42 83.57,-467.29 79.35,-470.49 82.27,-472.42"/>
</g>
<!-- 6 -->
<g id="node6" class="node">
<title>6</title>
<ellipse fill="Turquoise" stroke="Turquoise" cx="23.2" cy="-460.8" rx="7.2" ry="7.2"/>
</g>
<!-- 2&#45;&gt;6 -->
<g id="edge5" class="edge">
<title>2&#45;&gt;6</title>
<path fill="none" stroke="black" d="M51.53,-504.65C46.22,-496.62 36.33,-481.66 29.76,-471.72"/>
<polygon fill="black" stroke="black" points="31.05,-470.49 26.83,-467.29 28.13,-472.42 31.05,-470.49"/>
</g>
<!-- 8 -->
<g id="node8" class="node">
<title>8</title>
<ellipse fill="Turquoise" stroke="Turquoise" cx="55.2" cy="-460.8" rx="7.2" ry="7.2"/>
</g>
<!-- 2&#45;&gt;8 -->
<g id="edge6" class="edge">
<title>2&#45;&gt;8</title>
<path fill="none" stroke="black" d="M55.2,-503.87C55.2,-496.16 55.2,-482.98 55.2,-473.42"/>
<polygon fill="black" stroke="black" points="56.95,-473.28 55.2,-468.28 53.45,-473.28 56.95,-473.28"/>
</g>
<!-- 3&#45;&gt;5 -->
<g id="edge7" class="edge">
<title>3&#45;&gt;5</title>
<path fill="none" stroke="black" d="M87.2,-503.87C87.2,-496.16 87.2,-482.98 87.2,-473.42"/>
<polygon fill="black" stroke="black" points="88.95,-473.28 87.2,-468.28 85.45,-473.28 88.95,-473.28"/>
</g>
<!-- 3&#45;&gt;6 -->
<g id="edge8" class="edge">
<title>3&#45;&gt;6</title>
<path fill="none" stroke="black" d="M81.74,-506.07C70.88,-497.86 46.42,-479.36 32.81,-469.07"/>
<polygon fill="black" stroke="black" points="33.69,-467.54 28.64,-465.92 31.58,-470.33 33.69,-467.54"/>
</g>
<!-- 7 -->
<g id="node7" class="node">
<title>7</title>
<ellipse fill="Turquoise" stroke="Turquoise" cx="119.2" cy="-460.8" rx="7.2" ry="7.2"/>
</g>
<!-- 3&#45;&gt;7 -->
<g id="edge9" class="edge">
<title>3&#45;&gt;7</title>
<path fill="none" stroke="black" d="M90.87,-504.65C96.18,-496.62 106.07,-481.66 112.64,-471.72"/>
<polygon fill="black" stroke="black" points="114.27,-472.42 115.57,-467.29 111.35,-470.49 114.27,-472.42"/>
</g>
<!-- 3&#45;&gt;8 -->
<g id="edge10" class="edge">
<title>3&#45;&gt;8</title>
<path fill="none" stroke="black" d="M83.53,-504.65C78.22,-496.62 68.33,-481.66 61.76,-471.72"/>
<polygon fill="black" stroke="black" points="63.05,-470.49 58.83,-467.29 60.13,-472.42 63.05,-470.49"/>
</g>
<!-- 4&#45;&gt;7 -->
<g id="edge11" class="edge">
<title>4&#45;&gt;7</title>
<path fill="none" stroke="black" d="M119.2,-503.87C119.2,-496.16 119.2,-482.98 119.2,-473.42"/>
<polygon fill="black" stroke="black" points="120.95,-473.28 119.2,-468.28 117.45,-473.28 120.95,-473.28"/>
</g>
<!-- 9 -->
<g id="node9" class="node">
<title>9</title>
<ellipse fill="Turquoise" stroke="Turquoise" cx="87.2" cy="-410.4" rx="7.2" ry="7.2"/>
</g>
<!-- 5&#45;&gt;9 -->
<g id="edge12" class="edge">
<title>5&#45;&gt;9</title>
<path fill="none" stroke="black" d="M87.2,-453.47C87.2,-445.76 87.2,-432.58 87.2,-423.02"/>
<polygon fill="black" stroke="black" points="88.95,-422.88 87.2,-417.88 85.45,-422.88 88.95,-422.88"/>
</g>
<!-- 10 -->
<g id="node10" class="node">
<title>10</title>
<ellipse fill="Turquoise" stroke="Turquoise" cx="55.2" cy="-410.4" rx="7.2" ry="7.2"/>
</g>
<!-- 5&#45;&gt;10 -->
<g id="edge13" class="edge">
<title>5&#45;&gt;10</title>
<path fill="none" stroke="black" d="M83.53,-454.25C78.22,-446.22 68.33,-431.26 61.76,-421.32"/>
<polygon fill="black" stroke="black" points="63.05,-420.09 58.83,-416.89 60.13,-422.02 63.05,-420.09"/>
</g>
<!-- 6&#45;&gt;10 -->
<g id="edge14" class="edge">
<title>6&#45;&gt;10</title>
<path fill="none" stroke="black" d="M26.87,-454.25C32.18,-446.22 42.07,-431.26 48.64,-421.32"/>
<polygon fill="black" stroke="black" points="50.27,-422.02 51.57,-416.89 47.35,-420.09 50.27,-422.02"/>
</g>
<!-- 7&#45;&gt;9 -->
<g id="edge15" class="edge">
<title>7&#45;&gt;9</title>
<path fill="none" stroke="black" d="M115.53,-454.25C110.22,-446.22 100.33,-431.26 93.76,-421.32"/>
<polygon fill="black" stroke="black" points="95.05,-420.09 90.83,-416.89 92.13,-422.02 95.05,-420.09"/>
</g>
<!-- 7&#45;&gt;10 -->
<g id="edge16" class="edge">
<title>7&#45;&gt;10</title>
<path fill="none" stroke="black" d="M113.74,-455.67C102.88,-447.46 78.42,-428.96 64.81,-418.67"/>
<polygon fill="black" stroke="black" points="65.69,-417.14 60.64,-415.52 63.58,-419.93 65.69,-417.14"/>
</g>
<!-- 8&#45;&gt;9 -->
<g id="edge17" class="edge">
<title>8&#45;&gt;9</title>
<path fill="none" stroke="black" d="M58.87,-454.25C64.18,-446.22 74.07,-431.26 80.64,-421.32"/>
<polygon fill="black" stroke="black" points="82.27,-422.02 83.57,-416.89 79.35,-420.09 82.27,-422.02"/>
</g>
<!-- 8&#45;&gt;10 -->
<g id="edge18" class="edge">
<title>8&#45;&gt;10</title>
<path fill="none" stroke="black" d="M55.2,-453.47C55.2,-445.76 55.2,-432.58 55.2,-423.02"/>
<polygon fill="black" stroke="black" points="56.95,-422.88 55.2,-417.88 53.45,-422.88 56.95,-422.88"/>
</g>
<!-- 11 -->
<g id="node11" class="node">
<title>11</title>
<ellipse fill="Turquoise" stroke="Turquoise" cx="55.2" cy="-360" rx="7.2" ry="7.2"/>
</g>
<!-- 9&#45;&gt;11 -->
<g id="edge19" class="edge">
<title>9&#45;&gt;11</title>
<path fill="none" stroke="black" d="M83.53,-403.85C78.22,-395.82 68.33,-380.86 61.76,-370.92"/>
<polygon fill="black" stroke="black" points="63.05,-369.69 58.83,-366.49 60.13,-371.62 63.05,-369.69"/>
</g>
<!-- 12 -->
<g id="node12" class="node">
<title>12</title>
<ellipse fill="Turquoise" stroke="Turquoise" cx="119.2" cy="-360" rx="7.2" ry="7.2"/>
</g>
<!-- 9&#45;&gt;12 -->
<g id="edge20" class="edge">
<title>9&#45;&gt;12</title>
<path fill="none" stroke="black" d="M90.87,-403.85C96.18,-395.82 106.07,-380.86 112.64,-370.92"/>
<polygon fill="black" stroke="black" points="114.27,-371.62 115.57,-366.49 111.35,-369.69 114.27,-371.62"/>
</g>
<!-- 13 -->
<g id="node13" class="node">
<title>13</title>
<ellipse fill="Turquoise" stroke="Turquoise" cx="151.2" cy="-360" rx="7.2" ry="7.2"/>
</g>
<!-- 9&#45;&gt;13 -->
<g id="edge21" class="edge">
<title>9&#45;&gt;13</title>
<path fill="none" stroke="black" d="M92.66,-405.27C103.52,-397.06 127.98,-378.56 141.59,-368.27"/>
<polygon fill="black" stroke="black" points="142.82,-369.53 145.76,-365.12 140.71,-366.74 142.82,-369.53"/>
</g>
<!-- 14 -->
<g id="node14" class="node">
<title>14</title>
<ellipse fill="Turquoise" stroke="Turquoise" cx="87.2" cy="-360" rx="7.2" ry="7.2"/>
</g>
<!-- 9&#45;&gt;14 -->
<g id="edge22" class="edge">
<title>9&#45;&gt;14</title>
<path fill="none" stroke="black" d="M87.2,-403.07C87.2,-395.36 87.2,-382.18 87.2,-372.62"/>
<polygon fill="black" stroke="black" points="88.95,-372.48 87.2,-367.48 85.45,-372.48 88.95,-372.48"/>
</g>
<!-- 10&#45;&gt;11 -->
<g id="edge23" class="edge">
<title>10&#45;&gt;11</title>
<path fill="none" stroke="black" d="M55.2,-403.07C55.2,-395.36 55.2,-382.18 55.2,-372.62"/>
<polygon fill="black" stroke="black" points="56.95,-372.48 55.2,-367.48 53.45,-372.48 56.95,-372.48"/>
</g>
<!-- 15 -->
<g id="node15" class="node">
<title>15</title>
<ellipse fill="Turquoise" stroke="Turquoise" cx="87.2" cy="-309.6" rx="7.2" ry="7.2"/>
</g>
<!-- 11&#45;&gt;15 -->
<g id="edge24" class="edge">
<title>11&#45;&gt;15</title>
<path fill="none" stroke="black" d="M58.87,-353.45C64.18,-345.42 74.07,-330.46 80.64,-320.52"/>
<polygon fill="black" stroke="black" points="82.27,-321.22 83.57,-316.09 79.35,-319.29 82.27,-321.22"/>
</g>
<!-- 12&#45;&gt;15 -->
<g id="edge25" class="edge">
<title>12&#45;&gt;15</title>
<path fill="none" stroke="black" d="M115.53,-353.45C110.22,-345.42 100.33,-330.46 93.76,-320.52"/>
<polygon fill="black" stroke="black" points="95.05,-319.29 90.83,-316.09 92.13,-321.22 95.05,-319.29"/>
</g>
<!-- 16 -->
<g id="node16" class="node">
<title>16</title>
<ellipse fill="Turquoise" stroke="Turquoise" cx="119.2" cy="-309.6" rx="7.2" ry="7.2"/>
</g>
<!-- 12&#45;&gt;16 -->
<g id="edge26" class="edge">
<title>12&#45;&gt;16</title>
<path fill="none" stroke="black" d="M119.2,-352.67C119.2,-344.96 119.2,-331.78 119.2,-322.22"/>
<polygon fill="black" stroke="black" points="120.95,-322.08 119.2,-317.08 117.45,-322.08 120.95,-322.08"/>
</g>
<!-- 13&#45;&gt;16 -->
<g id="edge27" class="edge">
<title>13&#45;&gt;16</title>
<path fill="none" stroke="black" d="M147.53,-353.45C142.22,-345.42 132.33,-330.46 125.76,-320.52"/>
<polygon fill="black" stroke="black" points="127.05,-319.29 122.83,-316.09 124.13,-321.22 127.05,-319.29"/>
</g>
<!-- 14&#45;&gt;15 -->
<g id="edge28" class="edge">
<title>14&#45;&gt;15</title>
<path fill="none" stroke="black" d="M87.2,-352.67C87.2,-344.96 87.2,-331.78 87.2,-322.22"/>
<polygon fill="black" stroke="black" points="88.95,-322.08 87.2,-317.08 85.45,-322.08 88.95,-322.08"/>
</g>
<!-- 17 -->
<g id="node17" class="node">
<title>17</title>
<ellipse fill="Turquoise" stroke="Turquoise" cx="151.2" cy="-259.2" rx="7.2" ry="7.2"/>
</g>
<!-- 15&#45;&gt;17 -->
<g id="edge29" class="edge">
<title>15&#45;&gt;17</title>
<path fill="none" stroke="black" d="M92.66,-304.47C103.52,-296.26 127.98,-277.76 141.59,-267.47"/>
<polygon fill="black" stroke="black" points="142.82,-268.73 145.76,-264.32 140.71,-265.94 142.82,-268.73"/>
</g>
<!-- 18 -->
<g id="node18" class="node">
<title>18</title>
<ellipse fill="Turquoise" stroke="Turquoise" cx="119.2" cy="-259.2" rx="7.2" ry="7.2"/>
</g>
<!-- 15&#45;&gt;18 -->
<g id="edge30" class="edge">
<title>15&#45;&gt;18</title>
<path fill="none" stroke="black" d="M90.87,-303.05C96.18,-295.02 106.07,-280.06 112.64,-270.12"/>
<polygon fill="black" stroke="black" points="114.27,-270.82 115.57,-265.69 111.35,-268.89 114.27,-270.82"/>
</g>
<!-- 19 -->
<g id="node19" class="node">
<title>19</title>
<ellipse fill="Turquoise" stroke="Turquoise" cx="55.2" cy="-259.2" rx="7.2" ry="7.2"/>
</g>
<!-- 15&#45;&gt;19 -->
<g id="edge31" class="edge">
<title>15&#45;&gt;19</title>
<path fill="none" stroke="black" d="M83.53,-303.05C78.22,-295.02 68.33,-280.06 61.76,-270.12"/>
<polygon fill="black" stroke="black" points="63.05,-268.89 58.83,-265.69 60.13,-270.82 63.05,-268.89"/>
</g>
<!-- 20 -->
<g id="node20" class="node">
<title>20</title>
<ellipse fill="Turquoise" stroke="Turquoise" cx="87.2" cy="-259.2" rx="7.2" ry="7.2"/>
</g>
<!-- 15&#45;&gt;20 -->
<g id="edge32" class="edge">
<title>15&#45;&gt;20</title>
<path fill="none" stroke="black" d="M87.2,-302.27C87.2,-294.56 87.2,-281.38 87.2,-271.82"/>
<polygon fill="black" stroke="black" points="88.95,-271.68 87.2,-266.68 85.45,-271.68 88.95,-271.68"/>
</g>
<!-- 16&#45;&gt;17 -->
<g id="edge33" class="edge">
<title>16&#45;&gt;17</title>
<path fill="none" stroke="black" d="M122.87,-303.05C128.18,-295.02 138.07,-280.06 144.64,-270.12"/>
<polygon fill="black" stroke="black" points="146.27,-270.82 147.57,-265.69 143.35,-268.89 146.27,-270.82"/>
</g>
<!-- 16&#45;&gt;18 -->
<g id="edge34" class="edge">
<title>16&#45;&gt;18</title>
<path fill="none" stroke="black" d="M119.2,-302.27C119.2,-294.56 119.2,-281.38 119.2,-271.82"/>
<polygon fill="black" stroke="black" points="120.95,-271.68 119.2,-266.68 117.45,-271.68 120.95,-271.68"/>
</g>
<!-- 16&#45;&gt;20 -->
<g id="edge35" class="edge">
<title>16&#45;&gt;20</title>
<path fill="none" stroke="black" d="M115.53,-303.05C110.22,-295.02 100.33,-280.06 93.76,-270.12"/>
<polygon fill="black" stroke="black" points="95.05,-268.89 90.83,-265.69 92.13,-270.82 95.05,-268.89"/>
</g>
<!-- 21 -->
<g id="node21" class="node">
<title>21</title>
<ellipse fill="Turquoise" stroke="Turquoise" cx="103.2" cy="-208.8" rx="7.2" ry="7.2"/>
</g>
<!-- 17&#45;&gt;21 -->
<g id="edge36" class="edge">
<title>17&#45;&gt;21</title>
<path fill="none" stroke="black" d="M146.42,-253.38C138.3,-245.19 121.7,-228.45 111.6,-218.27"/>
<polygon fill="black" stroke="black" points="112.72,-216.92 107.96,-214.6 110.24,-219.38 112.72,-216.92"/>
</g>
<!-- 22 -->
<g id="node22" class="node">
<title>22</title>
<ellipse fill="Turquoise" stroke="Turquoise" cx="151.2" cy="-208.8" rx="7.2" ry="7.2"/>
</g>
<!-- 17&#45;&gt;22 -->
<g id="edge37" class="edge">
<title>17&#45;&gt;22</title>
<path fill="none" stroke="black" d="M151.2,-251.87C151.2,-244.16 151.2,-230.98 151.2,-221.42"/>
<polygon fill="black" stroke="black" points="152.95,-221.28 151.2,-216.28 149.45,-221.28 152.95,-221.28"/>
</g>
<!-- 18&#45;&gt;21 -->
<g id="edge38" class="edge">
<title>18&#45;&gt;21</title>
<path fill="none" stroke="black" d="M117.24,-252.27C114.65,-244.43 110.04,-230.48 106.81,-220.71"/>
<polygon fill="black" stroke="black" points="108.41,-219.98 105.18,-215.78 105.09,-221.08 108.41,-219.98"/>
</g>
<!-- 19&#45;&gt;21 -->
<g id="edge39" class="edge">
<title>19&#45;&gt;21</title>
<path fill="none" stroke="black" d="M59.98,-253.38C68.1,-245.19 84.7,-228.45 94.8,-218.27"/>
<polygon fill="black" stroke="black" points="96.16,-219.38 98.44,-214.6 93.68,-216.92 96.16,-219.38"/>
</g>
<!-- 20&#45;&gt;21 -->
<g id="edge40" class="edge">
<title>20&#45;&gt;21</title>
<path fill="none" stroke="black" d="M89.16,-252.27C91.75,-244.43 96.36,-230.48 99.59,-220.71"/>
<polygon fill="black" stroke="black" points="101.31,-221.08 101.22,-215.78 97.99,-219.98 101.31,-221.08"/>
</g>
<!-- 24 -->
<g id="node24" class="node">
<title>24</title>
<ellipse fill="Turquoise" stroke="Turquoise" cx="103.2" cy="-158.4" rx="7.2" ry="7.2"/>
</g>
<!-- 21&#45;&gt;24 -->
<g id="edge41" class="edge">
<title>21&#45;&gt;24</title>
<path fill="none" stroke="black" d="M103.2,-201.47C103.2,-193.76 103.2,-180.58 103.2,-171.02"/>
<polygon fill="black" stroke="black" points="104.95,-170.88 103.2,-165.88 101.45,-170.88 104.95,-170.88"/>
</g>
<!-- 23 -->
<g id="node23" class="node">
<title>23</title>
<ellipse fill="Turquoise" stroke="Turquoise" cx="151.2" cy="-158.4" rx="7.2" ry="7.2"/>
</g>
<!-- 22&#45;&gt;23 -->
<g id="edge42" class="edge">
<title>22&#45;&gt;23</title>
<path fill="none" stroke="black" d="M151.2,-201.47C151.2,-193.76 151.2,-180.58 151.2,-171.02"/>
<polygon fill="black" stroke="black" points="152.95,-170.88 151.2,-165.88 149.45,-170.88 152.95,-170.88"/>
</g>
<!-- 25 -->
<g id="node25" class="node">
<title>25</title>
<ellipse fill="Turquoise" stroke="Turquoise" cx="103.2" cy="-108" rx="7.2" ry="7.2"/>
</g>
<!-- 23&#45;&gt;25 -->
<g id="edge43" class="edge">
<title>23&#45;&gt;25</title>
<path fill="none" stroke="black" d="M146.42,-152.58C138.3,-144.39 121.7,-127.65 111.6,-117.47"/>
<polygon fill="black" stroke="black" points="112.72,-116.12 107.96,-113.8 110.24,-118.58 112.72,-116.12"/>
</g>
<!-- 26 -->
<g id="node26" class="node">
<title>26</title>
<ellipse fill="Turquoise" stroke="Turquoise" cx="151.2" cy="-108" rx="7.2" ry="7.2"/>
</g>
<!-- 23&#45;&gt;26 -->
<g id="edge44" class="edge">
<title>23&#45;&gt;26</title>
<path fill="none" stroke="black" d="M151.2,-151.07C151.2,-143.36 151.2,-130.18 151.2,-120.62"/>
<polygon fill="black" stroke="black" points="152.95,-120.48 151.2,-115.48 149.45,-120.48 152.95,-120.48"/>
</g>
<!-- 24&#45;&gt;25 -->
<g id="edge45" class="edge">
<title>24&#45;&gt;25</title>
<path fill="none" stroke="black" d="M103.2,-151.07C103.2,-143.36 103.2,-130.18 103.2,-120.62"/>
<polygon fill="black" stroke="black" points="104.95,-120.48 103.2,-115.48 101.45,-120.48 104.95,-120.48"/>
</g>
<!-- 28 -->
<g id="node28" class="node">
<title>28</title>
<ellipse fill="Turquoise" stroke="Turquoise" cx="167.2" cy="-57.6" rx="7.2" ry="7.2"/>
</g>
<!-- 25&#45;&gt;28 -->
<g id="edge46" class="edge">
<title>25&#45;&gt;28</title>
<path fill="none" stroke="black" d="M108.66,-102.87C119.52,-94.66 143.98,-76.16 157.59,-65.87"/>
<polygon fill="black" stroke="black" points="158.82,-67.13 161.76,-62.72 156.71,-64.34 158.82,-67.13"/>
</g>
<!-- 29 -->
<g id="node29" class="node">
<title>29</title>
<ellipse fill="Turquoise" stroke="Turquoise" cx="71.2" cy="-57.6" rx="7.2" ry="7.2"/>
</g>
<!-- 25&#45;&gt;29 -->
<g id="edge47" class="edge">
<title>25&#45;&gt;29</title>
<path fill="none" stroke="black" d="M99.53,-101.45C94.22,-93.42 84.33,-78.46 77.76,-68.52"/>
<polygon fill="black" stroke="black" points="79.05,-67.29 74.83,-64.09 76.13,-69.22 79.05,-67.29"/>
</g>
<!-- 30 -->
<g id="node30" class="node">
<title>30</title>
<ellipse fill="Turquoise" stroke="Turquoise" cx="103.2" cy="-57.6" rx="7.2" ry="7.2"/>
</g>
<!-- 25&#45;&gt;30 -->
<g id="edge48" class="edge">
<title>25&#45;&gt;30</title>
<path fill="none" stroke="black" d="M103.2,-100.67C103.2,-92.96 103.2,-79.78 103.2,-70.22"/>
<polygon fill="black" stroke="black" points="104.95,-70.08 103.2,-65.08 101.45,-70.08 104.95,-70.08"/>
</g>
<!-- 31 -->
<g id="node31" class="node">
<title>31</title>
<ellipse fill="Turquoise" stroke="Turquoise" cx="135.2" cy="-57.6" rx="7.2" ry="7.2"/>
</g>
<!-- 25&#45;&gt;31 -->
<g id="edge49" class="edge">
<title>25&#45;&gt;31</title>
<path fill="none" stroke="black" d="M106.87,-101.45C112.18,-93.42 122.07,-78.46 128.64,-68.52"/>
<polygon fill="black" stroke="black" points="130.27,-69.22 131.57,-64.09 127.35,-67.29 130.27,-69.22"/>
</g>
<!-- 32 -->
<g id="node32" class="node">
<title>32</title>
<ellipse fill="Turquoise" stroke="Turquoise" cx="7.2" cy="-57.6" rx="7.2" ry="7.2"/>
</g>
<!-- 25&#45;&gt;32 -->
<g id="edge50" class="edge">
<title>25&#45;&gt;32</title>
<path fill="none" stroke="black" d="M97.19,-103.97C81.3,-95.96 37.98,-74.12 17.8,-63.95"/>
<polygon fill="black" stroke="black" points="18.46,-62.31 13.2,-61.63 16.88,-65.44 18.46,-62.31"/>
</g>
<!-- 33 -->
<g id="node33" class="node">
<title>33</title>
<ellipse fill="Turquoise" stroke="Turquoise" cx="39.2" cy="-57.6" rx="7.2" ry="7.2"/>
</g>
<!-- 25&#45;&gt;33 -->
<g id="edge51" class="edge">
<title>25&#45;&gt;33</title>
<path fill="none" stroke="black" d="M97.74,-102.87C86.88,-94.66 62.42,-76.16 48.81,-65.87"/>
<polygon fill="black" stroke="black" points="49.69,-64.34 44.64,-62.72 47.58,-67.13 49.69,-64.34"/>
</g>
<!-- 27 -->
<g id="node27" class="node">
<title>27</title>
<ellipse fill="Turquoise" stroke="Turquoise" cx="199.2" cy="-57.6" rx="7.2" ry="7.2"/>
</g>
<!-- 26&#45;&gt;27 -->
<g id="edge52" class="edge">
<title>26&#45;&gt;27</title>
<path fill="none" stroke="black" d="M155.98,-102.18C164.1,-93.99 180.7,-77.25 190.8,-67.07"/>
<polygon fill="black" stroke="black" points="192.16,-68.18 194.44,-63.4 189.68,-65.72 192.16,-68.18"/>
</g>
<!-- 26&#45;&gt;28 -->
<g id="edge53" class="edge">
<title>26&#45;&gt;28</title>
<path fill="none" stroke="black" d="M153.16,-101.07C155.75,-93.23 160.36,-79.28 163.59,-69.51"/>
<polygon fill="black" stroke="black" points="165.31,-69.88 165.22,-64.58 161.99,-68.78 165.31,-69.88"/>
</g>
<!-- 26&#45;&gt;31 -->
<g id="edge54" class="edge">
<title>26&#45;&gt;31</title>
<path fill="none" stroke="black" d="M149.24,-101.07C146.65,-93.23 142.04,-79.28 138.81,-69.51"/>
<polygon fill="black" stroke="black" points="140.41,-68.78 137.18,-64.58 137.09,-69.88 140.41,-68.78"/>
</g>
<!-- 34 -->
<g id="node34" class="node">
<title>34</title>
<ellipse fill="Turquoise" stroke="Turquoise" cx="103.2" cy="-7.2" rx="7.2" ry="7.2"/>
</g>
<!-- 27&#45;&gt;34 -->
<g id="edge55" class="edge">
<title>27&#45;&gt;34</title>
<path fill="none" stroke="black" d="M193.19,-53.57C177.3,-45.56 133.98,-23.72 113.8,-13.55"/>
<polygon fill="black" stroke="black" points="114.46,-11.91 109.2,-11.23 112.88,-15.04 114.46,-11.91"/>
</g>
<!-- 28&#45;&gt;34 -->
<g id="edge56" class="edge">
<title>28&#45;&gt;34</title>
<path fill="none" stroke="black" d="M161.74,-52.47C150.88,-44.26 126.42,-25.76 112.81,-15.47"/>
<polygon fill="black" stroke="black" points="113.69,-13.94 108.64,-12.32 111.58,-16.73 113.69,-13.94"/>
</g>
<!-- 29&#45;&gt;34 -->
<g id="edge57" class="edge">
<title>29&#45;&gt;34</title>
<path fill="none" stroke="black" d="M74.87,-51.05C80.18,-43.02 90.07,-28.06 96.64,-18.12"/>
<polygon fill="black" stroke="black" points="98.27,-18.82 99.57,-13.69 95.35,-16.89 98.27,-18.82"/>
</g>
<!-- 30&#45;&gt;34 -->
<g id="edge58" class="edge">
<title>30&#45;&gt;34</title>
<path fill="none" stroke="black" d="M103.2,-50.27C103.2,-42.56 103.2,-29.38 103.2,-19.82"/>
<polygon fill="black" stroke="black" points="104.95,-19.68 103.2,-14.68 101.45,-19.68 104.95,-19.68"/>
</g>
<!-- 31&#45;&gt;34 -->
<g id="edge59" class="edge">
<title>31&#45;&gt;34</title>
<path fill="none" stroke="black" d="M131.53,-51.05C126.22,-43.02 116.33,-28.06 109.76,-18.12"/>
<polygon fill="black" stroke="black" points="111.05,-16.89 106.83,-13.69 108.13,-18.82 111.05,-16.89"/>
</g>
<!-- 32&#45;&gt;34 -->
<g id="edge60" class="edge">
<title>32&#45;&gt;34</title>
<path fill="none" stroke="black" d="M13.21,-53.57C29.1,-45.56 72.42,-23.72 92.6,-13.55"/>
<polygon fill="black" stroke="black" points="93.52,-15.04 97.2,-11.23 91.94,-11.91 93.52,-15.04"/>
</g>
<!-- 33&#45;&gt;34 -->
<g id="edge61" class="edge">
<title>33&#45;&gt;34</title>
<path fill="none" stroke="black" d="M44.66,-52.47C55.52,-44.26 79.98,-25.76 93.59,-15.47"/>
<polygon fill="black" stroke="black" points="94.82,-16.73 97.76,-12.32 92.71,-13.94 94.82,-16.73"/>
</g>
</g>
</svg>
