<?xml version="1.0" encoding="UTF-8" standalone="no"?>
<!DOCTYPE svg PUBLIC "-//W3C//DTD SVG 1.1//EN"
 "http://www.w3.org/Graphics/SVG/1.1/DTD/svg11.dtd">
<!-- Generated by graphviz version 2.50.0 (20211204.2007)
 -->
<!-- Title: graphname Pages: 1 -->
<svg width="191pt" height="288pt"
 viewBox="0.00 0.00 191.28 288.00" xmlns="http://www.w3.org/2000/svg" xmlns:xlink="http://www.w3.org/1999/xlink">
<g id="graph0" class="graph" transform="scale(0.77 0.77) rotate(0) translate(4 371.2)">
<title>graphname</title>
<polygon fill="white" stroke="transparent" points="-4,4 -4,-371.2 245.2,-371.2 245.2,4 -4,4"/>
<!-- 1 -->
<g id="node1" class="node">
<title>1</title>
<ellipse fill="Turquoise" stroke="Turquoise" cx="42" cy="-360" rx="7.2" ry="7.2"/>
</g>
<!-- 2 -->
<g id="node2" class="node">
<title>2</title>
<ellipse fill="Turquoise" stroke="Turquoise" cx="10" cy="-57.6" rx="7.2" ry="7.2"/>
</g>
<!-- 3 -->
<g id="node3" class="node">
<title>3</title>
<ellipse fill="Turquoise" stroke="Turquoise" cx="106" cy="-360" rx="7.2" ry="7.2"/>
</g>
<!-- 4 -->
<g id="node4" class="node">
<title>4</title>
<ellipse fill="Turquoise" stroke="Turquoise" cx="42" cy="-158.4" rx="7.2" ry="7.2"/>
</g>
<!-- 11 -->
<g id="node11" class="node">
<title>11</title>
<ellipse fill="Turquoise" stroke="Turquoise" cx="42" cy="-108" rx="7.2" ry="7.2"/>
</g>
<!-- 4&#45;&gt;11 -->
<g id="edge1" class="edge">
<title>4&#45;&gt;11</title>
<path fill="none" stroke="black" d="M42,-151.07C42,-143.36 42,-130.18 42,-120.62"/>
<polygon fill="black" stroke="black" points="43.75,-120.48 42,-115.48 40.25,-120.48 43.75,-120.48"/>
<text text-anchor="middle" x="37" y="-136.06" font-family="Times,serif" font-size="8.00">9.0</text>
</g>
<!-- 5 -->
<g id="node5" class="node">
<title>5</title>
<ellipse fill="Turquoise" stroke="Turquoise" cx="74" cy="-360" rx="7.2" ry="7.2"/>
</g>
<!-- 15 -->
<g id="node15" class="node">
<title>15</title>
<ellipse fill="Turquoise" stroke="Turquoise" cx="74" cy="-309.6" rx="7.2" ry="7.2"/>
</g>
<!-- 5&#45;&gt;15 -->
<g id="edge2" class="edge">
<title>5&#45;&gt;15</title>
<path fill="none" stroke="black" d="M74,-352.67C74,-344.96 74,-331.78 74,-322.22"/>
<polygon fill="black" stroke="black" points="75.75,-322.08 74,-317.08 72.25,-322.08 75.75,-322.08"/>
<text text-anchor="middle" x="69" y="-337.66" font-family="Times,serif" font-size="8.00">2.0</text>
</g>
<!-- 6 -->
<g id="node6" class="node">
<title>6</title>
<ellipse fill="Turquoise" stroke="Turquoise" cx="74" cy="-158.4" rx="7.2" ry="7.2"/>
</g>
<!-- 18 -->
<g id="node18" class="node">
<title>18</title>
<ellipse fill="Turquoise" stroke="Turquoise" cx="92" cy="-108" rx="7.2" ry="7.2"/>
</g>
<!-- 6&#45;&gt;18 -->
<g id="edge3" class="edge">
<title>6&#45;&gt;18</title>
<path fill="none" stroke="black" d="M76.21,-151.47C79.12,-143.63 84.31,-129.68 87.94,-119.91"/>
<polygon fill="black" stroke="black" points="89.67,-120.28 89.77,-114.98 86.39,-119.06 89.67,-120.28"/>
<text text-anchor="middle" x="78" y="-135.8" font-family="Times,serif" font-size="8.00">9.0</text>
</g>
<!-- 7 -->
<g id="node7" class="node">
<title>7</title>
<ellipse fill="Turquoise" stroke="Turquoise" cx="10" cy="-108" rx="7.2" ry="7.2"/>
</g>
<!-- 7&#45;&gt;2 -->
<g id="edge4" class="edge">
<title>7&#45;&gt;2</title>
<path fill="none" stroke="black" d="M10,-100.67C10,-92.96 10,-79.78 10,-70.22"/>
<polygon fill="black" stroke="black" points="11.75,-70.08 10,-65.08 8.25,-70.08 11.75,-70.08"/>
<text text-anchor="middle" x="5" y="-85.66" font-family="Times,serif" font-size="8.00">7.0</text>
</g>
<!-- 8 -->
<g id="node8" class="node">
<title>8</title>
<ellipse fill="Turquoise" stroke="Turquoise" cx="42" cy="-57.6" rx="7.2" ry="7.2"/>
</g>
<!-- 16 -->
<g id="node16" class="node">
<title>16</title>
<ellipse fill="Turquoise" stroke="Turquoise" cx="42" cy="-7.2" rx="7.2" ry="7.2"/>
</g>
<!-- 8&#45;&gt;16 -->
<g id="edge5" class="edge">
<title>8&#45;&gt;16</title>
<path fill="none" stroke="black" d="M42,-50.27C42,-42.56 42,-29.38 42,-19.82"/>
<polygon fill="black" stroke="black" points="43.75,-19.68 42,-14.68 40.25,-19.68 43.75,-19.68"/>
<text text-anchor="middle" x="35" y="-35.26" font-family="Times,serif" font-size="8.00">10.0</text>
</g>
<!-- 9 -->
<g id="node9" class="node">
<title>9</title>
<ellipse fill="Turquoise" stroke="Turquoise" cx="138" cy="-360" rx="7.2" ry="7.2"/>
</g>
<!-- 10 -->
<g id="node10" class="node">
<title>10</title>
<ellipse fill="Turquoise" stroke="Turquoise" cx="74" cy="-208.8" rx="7.2" ry="7.2"/>
</g>
<!-- 10&#45;&gt;6 -->
<g id="edge6" class="edge">
<title>10&#45;&gt;6</title>
<path fill="none" stroke="black" d="M74,-201.47C74,-193.76 74,-180.58 74,-171.02"/>
<polygon fill="black" stroke="black" points="75.75,-170.88 74,-165.88 72.25,-170.88 75.75,-170.88"/>
<text text-anchor="middle" x="69" y="-186.46" font-family="Times,serif" font-size="8.00">2.0</text>
</g>
<!-- 11&#45;&gt;2 -->
<g id="edge7" class="edge">
<title>11&#45;&gt;2</title>
<path fill="none" stroke="black" d="M38.33,-101.45C33.02,-93.42 23.13,-78.46 16.56,-68.52"/>
<polygon fill="black" stroke="black" points="17.85,-67.29 13.63,-64.09 14.93,-69.22 17.85,-67.29"/>
<text text-anchor="middle" x="21.06" y="-85.48" font-family="Times,serif" font-size="8.00">5.0</text>
</g>
<!-- 11&#45;&gt;8 -->
<g id="edge8" class="edge">
<title>11&#45;&gt;8</title>
<path fill="none" stroke="black" d="M42,-100.67C42,-92.96 42,-79.78 42,-70.22"/>
<polygon fill="black" stroke="black" points="43.75,-70.08 42,-65.08 40.25,-70.08 43.75,-70.08"/>
<text text-anchor="middle" x="37" y="-85.66" font-family="Times,serif" font-size="8.00">8.0</text>
</g>
<!-- 12 -->
<g id="node12" class="node">
<title>12</title>
<ellipse fill="Turquoise" stroke="Turquoise" cx="74" cy="-259.2" rx="7.2" ry="7.2"/>
</g>
<!-- 12&#45;&gt;10 -->
<g id="edge9" class="edge">
<title>12&#45;&gt;10</title>
<path fill="none" stroke="black" d="M74,-251.87C74,-244.16 74,-230.98 74,-221.42"/>
<polygon fill="black" stroke="black" points="75.75,-221.28 74,-216.28 72.25,-221.28 75.75,-221.28"/>
<text text-anchor="middle" x="69" y="-236.86" font-family="Times,serif" font-size="8.00">2.0</text>
</g>
<!-- 13 -->
<g id="node13" class="node">
<title>13</title>
<ellipse fill="Turquoise" stroke="Turquoise" cx="170" cy="-360" rx="7.2" ry="7.2"/>
</g>
<!-- 14 -->
<g id="node14" class="node">
<title>14</title>
<ellipse fill="Turquoise" stroke="Turquoise" cx="202" cy="-360" rx="7.2" ry="7.2"/>
</g>
<!-- 15&#45;&gt;12 -->
<g id="edge10" class="edge">
<title>15&#45;&gt;12</title>
<path fill="none" stroke="black" d="M74,-302.27C74,-294.56 74,-281.38 74,-271.82"/>
<polygon fill="black" stroke="black" points="75.75,-271.68 74,-266.68 72.25,-271.68 75.75,-271.68"/>
<text text-anchor="middle" x="69" y="-287.26" font-family="Times,serif" font-size="8.00">2.0</text>
</g>
<!-- 17 -->
<g id="node17" class="node">
<title>17</title>
<ellipse fill="Turquoise" stroke="Turquoise" cx="107" cy="-259.2" rx="7.2" ry="7.2"/>
</g>
<!-- 17&#45;&gt;10 -->
<g id="edge11" class="edge">
<title>17&#45;&gt;10</title>
<path fill="none" stroke="black" d="M103.21,-252.65C97.69,-244.55 87.36,-229.39 80.58,-219.45"/>
<polygon fill="black" stroke="black" points="82,-218.43 77.74,-215.29 79.11,-220.4 82,-218.43"/>
<text text-anchor="middle" x="85.43" y="-236.49" font-family="Times,serif" font-size="8.00">7.0</text>
</g>
<!-- 17&#45;&gt;18 -->
<g id="edge12" class="edge">
<title>17&#45;&gt;18</title>
<path fill="none" stroke="black" d="M106.36,-251.79C104.04,-228.78 96.14,-150.16 93.15,-120.48"/>
<polygon fill="black" stroke="black" points="94.87,-120.02 92.63,-115.22 91.38,-120.37 94.87,-120.02"/>
<text text-anchor="middle" x="94.48" y="-186" font-family="Times,serif" font-size="8.00">1.0</text>
</g>
<!-- 19 -->
<g id="node19" class="node">
<title>19</title>
<ellipse fill="Turquoise" stroke="Turquoise" cx="234" cy="-360" rx="7.2" ry="7.2"/>
</g>
<!-- 20 -->
<g id="node20" class="node">
<title>20</title>
<ellipse fill="Turquoise" stroke="Turquoise" cx="42" cy="-208.8" rx="7.2" ry="7.2"/>
</g>
<!-- 20&#45;&gt;4 -->
<g id="edge13" class="edge">
<title>20&#45;&gt;4</title>
<path fill="none" stroke="black" d="M42,-201.47C42,-193.76 42,-180.58 42,-171.02"/>
<polygon fill="black" stroke="black" points="43.75,-170.88 42,-165.88 40.25,-170.88 43.75,-170.88"/>
<text text-anchor="middle" x="37" y="-186.46" font-family="Times,serif" font-size="8.00">1.0</text>
</g>
<!-- 20&#45;&gt;6 -->
<g id="edge14" class="edge">
<title>20&#45;&gt;6</title>
<path fill="none" stroke="black" d="M45.67,-202.25C50.98,-194.22 60.87,-179.26 67.44,-169.32"/>
<polygon fill="black" stroke="black" points="69.07,-170.02 70.37,-164.89 66.15,-168.09 69.07,-170.02"/>
<text text-anchor="middle" x="52.94" y="-186.28" font-family="Times,serif" font-size="8.00">6.0</text>
</g>
</g>
</svg>
