<?xml version="1.0" encoding="UTF-8" standalone="no"?>
<!DOCTYPE svg PUBLIC "-//W3C//DTD SVG 1.1//EN"
 "http://www.w3.org/Graphics/SVG/1.1/DTD/svg11.dtd">
<!-- Generated by graphviz version 2.50.0 (20211204.2007)
 -->
<!-- Pages: 1 -->
<svg width="226pt" height="288pt"
 viewBox="0.00 0.00 226.46 288.00" xmlns="http://www.w3.org/2000/svg" xmlns:xlink="http://www.w3.org/1999/xlink">
<g id="graph0" class="graph" transform="scale(0.89 0.89) rotate(0) translate(4 320.8)">
<polygon fill="white" stroke="transparent" points="-4,4 -4,-320.8 251.4,-320.8 251.4,4 -4,4"/>
<!-- 1 -->
<g id="node1" class="node">
<title>1</title>
<ellipse fill="Turquoise" stroke="Turquoise" cx="42.2" cy="-57.6" rx="7.2" ry="7.2"/>
</g>
<!-- 2 -->
<g id="node2" class="node">
<title>2</title>
<ellipse fill="Turquoise" stroke="Turquoise" cx="176.2" cy="-309.6" rx="7.2" ry="7.2"/>
</g>
<!-- 5 -->
<g id="node5" class="node">
<title>5</title>
<ellipse fill="Turquoise" stroke="Turquoise" cx="176.2" cy="-259.2" rx="7.2" ry="7.2"/>
</g>
<!-- 2&#45;&gt;5 -->
<g id="edge1" class="edge">
<title>2&#45;&gt;5</title>
<path fill="none" stroke="black" d="M176.2,-302.27C176.2,-294.56 176.2,-281.38 176.2,-271.82"/>
<polygon fill="black" stroke="black" points="177.95,-271.68 176.2,-266.68 174.45,-271.68 177.95,-271.68"/>
<text text-anchor="middle" x="171.2" y="-287.26" font-family="Times,serif" font-size="8.00">4.0</text>
</g>
<!-- 3 -->
<g id="node3" class="node">
<title>3</title>
<ellipse fill="Turquoise" stroke="Turquoise" cx="106.2" cy="-208.8" rx="7.2" ry="7.2"/>
</g>
<!-- 18 -->
<g id="node18" class="node">
<title>18</title>
<ellipse fill="Turquoise" stroke="Turquoise" cx="106.2" cy="-158.4" rx="7.2" ry="7.2"/>
</g>
<!-- 3&#45;&gt;18 -->
<g id="edge2" class="edge">
<title>3&#45;&gt;18</title>
<path fill="none" stroke="black" d="M106.2,-201.47C106.2,-193.76 106.2,-180.58 106.2,-171.02"/>
<polygon fill="black" stroke="black" points="107.95,-170.88 106.2,-165.88 104.45,-170.88 107.95,-170.88"/>
<text text-anchor="middle" x="101.2" y="-186.46" font-family="Times,serif" font-size="8.00">3.0</text>
</g>
<!-- 4 -->
<g id="node4" class="node">
<title>4</title>
<ellipse fill="Turquoise" stroke="Turquoise" cx="42.2" cy="-158.4" rx="7.2" ry="7.2"/>
</g>
<!-- 8 -->
<g id="node8" class="node">
<title>8</title>
<ellipse fill="Turquoise" stroke="Turquoise" cx="42.2" cy="-108" rx="7.2" ry="7.2"/>
</g>
<!-- 4&#45;&gt;8 -->
<g id="edge3" class="edge">
<title>4&#45;&gt;8</title>
<path fill="none" stroke="black" d="M42.2,-151.07C42.2,-143.36 42.2,-130.18 42.2,-120.62"/>
<polygon fill="black" stroke="black" points="43.95,-120.48 42.2,-115.48 40.45,-120.48 43.95,-120.48"/>
<text text-anchor="middle" x="37.2" y="-136.06" font-family="Times,serif" font-size="8.00">7.0</text>
</g>
<!-- 6 -->
<g id="node6" class="node">
<title>6</title>
<ellipse fill="Turquoise" stroke="Turquoise" cx="74.2" cy="-208.8" rx="7.2" ry="7.2"/>
</g>
<!-- 7 -->
<g id="node7" class="node">
<title>7</title>
<ellipse fill="Turquoise" stroke="Turquoise" cx="123.2" cy="-309.6" rx="7.2" ry="7.2"/>
</g>
<!-- 16 -->
<g id="node16" class="node">
<title>16</title>
<ellipse fill="Turquoise" stroke="Turquoise" cx="90.2" cy="-259.2" rx="7.2" ry="7.2"/>
</g>
<!-- 7&#45;&gt;16 -->
<g id="edge4" class="edge">
<title>7&#45;&gt;16</title>
<path fill="none" stroke="black" d="M119.41,-303.05C113.89,-294.95 103.56,-279.79 96.78,-269.85"/>
<polygon fill="black" stroke="black" points="98.2,-268.83 93.94,-265.69 95.31,-270.8 98.2,-268.83"/>
<text text-anchor="middle" x="101.63" y="-286.89" font-family="Times,serif" font-size="8.00">8.0</text>
</g>
<!-- 7&#45;&gt;18 -->
<g id="edge5" class="edge">
<title>7&#45;&gt;18</title>
<path fill="none" stroke="black" d="M123.91,-302.25C125.61,-285.58 129.27,-239.21 122.2,-201.6 120.09,-190.38 115.2,-178.25 111.37,-169.89"/>
<polygon fill="black" stroke="black" points="112.88,-168.99 109.16,-165.22 109.72,-170.49 112.88,-168.99"/>
<text text-anchor="middle" x="120.83" y="-235.77" font-family="Times,serif" font-size="8.00">4.0</text>
</g>
<!-- 8&#45;&gt;1 -->
<g id="edge6" class="edge">
<title>8&#45;&gt;1</title>
<path fill="none" stroke="black" d="M42.2,-100.67C42.2,-92.96 42.2,-79.78 42.2,-70.22"/>
<polygon fill="black" stroke="black" points="43.95,-70.08 42.2,-65.08 40.45,-70.08 43.95,-70.08"/>
<text text-anchor="middle" x="37.2" y="-85.66" font-family="Times,serif" font-size="8.00">7.0</text>
</g>
<!-- 19 -->
<g id="node19" class="node">
<title>19</title>
<ellipse fill="Turquoise" stroke="Turquoise" cx="74.2" cy="-57.6" rx="7.2" ry="7.2"/>
</g>
<!-- 8&#45;&gt;19 -->
<g id="edge7" class="edge">
<title>8&#45;&gt;19</title>
<path fill="none" stroke="black" d="M45.87,-101.45C51.18,-93.42 61.07,-78.46 67.64,-68.52"/>
<polygon fill="black" stroke="black" points="69.27,-69.22 70.57,-64.09 66.35,-67.29 69.27,-69.22"/>
<text text-anchor="middle" x="53.14" y="-85.48" font-family="Times,serif" font-size="8.00">6.0</text>
</g>
<!-- 9 -->
<g id="node9" class="node">
<title>9</title>
<ellipse fill="Turquoise" stroke="Turquoise" cx="40.2" cy="-7.2" rx="7.2" ry="7.2"/>
</g>
<!-- 10 -->
<g id="node10" class="node">
<title>10</title>
<ellipse fill="Turquoise" stroke="Turquoise" cx="74.2" cy="-108" rx="7.2" ry="7.2"/>
</g>
<!-- 10&#45;&gt;19 -->
<g id="edge8" class="edge">
<title>10&#45;&gt;19</title>
<path fill="none" stroke="black" d="M74.2,-100.67C74.2,-92.96 74.2,-79.78 74.2,-70.22"/>
<polygon fill="black" stroke="black" points="75.95,-70.08 74.2,-65.08 72.45,-70.08 75.95,-70.08"/>
<text text-anchor="middle" x="69.2" y="-85.66" font-family="Times,serif" font-size="8.00">8.0</text>
</g>
<!-- 11 -->
<g id="node11" class="node">
<title>11</title>
<ellipse fill="Turquoise" stroke="Turquoise" cx="42.2" cy="-208.8" rx="7.2" ry="7.2"/>
</g>
<!-- 11&#45;&gt;4 -->
<g id="edge9" class="edge">
<title>11&#45;&gt;4</title>
<path fill="none" stroke="black" d="M42.2,-201.47C42.2,-193.76 42.2,-180.58 42.2,-171.02"/>
<polygon fill="black" stroke="black" points="43.95,-170.88 42.2,-165.88 40.45,-170.88 43.95,-170.88"/>
<text text-anchor="middle" x="37.2" y="-186.46" font-family="Times,serif" font-size="8.00">7.0</text>
</g>
<!-- 12 -->
<g id="node12" class="node">
<title>12</title>
<ellipse fill="Turquoise" stroke="Turquoise" cx="208.2" cy="-309.6" rx="7.2" ry="7.2"/>
</g>
<!-- 13 -->
<g id="node13" class="node">
<title>13</title>
<ellipse fill="Turquoise" stroke="Turquoise" cx="106.2" cy="-108" rx="7.2" ry="7.2"/>
</g>
<!-- 14 -->
<g id="node14" class="node">
<title>14</title>
<ellipse fill="Turquoise" stroke="Turquoise" cx="240.2" cy="-309.6" rx="7.2" ry="7.2"/>
</g>
<!-- 15 -->
<g id="node15" class="node">
<title>15</title>
<ellipse fill="Turquoise" stroke="Turquoise" cx="58.2" cy="-309.6" rx="7.2" ry="7.2"/>
</g>
<!-- 15&#45;&gt;16 -->
<g id="edge10" class="edge">
<title>15&#45;&gt;16</title>
<path fill="none" stroke="black" d="M61.87,-303.05C67.18,-295.02 77.07,-280.06 83.64,-270.12"/>
<polygon fill="black" stroke="black" points="85.27,-270.82 86.57,-265.69 82.35,-268.89 85.27,-270.82"/>
<text text-anchor="middle" x="69.14" y="-287.08" font-family="Times,serif" font-size="8.00">9.0</text>
</g>
<!-- 17 -->
<g id="node17" class="node">
<title>17</title>
<ellipse fill="Turquoise" stroke="Turquoise" cx="42.2" cy="-259.2" rx="7.2" ry="7.2"/>
</g>
<!-- 15&#45;&gt;17 -->
<g id="edge11" class="edge">
<title>15&#45;&gt;17</title>
<path fill="none" stroke="black" d="M56.24,-302.67C53.65,-294.83 49.04,-280.88 45.81,-271.11"/>
<polygon fill="black" stroke="black" points="47.41,-270.38 44.18,-266.18 44.09,-271.48 47.41,-270.38"/>
<text text-anchor="middle" x="45.2" y="-287" font-family="Times,serif" font-size="8.00">6.0</text>
</g>
<!-- 16&#45;&gt;3 -->
<g id="edge12" class="edge">
<title>16&#45;&gt;3</title>
<path fill="none" stroke="black" d="M92.16,-252.27C94.75,-244.43 99.36,-230.48 102.59,-220.71"/>
<polygon fill="black" stroke="black" points="104.31,-221.08 104.22,-215.78 100.99,-219.98 104.31,-221.08"/>
<text text-anchor="middle" x="93.2" y="-236.6" font-family="Times,serif" font-size="8.00">4.0</text>
</g>
<!-- 16&#45;&gt;6 -->
<g id="edge13" class="edge">
<title>16&#45;&gt;6</title>
<path fill="none" stroke="black" d="M88.24,-252.27C85.65,-244.43 81.04,-230.48 77.81,-220.71"/>
<polygon fill="black" stroke="black" points="79.41,-219.98 76.18,-215.78 76.09,-221.08 79.41,-219.98"/>
<text text-anchor="middle" x="75.2" y="-236.6" font-family="Times,serif" font-size="8.00">10.0</text>
</g>
<!-- 17&#45;&gt;11 -->
<g id="edge14" class="edge">
<title>17&#45;&gt;11</title>
<path fill="none" stroke="black" d="M42.2,-251.87C42.2,-244.16 42.2,-230.98 42.2,-221.42"/>
<polygon fill="black" stroke="black" points="43.95,-221.28 42.2,-216.28 40.45,-221.28 43.95,-221.28"/>
<text text-anchor="middle" x="35.2" y="-236.86" font-family="Times,serif" font-size="8.00">10.0</text>
</g>
<!-- 20 -->
<g id="node20" class="node">
<title>20</title>
<ellipse fill="Turquoise" stroke="Turquoise" cx="7.2" cy="-158.4" rx="7.2" ry="7.2"/>
</g>
<!-- 17&#45;&gt;20 -->
<g id="edge15" class="edge">
<title>17&#45;&gt;20</title>
<path fill="none" stroke="black" d="M39.85,-252.22C36.66,-244.06 30.84,-228.99 26.2,-216 20.57,-200.23 14.48,-181.82 10.75,-170.39"/>
<polygon fill="black" stroke="black" points="12.33,-169.59 9.12,-165.37 9,-170.67 12.33,-169.59"/>
<text text-anchor="middle" x="18.8" y="-211.82" font-family="Times,serif" font-size="8.00">7.0</text>
</g>
<!-- 18&#45;&gt;8 -->
<g id="edge16" class="edge">
<title>18&#45;&gt;8</title>
<path fill="none" stroke="black" d="M100.74,-153.27C89.88,-145.06 65.42,-126.56 51.81,-116.27"/>
<polygon fill="black" stroke="black" points="52.69,-114.74 47.64,-113.12 50.58,-117.53 52.69,-114.74"/>
<text text-anchor="middle" x="69.29" y="-135.87" font-family="Times,serif" font-size="8.00">1.0</text>
</g>
<!-- 18&#45;&gt;13 -->
<g id="edge17" class="edge">
<title>18&#45;&gt;13</title>
<path fill="none" stroke="black" d="M106.2,-151.07C106.2,-143.36 106.2,-130.18 106.2,-120.62"/>
<polygon fill="black" stroke="black" points="107.95,-120.48 106.2,-115.48 104.45,-120.48 107.95,-120.48"/>
<text text-anchor="middle" x="101.2" y="-136.06" font-family="Times,serif" font-size="8.00">5.0</text>
</g>
<!-- 19&#45;&gt;9 -->
<g id="edge18" class="edge">
<title>19&#45;&gt;9</title>
<path fill="none" stroke="black" d="M70.3,-51.05C64.61,-42.95 53.96,-27.79 46.98,-17.85"/>
<polygon fill="black" stroke="black" points="48.36,-16.77 44.05,-13.69 45.5,-18.78 48.36,-16.77"/>
<text text-anchor="middle" x="52.13" y="-34.89" font-family="Times,serif" font-size="8.00">5.0</text>
</g>
<!-- 20&#45;&gt;9 -->
<g id="edge19" class="edge">
<title>20&#45;&gt;9</title>
<path fill="none" stroke="black" d="M8,-151.06C10.17,-134.4 16.66,-88.08 26.2,-50.4 28.96,-39.49 33.12,-27.33 36.18,-18.87"/>
<polygon fill="black" stroke="black" points="37.84,-19.43 37.93,-14.13 34.56,-18.22 37.84,-19.43"/>
<text text-anchor="middle" x="14.17" y="-84.6" font-family="Times,serif" font-size="8.00">2.0</text>
</g>
</g>
</svg>
