<?xml version="1.0" encoding="UTF-8" standalone="no"?>
<!DOCTYPE svg PUBLIC "-//W3C//DTD SVG 1.1//EN"
 "http://www.w3.org/Graphics/SVG/1.1/DTD/svg11.dtd">
<!-- Generated by graphviz version 2.50.0 (20211204.2007)
 -->
<!-- Pages: 1 -->
<svg width="281pt" height="350pt"
 viewBox="0.00 0.00 281.00 350.00" xmlns="http://www.w3.org/2000/svg" xmlns:xlink="http://www.w3.org/1999/xlink">
<g id="graph0" class="graph" transform="scale(1 1) rotate(0) translate(4 346)">
<polygon fill="white" stroke="transparent" points="-4,4 -4,-346 277,-346 277,4 -4,4"/>
<!-- 1 -->
<g id="node1" class="node">
<title>1</title>
<polygon fill="none" stroke="#e41a1c" points="55,-72 37,-72 37,-70 35,-70 35,-68 37,-68 37,-58 35,-58 35,-56 37,-56 37,-54 55,-54 55,-72"/>
<polyline fill="none" stroke="#e41a1c" points="37,-70 39,-70 39,-68 37,-68 "/>
<polyline fill="none" stroke="#e41a1c" points="37,-58 39,-58 39,-56 37,-56 "/>
<text text-anchor="middle" x="46" y="-61.4" font-family="Times,serif" font-size="7.00">1</text>
</g>
<!-- 2 -->
<g id="node2" class="node">
<title>2</title>
<polygon fill="none" stroke="#377eb8" points="201,-342 183,-342 183,-340 181,-340 181,-338 183,-338 183,-328 181,-328 181,-326 183,-326 183,-324 201,-324 201,-342"/>
<polyline fill="none" stroke="#377eb8" points="183,-340 185,-340 185,-338 183,-338 "/>
<polyline fill="none" stroke="#377eb8" points="183,-328 185,-328 185,-326 183,-326 "/>
<text text-anchor="middle" x="192" y="-331.4" font-family="Times,serif" font-size="7.00">2</text>
</g>
<!-- 5 -->
<g id="node5" class="node">
<title>5</title>
<polygon fill="none" stroke="#377eb8" points="201,-288 183,-288 183,-286 181,-286 181,-284 183,-284 183,-274 181,-274 181,-272 183,-272 183,-270 201,-270 201,-288"/>
<polyline fill="none" stroke="#377eb8" points="183,-286 185,-286 185,-284 183,-284 "/>
<polyline fill="none" stroke="#377eb8" points="183,-274 185,-274 185,-272 183,-272 "/>
<text text-anchor="middle" x="192" y="-277.4" font-family="Times,serif" font-size="7.00">5</text>
</g>
<!-- 2&#45;&gt;5 -->
<g id="edge1" class="edge">
<title>2&#45;&gt;5</title>
<path fill="none" stroke="#000000" d="M192,-323.88C192,-315.76 192,-303.13 192,-293.5"/>
<polygon fill="#000000" stroke="#000000" points="193.75,-293.24 192,-288.24 190.25,-293.24 193.75,-293.24"/>
</g>
<!-- 3 -->
<g id="node3" class="node">
<title>3</title>
<polygon fill="none" stroke="#e41a1c" points="127,-234 109,-234 109,-232 107,-232 107,-230 109,-230 109,-220 107,-220 107,-218 109,-218 109,-216 127,-216 127,-234"/>
<polyline fill="none" stroke="#e41a1c" points="109,-232 111,-232 111,-230 109,-230 "/>
<polyline fill="none" stroke="#e41a1c" points="109,-220 111,-220 111,-218 109,-218 "/>
<text text-anchor="middle" x="118" y="-223.4" font-family="Times,serif" font-size="7.00">3</text>
</g>
<!-- 18 -->
<g id="node18" class="node">
<title>18</title>
<polygon fill="none" stroke="#e41a1c" points="128,-180 110,-180 110,-178 108,-178 108,-176 110,-176 110,-166 108,-166 108,-164 110,-164 110,-162 128,-162 128,-180"/>
<polyline fill="none" stroke="#e41a1c" points="110,-178 112,-178 112,-176 110,-176 "/>
<polyline fill="none" stroke="#e41a1c" points="110,-166 112,-166 112,-164 110,-164 "/>
<text text-anchor="middle" x="119" y="-169.4" font-family="Times,serif" font-size="7.00">18</text>
</g>
<!-- 3&#45;&gt;18 -->
<g id="edge2" class="edge">
<title>3&#45;&gt;18</title>
<path fill="none" stroke="#000000" d="M118.16,-215.88C118.31,-207.76 118.56,-195.13 118.74,-185.5"/>
<polygon fill="#000000" stroke="#000000" points="120.49,-185.27 118.84,-180.24 117,-185.2 120.49,-185.27"/>
</g>
<!-- 4 -->
<g id="node4" class="node">
<title>4</title>
<polygon fill="none" stroke="#e41a1c" points="55,-180 37,-180 37,-178 35,-178 35,-176 37,-176 37,-166 35,-166 35,-164 37,-164 37,-162 55,-162 55,-180"/>
<polyline fill="none" stroke="#e41a1c" points="37,-178 39,-178 39,-176 37,-176 "/>
<polyline fill="none" stroke="#e41a1c" points="37,-166 39,-166 39,-164 37,-164 "/>
<text text-anchor="middle" x="46" y="-169.4" font-family="Times,serif" font-size="7.00">4</text>
</g>
<!-- 8 -->
<g id="node8" class="node">
<title>8</title>
<polygon fill="#e41a1c" stroke="#e41a1c" points="47.89,-108.02 48.49,-108.07 49.07,-108.15 49.65,-108.25 50.22,-108.37 50.77,-108.51 51.31,-108.68 51.83,-108.87 52.33,-109.09 52.81,-109.32 53.27,-109.58 53.7,-109.86 54.11,-110.15 54.48,-110.47 54.84,-110.8 55.16,-111.15 55.45,-111.52 55.71,-111.9 55.94,-112.3 56.14,-112.7 56.3,-113.12 56.44,-113.55 56.54,-113.99 56.61,-114.44 56.65,-114.9 56.66,-115.36 56.64,-115.82 56.6,-116.29 56.52,-116.76 56.42,-117.24 56.3,-117.71 56.15,-118.18 55.97,-118.64 55.78,-119.1 55.56,-119.56 55.33,-120.01 55.07,-120.45 54.8,-120.88 54.52,-121.3 54.22,-121.7 53.91,-122.1 53.59,-122.48 53.25,-122.85 52.91,-123.2 52.56,-123.53 52.2,-123.85 51.84,-124.14 51.47,-124.42 51.09,-124.68 50.71,-124.91 50.33,-125.13 49.95,-125.32 49.56,-125.49 49.17,-125.63 48.78,-125.75 48.38,-125.85 47.99,-125.93 47.59,-125.98 47.2,-126 46.8,-126 46.41,-125.98 46.01,-125.93 45.62,-125.85 45.22,-125.75 44.83,-125.63 44.44,-125.49 44.05,-125.32 43.67,-125.13 43.29,-124.91 42.91,-124.68 42.53,-124.42 42.16,-124.14 41.8,-123.85 41.44,-123.53 41.09,-123.2 40.75,-122.85 40.41,-122.48 40.09,-122.1 39.78,-121.7 39.48,-121.3 39.2,-120.88 38.93,-120.45 38.67,-120.01 38.44,-119.56 38.22,-119.1 38.03,-118.64 37.85,-118.18 37.7,-117.71 37.58,-117.24 37.48,-116.76 37.4,-116.29 37.36,-115.82 37.34,-115.36 37.35,-114.9 37.39,-114.44 37.46,-113.99 37.56,-113.55 37.7,-113.12 37.86,-112.7 38.06,-112.3 38.29,-111.9 38.55,-111.52 38.84,-111.15 39.16,-110.8 39.52,-110.47 39.89,-110.15 40.3,-109.86 40.73,-109.58 41.19,-109.32 41.67,-109.09 42.17,-108.87 42.69,-108.68 43.23,-108.51 43.78,-108.37 44.35,-108.25 44.93,-108.15 45.51,-108.07 46.11,-108.02 46.7,-108 47.3,-108 47.89,-108.02"/>
<text text-anchor="middle" x="47" y="-115.4" font-family="Times,serif" font-size="7.00">8</text>
</g>
<!-- 4&#45;&gt;8 -->
<g id="edge3" class="edge">
<title>4&#45;&gt;8</title>
<path fill="none" stroke="#000000" d="M46.16,-161.88C46.31,-153.76 46.56,-141.13 46.74,-131.5"/>
<polygon fill="#000000" stroke="#000000" points="48.49,-131.27 46.84,-126.24 45,-131.2 48.49,-131.27"/>
</g>
<!-- 6 -->
<g id="node6" class="node">
<title>6</title>
<polygon fill="none" stroke="#e41a1c" points="91,-234 73,-234 73,-232 71,-232 71,-230 73,-230 73,-220 71,-220 71,-218 73,-218 73,-216 91,-216 91,-234"/>
<polyline fill="none" stroke="#e41a1c" points="73,-232 75,-232 75,-230 73,-230 "/>
<polyline fill="none" stroke="#e41a1c" points="73,-220 75,-220 75,-218 73,-218 "/>
<text text-anchor="middle" x="82" y="-223.4" font-family="Times,serif" font-size="7.00">6</text>
</g>
<!-- 7 -->
<g id="node7" class="node">
<title>7</title>
<polygon fill="none" stroke="#e41a1c" points="127,-342 109,-342 109,-340 107,-340 107,-338 109,-338 109,-328 107,-328 107,-326 109,-326 109,-324 127,-324 127,-342"/>
<polyline fill="none" stroke="#e41a1c" points="109,-340 111,-340 111,-338 109,-338 "/>
<polyline fill="none" stroke="#e41a1c" points="109,-328 111,-328 111,-326 109,-326 "/>
<text text-anchor="middle" x="118" y="-331.4" font-family="Times,serif" font-size="7.00">7</text>
</g>
<!-- 16 -->
<g id="node16" class="node">
<title>16</title>
<polygon fill="none" stroke="#e41a1c" points="109,-288 91,-288 91,-286 89,-286 89,-284 91,-284 91,-274 89,-274 89,-272 91,-272 91,-270 109,-270 109,-288"/>
<polyline fill="none" stroke="#e41a1c" points="91,-286 93,-286 93,-284 91,-284 "/>
<polyline fill="none" stroke="#e41a1c" points="91,-274 93,-274 93,-272 91,-272 "/>
<text text-anchor="middle" x="100" y="-277.4" font-family="Times,serif" font-size="7.00">16</text>
</g>
<!-- 7&#45;&gt;16 -->
<g id="edge4" class="edge">
<title>7&#45;&gt;16</title>
<path fill="none" stroke="#000000" d="M115.19,-323.88C112.32,-315.6 107.84,-302.66 104.49,-292.97"/>
<polygon fill="#000000" stroke="#000000" points="106.14,-292.39 102.85,-288.24 102.83,-293.54 106.14,-292.39"/>
</g>
<!-- 7&#45;&gt;18 -->
<g id="edge5" class="edge">
<title>7&#45;&gt;18</title>
<path fill="none" stroke="#000000" d="M121.18,-323.81C128.13,-304.81 143.51,-256.27 136,-216 133.99,-205.2 129.41,-193.64 125.52,-185.07"/>
<polygon fill="#000000" stroke="#000000" points="126.92,-183.94 123.21,-180.17 123.75,-185.43 126.92,-183.94"/>
</g>
<!-- 8&#45;&gt;1 -->
<g id="edge6" class="edge">
<title>8&#45;&gt;1</title>
<path fill="none" stroke="#000000" d="M46.84,-107.88C46.69,-99.76 46.44,-87.13 46.26,-77.5"/>
<polygon fill="#000000" stroke="#000000" points="48,-77.2 46.16,-72.24 44.51,-77.27 48,-77.2"/>
</g>
<!-- 19 -->
<g id="node19" class="node">
<title>19</title>
<polygon fill="none" stroke="#e41a1c" points="91,-72 73,-72 73,-70 71,-70 71,-68 73,-68 73,-58 71,-58 71,-56 73,-56 73,-54 91,-54 91,-72"/>
<polyline fill="none" stroke="#e41a1c" points="73,-70 75,-70 75,-68 73,-68 "/>
<polyline fill="none" stroke="#e41a1c" points="73,-58 75,-58 75,-56 73,-56 "/>
<text text-anchor="middle" x="82" y="-61.4" font-family="Times,serif" font-size="7.00">19</text>
</g>
<!-- 8&#45;&gt;19 -->
<g id="edge7" class="edge">
<title>8&#45;&gt;19</title>
<path fill="none" stroke="#000000" d="M51.87,-108.77C57.47,-100.44 66.77,-86.62 73.56,-76.54"/>
<polygon fill="#000000" stroke="#000000" points="75.14,-77.32 76.48,-72.2 72.24,-75.37 75.14,-77.32"/>
</g>
<!-- 9 -->
<g id="node9" class="node">
<title>9</title>
<polygon fill="none" stroke="#e41a1c" points="54,-18 36,-18 36,-16 34,-16 34,-14 36,-14 36,-4 34,-4 34,-2 36,-2 36,0 54,0 54,-18"/>
<polyline fill="none" stroke="#e41a1c" points="36,-16 38,-16 38,-14 36,-14 "/>
<polyline fill="none" stroke="#e41a1c" points="36,-4 38,-4 38,-2 36,-2 "/>
<text text-anchor="middle" x="45" y="-7.4" font-family="Times,serif" font-size="7.00">9</text>
</g>
<!-- 10 -->
<g id="node10" class="node">
<title>10</title>
<polygon fill="none" stroke="#e41a1c" points="93,-126 75,-126 75,-124 73,-124 73,-122 75,-122 75,-112 73,-112 73,-110 75,-110 75,-108 93,-108 93,-126"/>
<polyline fill="none" stroke="#e41a1c" points="75,-124 77,-124 77,-122 75,-122 "/>
<polyline fill="none" stroke="#e41a1c" points="75,-112 77,-112 77,-110 75,-110 "/>
<text text-anchor="middle" x="84" y="-115.4" font-family="Times,serif" font-size="7.00">10</text>
</g>
<!-- 10&#45;&gt;19 -->
<g id="edge8" class="edge">
<title>10&#45;&gt;19</title>
<path fill="none" stroke="#000000" d="M83.69,-107.88C83.38,-99.76 82.89,-87.13 82.52,-77.5"/>
<polygon fill="#000000" stroke="#000000" points="84.26,-77.17 82.32,-72.24 80.76,-77.3 84.26,-77.17"/>
</g>
<!-- 11 -->
<g id="node11" class="node">
<title>11</title>
<polygon fill="none" stroke="#e41a1c" points="55,-234 37,-234 37,-232 35,-232 35,-230 37,-230 37,-220 35,-220 35,-218 37,-218 37,-216 55,-216 55,-234"/>
<polyline fill="none" stroke="#e41a1c" points="37,-232 39,-232 39,-230 37,-230 "/>
<polyline fill="none" stroke="#e41a1c" points="37,-220 39,-220 39,-218 37,-218 "/>
<text text-anchor="middle" x="46" y="-223.4" font-family="Times,serif" font-size="7.00">11</text>
</g>
<!-- 11&#45;&gt;4 -->
<g id="edge9" class="edge">
<title>11&#45;&gt;4</title>
<path fill="none" stroke="#000000" d="M46,-215.88C46,-207.76 46,-195.13 46,-185.5"/>
<polygon fill="#000000" stroke="#000000" points="47.75,-185.24 46,-180.24 44.25,-185.24 47.75,-185.24"/>
</g>
<!-- 12 -->
<g id="node12" class="node">
<title>12</title>
<polygon fill="none" stroke="#4daf4a" points="237,-342 219,-342 219,-340 217,-340 217,-338 219,-338 219,-328 217,-328 217,-326 219,-326 219,-324 237,-324 237,-342"/>
<polyline fill="none" stroke="#4daf4a" points="219,-340 221,-340 221,-338 219,-338 "/>
<polyline fill="none" stroke="#4daf4a" points="219,-328 221,-328 221,-326 219,-326 "/>
<text text-anchor="middle" x="228" y="-331.4" font-family="Times,serif" font-size="7.00">12</text>
</g>
<!-- 13 -->
<g id="node13" class="node">
<title>13</title>
<polygon fill="none" stroke="#e41a1c" points="129,-126 111,-126 111,-124 109,-124 109,-122 111,-122 111,-112 109,-112 109,-110 111,-110 111,-108 129,-108 129,-126"/>
<polyline fill="none" stroke="#e41a1c" points="111,-124 113,-124 113,-122 111,-122 "/>
<polyline fill="none" stroke="#e41a1c" points="111,-112 113,-112 113,-110 111,-110 "/>
<text text-anchor="middle" x="120" y="-115.4" font-family="Times,serif" font-size="7.00">13</text>
</g>
<!-- 14 -->
<g id="node14" class="node">
<title>14</title>
<polygon fill="none" stroke="#984ea3" points="273,-342 255,-342 255,-340 253,-340 253,-338 255,-338 255,-328 253,-328 253,-326 255,-326 255,-324 273,-324 273,-342"/>
<polyline fill="none" stroke="#984ea3" points="255,-340 257,-340 257,-338 255,-338 "/>
<polyline fill="none" stroke="#984ea3" points="255,-328 257,-328 257,-326 255,-326 "/>
<text text-anchor="middle" x="264" y="-331.4" font-family="Times,serif" font-size="7.00">14</text>
</g>
<!-- 15 -->
<g id="node15" class="node">
<title>15</title>
<polygon fill="none" stroke="#e41a1c" points="73,-342 55,-342 55,-340 53,-340 53,-338 55,-338 55,-328 53,-328 53,-326 55,-326 55,-324 73,-324 73,-342"/>
<polyline fill="none" stroke="#e41a1c" points="55,-340 57,-340 57,-338 55,-338 "/>
<polyline fill="none" stroke="#e41a1c" points="55,-328 57,-328 57,-326 55,-326 "/>
<text text-anchor="middle" x="64" y="-331.4" font-family="Times,serif" font-size="7.00">15</text>
</g>
<!-- 15&#45;&gt;16 -->
<g id="edge10" class="edge">
<title>15&#45;&gt;16</title>
<path fill="none" stroke="#000000" d="M69.62,-323.88C75.46,-315.45 84.64,-302.18 91.39,-292.44"/>
<polygon fill="#000000" stroke="#000000" points="92.89,-293.35 94.3,-288.24 90.01,-291.35 92.89,-293.35"/>
</g>
<!-- 17 -->
<g id="node17" class="node">
<title>17</title>
<polygon fill="none" stroke="#e41a1c" points="55,-288 37,-288 37,-286 35,-286 35,-284 37,-284 37,-274 35,-274 35,-272 37,-272 37,-270 55,-270 55,-288"/>
<polyline fill="none" stroke="#e41a1c" points="37,-286 39,-286 39,-284 37,-284 "/>
<polyline fill="none" stroke="#e41a1c" points="37,-274 39,-274 39,-272 37,-272 "/>
<text text-anchor="middle" x="46" y="-277.4" font-family="Times,serif" font-size="7.00">17</text>
</g>
<!-- 15&#45;&gt;17 -->
<g id="edge11" class="edge">
<title>15&#45;&gt;17</title>
<path fill="none" stroke="#000000" d="M61.19,-323.88C58.32,-315.6 53.84,-302.66 50.49,-292.97"/>
<polygon fill="#000000" stroke="#000000" points="52.14,-292.39 48.85,-288.24 48.83,-293.54 52.14,-292.39"/>
</g>
<!-- 16&#45;&gt;3 -->
<g id="edge12" class="edge">
<title>16&#45;&gt;3</title>
<path fill="none" stroke="#000000" d="M102.81,-269.88C105.68,-261.6 110.16,-248.66 113.51,-238.97"/>
<polygon fill="#000000" stroke="#000000" points="115.17,-239.54 115.15,-234.24 111.86,-238.39 115.17,-239.54"/>
</g>
<!-- 16&#45;&gt;6 -->
<g id="edge13" class="edge">
<title>16&#45;&gt;6</title>
<path fill="none" stroke="#000000" d="M97.19,-269.88C94.32,-261.6 89.84,-248.66 86.49,-238.97"/>
<polygon fill="#000000" stroke="#000000" points="88.14,-238.39 84.85,-234.24 84.83,-239.54 88.14,-238.39"/>
</g>
<!-- 17&#45;&gt;11 -->
<g id="edge14" class="edge">
<title>17&#45;&gt;11</title>
<path fill="none" stroke="#000000" d="M46,-269.88C46,-261.76 46,-249.13 46,-239.5"/>
<polygon fill="#000000" stroke="#000000" points="47.75,-239.24 46,-234.24 44.25,-239.24 47.75,-239.24"/>
</g>
<!-- 20 -->
<g id="node20" class="node">
<title>20</title>
<polygon fill="none" stroke="#e41a1c" points="18,-180 0,-180 0,-178 -2,-178 -2,-176 0,-176 0,-166 -2,-166 -2,-164 0,-164 0,-162 18,-162 18,-180"/>
<polyline fill="none" stroke="#e41a1c" points="0,-178 2,-178 2,-176 0,-176 "/>
<polyline fill="none" stroke="#e41a1c" points="0,-166 2,-166 2,-164 0,-164 "/>
<text text-anchor="middle" x="9" y="-169.4" font-family="Times,serif" font-size="7.00">20</text>
</g>
<!-- 17&#45;&gt;20 -->
<g id="edge15" class="edge">
<title>17&#45;&gt;20</title>
<path fill="none" stroke="#000000" d="M42.46,-269.98C38.66,-261.22 32.55,-246.75 28,-234 22.04,-217.3 16.22,-197.68 12.63,-185.06"/>
<polygon fill="#000000" stroke="#000000" points="14.27,-184.44 11.23,-180.1 10.9,-185.39 14.27,-184.44"/>
</g>
<!-- 18&#45;&gt;8 -->
<g id="edge16" class="edge">
<title>18&#45;&gt;8</title>
<path fill="none" stroke="#000000" d="M109.88,-163.41C96.69,-153.89 72.31,-136.28 58.1,-126.01"/>
<polygon fill="#000000" stroke="#000000" points="58.77,-124.34 53.69,-122.84 56.72,-127.18 58.77,-124.34"/>
</g>
<!-- 18&#45;&gt;13 -->
<g id="edge17" class="edge">
<title>18&#45;&gt;13</title>
<path fill="none" stroke="#000000" d="M119.16,-161.88C119.31,-153.76 119.56,-141.13 119.74,-131.5"/>
<polygon fill="#000000" stroke="#000000" points="121.49,-131.27 119.84,-126.24 118,-131.2 121.49,-131.27"/>
</g>
<!-- 19&#45;&gt;9 -->
<g id="edge18" class="edge">
<title>19&#45;&gt;9</title>
<path fill="none" stroke="#000000" d="M76.22,-53.88C70.23,-45.45 60.78,-32.18 53.85,-22.44"/>
<polygon fill="#000000" stroke="#000000" points="55.19,-21.3 50.86,-18.24 52.34,-23.33 55.19,-21.3"/>
</g>
<!-- 20&#45;&gt;9 -->
<g id="edge19" class="edge">
<title>20&#45;&gt;9</title>
<path fill="none" stroke="#000000" d="M9.76,-161.72C11.66,-142.52 17.24,-93.58 28,-54 30.88,-43.4 35.41,-31.82 39.07,-23.21"/>
<polygon fill="#000000" stroke="#000000" points="40.83,-23.55 41.22,-18.26 37.62,-22.15 40.83,-23.55"/>
</g>
</g>
</svg>
