<?xml version="1.0" encoding="UTF-8" standalone="no"?>
<!DOCTYPE svg PUBLIC "-//W3C//DTD SVG 1.1//EN"
 "http://www.w3.org/Graphics/SVG/1.1/DTD/svg11.dtd">
<!-- Generated by graphviz version 2.50.0 (20211204.2007)
 -->
<!-- Title: G Pages: 1 -->
<svg width="360pt" height="148pt"
 viewBox="0.00 0.00 360.00 147.92" xmlns="http://www.w3.org/2000/svg" xmlns:xlink="http://www.w3.org/1999/xlink">
<g id="graph0" class="graph" transform="scale(0.7 0.7) rotate(0) translate(4 207)">
<title>G</title>
<polygon fill="white" stroke="transparent" points="-4,4 -4,-207 509.53,-207 509.53,4 -4,4"/>
<g id="clust1" class="cluster">
<title>cluster_0</title>
<polygon fill="lightgrey" stroke="lightgrey" points="101.53,-100 101.53,-195 441.53,-195 441.53,-100 101.53,-100"/>
<text text-anchor="middle" x="271.53" y="-179.8" font-family="Times,serif" font-size="14.00">process #1</text>
</g>
<g id="clust2" class="cluster">
<title>cluster_1</title>
<polygon fill="none" stroke="blue" points="101.53,-8 101.53,-83 441.53,-83 441.53,-8 101.53,-8"/>
<text text-anchor="middle" x="271.53" y="-67.8" font-family="Times,serif" font-size="14.00">process #2</text>
</g>
<!-- 9 -->
<g id="node1" class="node">
<title>9</title>
<polygon fill="white" stroke="white" points="163.53,-144 109.53,-144 109.53,-108 163.53,-108 163.53,-144"/>
<text text-anchor="middle" x="136.53" y="-122.3" font-family="Times,serif" font-size="14.00">a0</text>
</g>
<!-- 4 -->
<g id="node2" class="node">
<title>4</title>
<polygon fill="white" stroke="white" points="253.53,-144 199.53,-144 199.53,-108 253.53,-108 253.53,-144"/>
<text text-anchor="middle" x="226.53" y="-122.3" font-family="Times,serif" font-size="14.00">a1</text>
</g>
<!-- 9&#45;&gt;4 -->
<g id="edge1" class="edge">
<title>9&#45;&gt;4</title>
<path fill="none" stroke="blue" d="M163.94,-126C171.93,-126 180.84,-126 189.36,-126"/>
<polygon fill="blue" stroke="blue" points="189.45,-129.5 199.45,-126 189.45,-122.5 189.45,-129.5"/>
</g>
<!-- 3 -->
<g id="node3" class="node">
<title>3</title>
<polygon fill="white" stroke="white" points="343.53,-144 289.53,-144 289.53,-108 343.53,-108 343.53,-144"/>
<text text-anchor="middle" x="316.53" y="-122.3" font-family="Times,serif" font-size="14.00">a2</text>
</g>
<!-- 4&#45;&gt;3 -->
<g id="edge2" class="edge">
<title>4&#45;&gt;3</title>
<path fill="none" stroke="blue" d="M253.94,-126C261.93,-126 270.84,-126 279.36,-126"/>
<polygon fill="blue" stroke="blue" points="279.45,-129.5 289.45,-126 279.45,-122.5 279.45,-129.5"/>
</g>
<!-- 5 -->
<g id="node8" class="node">
<title>5</title>
<polygon fill="lightgrey" stroke="black" points="433.53,-52 379.53,-52 379.53,-16 433.53,-16 433.53,-52"/>
<text text-anchor="middle" x="406.53" y="-30.3" font-family="Times,serif" font-size="14.00">b3</text>
</g>
<!-- 4&#45;&gt;5 -->
<g id="edge15" class="edge">
<title>4&#45;&gt;5</title>
<path fill="none" stroke="blue" d="M253.8,-112.43C284.65,-96.48 335.96,-69.96 370.26,-52.23"/>
<polygon fill="blue" stroke="blue" points="372.17,-55.18 379.45,-47.48 368.96,-48.96 372.17,-55.18"/>
</g>
<!-- 1 -->
<g id="node4" class="node">
<title>1</title>
<polygon fill="white" stroke="white" points="433.53,-144 379.53,-144 379.53,-108 433.53,-108 433.53,-144"/>
<text text-anchor="middle" x="406.53" y="-122.3" font-family="Times,serif" font-size="14.00">a3</text>
</g>
<!-- 3&#45;&gt;1 -->
<g id="edge3" class="edge">
<title>3&#45;&gt;1</title>
<path fill="none" stroke="blue" d="M343.94,-126C351.93,-126 360.84,-126 369.36,-126"/>
<polygon fill="blue" stroke="blue" points="369.45,-129.5 379.45,-126 369.45,-122.5 369.45,-129.5"/>
</g>
<!-- 1&#45;&gt;9 -->
<g id="edge17" class="edge">
<title>1&#45;&gt;9</title>
<path fill="none" stroke="blue" d="M379.47,-140.19C368.68,-145.3 355.83,-150.44 343.53,-153 280.88,-166.05 262.19,-166.05 199.53,-153 190.6,-151.14 181.37,-147.92 172.85,-144.34"/>
<polygon fill="blue" stroke="blue" points="174.15,-141.08 163.59,-140.19 171.29,-147.47 174.15,-141.08"/>
</g>
<!-- 7 -->
<g id="node10" class="node">
<title>7</title>
<polygon fill="none" stroke="black" points="505.53,-98 469.53,-98 469.53,-62 505.53,-62 505.53,-98"/>
<polyline fill="none" stroke="black" points="481.53,-98 469.53,-86 "/>
<polyline fill="none" stroke="black" points="469.53,-74 481.53,-62 "/>
<polyline fill="none" stroke="black" points="493.53,-62 505.53,-74 "/>
<polyline fill="none" stroke="black" points="505.53,-86 493.53,-98 "/>
<text text-anchor="middle" x="487.53" y="-76.3" font-family="Times,serif" font-size="14.00">end</text>
</g>
<!-- 1&#45;&gt;7 -->
<g id="edge9" class="edge">
<title>1&#45;&gt;7</title>
<path fill="none" stroke="blue" d="M433.84,-110.68C442.41,-105.69 451.92,-100.16 460.47,-95.18"/>
<polygon fill="blue" stroke="blue" points="462.4,-98.1 469.28,-90.04 458.88,-92.05 462.4,-98.1"/>
</g>
<!-- 8 -->
<g id="node5" class="node">
<title>8</title>
<polygon fill="lightgrey" stroke="black" points="163.53,-52 109.53,-52 109.53,-16 163.53,-16 163.53,-52"/>
<text text-anchor="middle" x="136.53" y="-30.3" font-family="Times,serif" font-size="14.00">b0</text>
</g>
<!-- 10 -->
<g id="node6" class="node">
<title>10</title>
<polygon fill="lightgrey" stroke="black" points="253.53,-52 199.53,-52 199.53,-16 253.53,-16 253.53,-52"/>
<text text-anchor="middle" x="226.53" y="-30.3" font-family="Times,serif" font-size="14.00">b1</text>
</g>
<!-- 8&#45;&gt;10 -->
<g id="edge4" class="edge">
<title>8&#45;&gt;10</title>
<path fill="none" stroke="blue" d="M163.94,-34C171.93,-34 180.84,-34 189.36,-34"/>
<polygon fill="blue" stroke="blue" points="189.45,-37.5 199.45,-34 189.45,-30.5 189.45,-37.5"/>
</g>
<!-- 6 -->
<g id="node7" class="node">
<title>6</title>
<polygon fill="lightgrey" stroke="black" points="343.53,-52 289.53,-52 289.53,-16 343.53,-16 343.53,-52"/>
<text text-anchor="middle" x="316.53" y="-30.3" font-family="Times,serif" font-size="14.00">b2</text>
</g>
<!-- 10&#45;&gt;6 -->
<g id="edge5" class="edge">
<title>10&#45;&gt;6</title>
<path fill="none" stroke="blue" d="M253.94,-34C261.93,-34 270.84,-34 279.36,-34"/>
<polygon fill="blue" stroke="blue" points="279.45,-37.5 289.45,-34 279.45,-30.5 279.45,-37.5"/>
</g>
<!-- 6&#45;&gt;1 -->
<g id="edge14" class="edge">
<title>6&#45;&gt;1</title>
<path fill="none" stroke="blue" d="M334.92,-52.18C348.06,-65.91 366.26,-84.95 380.9,-100.25"/>
<polygon fill="blue" stroke="blue" points="378.74,-103.05 388.18,-107.86 383.8,-98.22 378.74,-103.05"/>
</g>
<!-- 6&#45;&gt;5 -->
<g id="edge6" class="edge">
<title>6&#45;&gt;5</title>
<path fill="none" stroke="blue" d="M343.94,-34C351.93,-34 360.84,-34 369.36,-34"/>
<polygon fill="blue" stroke="blue" points="369.45,-37.5 379.45,-34 369.45,-30.5 369.45,-37.5"/>
</g>
<!-- 5&#45;&gt;7 -->
<g id="edge19" class="edge">
<title>5&#45;&gt;7</title>
<path fill="none" stroke="blue" d="M433.84,-49.32C442.41,-54.31 451.92,-59.84 460.47,-64.82"/>
<polygon fill="blue" stroke="blue" points="458.88,-67.95 469.28,-69.96 462.4,-61.9 458.88,-67.95"/>
</g>
<!-- 2 -->
<g id="node9" class="node">
<title>2</title>
<polygon fill="none" stroke="black" points="36.77,-98 0.23,-80 36.77,-62 73.3,-80 36.77,-98"/>
<polyline fill="none" stroke="black" points="11,-85.3 11,-74.7 "/>
<polyline fill="none" stroke="black" points="26,-67.3 47.53,-67.3 "/>
<polyline fill="none" stroke="black" points="62.54,-74.7 62.54,-85.3 "/>
<polyline fill="none" stroke="black" points="47.53,-92.7 26,-92.7 "/>
<text text-anchor="middle" x="36.77" y="-76.3" font-family="Times,serif" font-size="14.00">start</text>
</g>
<!-- 2&#45;&gt;9 -->
<g id="edge18" class="edge">
<title>2&#45;&gt;9</title>
<path fill="none" stroke="blue" d="M56.16,-88.65C68.5,-94.46 85.16,-102.3 100.03,-109.29"/>
<polygon fill="blue" stroke="blue" points="98.94,-112.65 109.48,-113.74 101.92,-106.32 98.94,-112.65"/>
</g>
<!-- 2&#45;&gt;8 -->
<g id="edge8" class="edge">
<title>2&#45;&gt;8</title>
<path fill="none" stroke="blue" d="M56.16,-71.35C68.5,-65.54 85.16,-57.7 100.03,-50.71"/>
<polygon fill="blue" stroke="blue" points="101.92,-53.68 109.48,-46.26 98.94,-47.35 101.92,-53.68"/>
</g>
</g>
</svg>
