<?xml version="1.0" encoding="UTF-8" standalone="no"?>
<!DOCTYPE svg PUBLIC "-//W3C//DTD SVG 1.1//EN"
 "http://www.w3.org/Graphics/SVG/1.1/DTD/svg11.dtd">
<!-- Generated by graphviz version 2.50.0 (20211204.2007)
 -->
<!-- Title: G Pages: 1 -->
<svg width="387pt" height="188pt"
 viewBox="0.00 0.00 387.00 188.00" xmlns="http://www.w3.org/2000/svg" xmlns:xlink="http://www.w3.org/1999/xlink">
<g id="graph0" class="graph" transform="scale(1 1) rotate(0) translate(4 184)">
<title>G</title>
<polygon fill="white" stroke="transparent" points="-4,4 -4,-184 383,-184 383,4 -4,4"/>
<!-- 1 -->
<g id="node1" class="node">
<title>1</title>
<ellipse fill="none" stroke="Turquoise" cx="10" cy="-117" rx="9" ry="9"/>
<text text-anchor="middle" x="10" y="-115.4" font-family="Times,serif" font-size="7.00">1</text>
</g>
<!-- 2 -->
<g id="node2" class="node">
<title>2</title>
<ellipse fill="none" stroke="Turquoise" cx="46" cy="-171" rx="9" ry="9"/>
<text text-anchor="middle" x="46" y="-169.4" font-family="Times,serif" font-size="7.00">2</text>
</g>
<!-- 16 -->
<g id="node16" class="node">
<title>16</title>
<ellipse fill="none" stroke="Turquoise" cx="82" cy="-117" rx="9" ry="9"/>
<text text-anchor="middle" x="82" y="-115.4" font-family="Times,serif" font-size="7.00">16</text>
</g>
<!-- 2&#45;&gt;16 -->
<g id="edge1" class="edge">
<title>2&#45;&gt;16</title>
<path fill="none" stroke="black" d="M50.71,-163.2C56.66,-154.61 66.98,-139.69 74.14,-129.35"/>
<polygon fill="black" stroke="black" points="75.77,-130.07 77.18,-124.97 72.89,-128.08 75.77,-130.07"/>
<text text-anchor="middle" x="58.96" y="-146.66" font-family="Times,serif" font-size="8.00">1.0</text>
</g>
<!-- 3 -->
<g id="node3" class="node">
<title>3</title>
<ellipse fill="none" stroke="Turquoise" cx="154" cy="-171" rx="9" ry="9"/>
<text text-anchor="middle" x="154" y="-169.4" font-family="Times,serif" font-size="7.00">3</text>
</g>
<!-- 9 -->
<g id="node9" class="node">
<title>9</title>
<ellipse fill="none" stroke="Turquoise" cx="154" cy="-117" rx="9" ry="9"/>
<text text-anchor="middle" x="154" y="-115.4" font-family="Times,serif" font-size="7.00">9</text>
</g>
<!-- 3&#45;&gt;9 -->
<g id="edge2" class="edge">
<title>3&#45;&gt;9</title>
<path fill="none" stroke="black" d="M154,-161.88C154,-153.76 154,-141.13 154,-131.5"/>
<polygon fill="black" stroke="black" points="155.75,-131.24 154,-126.24 152.25,-131.24 155.75,-131.24"/>
<text text-anchor="middle" x="149" y="-146.82" font-family="Times,serif" font-size="8.00">1.0</text>
</g>
<!-- 4 -->
<g id="node4" class="node">
<title>4</title>
<ellipse fill="none" stroke="Turquoise" cx="190" cy="-117" rx="9" ry="9"/>
<text text-anchor="middle" x="190" y="-115.4" font-family="Times,serif" font-size="7.00">4</text>
</g>
<!-- 11 -->
<g id="node11" class="node">
<title>11</title>
<ellipse fill="none" stroke="Turquoise" cx="172" cy="-63" rx="9" ry="9"/>
<text text-anchor="middle" x="172" y="-61.4" font-family="Times,serif" font-size="7.00">11</text>
</g>
<!-- 4&#45;&gt;11 -->
<g id="edge3" class="edge">
<title>4&#45;&gt;11</title>
<path fill="none" stroke="black" d="M187.34,-108.33C184.45,-99.96 179.76,-86.42 176.33,-76.51"/>
<polygon fill="black" stroke="black" points="177.96,-75.86 174.67,-71.7 174.65,-77 177.96,-75.86"/>
<text text-anchor="middle" x="176.11" y="-92.93" font-family="Times,serif" font-size="8.00">1.0</text>
</g>
<!-- 5 -->
<g id="node5" class="node">
<title>5</title>
<ellipse fill="none" stroke="Turquoise" cx="244" cy="-9" rx="9" ry="9"/>
<text text-anchor="middle" x="244" y="-7.4" font-family="Times,serif" font-size="7.00">5</text>
</g>
<!-- 6 -->
<g id="node6" class="node">
<title>6</title>
<ellipse fill="none" stroke="Turquoise" cx="226" cy="-63" rx="9" ry="9"/>
<text text-anchor="middle" x="226" y="-61.4" font-family="Times,serif" font-size="7.00">6</text>
</g>
<!-- 6&#45;&gt;5 -->
<g id="edge4" class="edge">
<title>6&#45;&gt;5</title>
<path fill="none" stroke="black" d="M228.66,-54.33C231.55,-45.96 236.24,-32.42 239.67,-22.51"/>
<polygon fill="black" stroke="black" points="241.35,-23 241.33,-17.7 238.04,-21.86 241.35,-23"/>
<text text-anchor="middle" x="229.89" y="-38.93" font-family="Times,serif" font-size="8.00">1.0</text>
</g>
<!-- 7 -->
<g id="node7" class="node">
<title>7</title>
<ellipse fill="none" stroke="Turquoise" cx="82" cy="-171" rx="9" ry="9"/>
<text text-anchor="middle" x="82" y="-169.4" font-family="Times,serif" font-size="7.00">7</text>
</g>
<!-- 7&#45;&gt;16 -->
<g id="edge5" class="edge">
<title>7&#45;&gt;16</title>
<path fill="none" stroke="black" d="M82,-161.88C82,-153.76 82,-141.13 82,-131.5"/>
<polygon fill="black" stroke="black" points="83.75,-131.24 82,-126.24 80.25,-131.24 83.75,-131.24"/>
<text text-anchor="middle" x="77" y="-146.82" font-family="Times,serif" font-size="8.00">1.0</text>
</g>
<!-- 8 -->
<g id="node8" class="node">
<title>8</title>
<ellipse fill="none" stroke="Turquoise" cx="262" cy="-171" rx="9" ry="9"/>
<text text-anchor="middle" x="262" y="-169.4" font-family="Times,serif" font-size="7.00">8</text>
</g>
<!-- 20 -->
<g id="node20" class="node">
<title>20</title>
<ellipse fill="none" stroke="Turquoise" cx="262" cy="-117" rx="9" ry="9"/>
<text text-anchor="middle" x="262" y="-115.4" font-family="Times,serif" font-size="7.00">20</text>
</g>
<!-- 8&#45;&gt;20 -->
<g id="edge6" class="edge">
<title>8&#45;&gt;20</title>
<path fill="none" stroke="black" d="M262,-156.63C262,-148.83 262,-139.03 262,-131.25"/>
<polygon fill="black" stroke="black" points="260.25,-156.87 262,-161.88 263.75,-156.88 260.25,-156.87"/>
<polygon fill="black" stroke="black" points="263.75,-131.24 262,-126.24 260.25,-131.24 263.75,-131.24"/>
<text text-anchor="middle" x="257" y="-146.95" font-family="Times,serif" font-size="8.00">1.0</text>
</g>
<!-- 9&#45;&gt;11 -->
<g id="edge7" class="edge">
<title>9&#45;&gt;11</title>
<path fill="none" stroke="black" d="M156.66,-108.33C159.55,-99.96 164.24,-86.42 167.67,-76.51"/>
<polygon fill="black" stroke="black" points="169.35,-77 169.33,-71.7 166.04,-75.86 169.35,-77"/>
<text text-anchor="middle" x="157.89" y="-92.93" font-family="Times,serif" font-size="8.00">1.0</text>
</g>
<!-- 10 -->
<g id="node10" class="node">
<title>10</title>
<ellipse fill="none" stroke="Turquoise" cx="226" cy="-171" rx="9" ry="9"/>
<text text-anchor="middle" x="226" y="-169.4" font-family="Times,serif" font-size="7.00">10</text>
</g>
<!-- 18 -->
<g id="node18" class="node">
<title>18</title>
<ellipse fill="none" stroke="Turquoise" cx="226" cy="-117" rx="9" ry="9"/>
<text text-anchor="middle" x="226" y="-115.4" font-family="Times,serif" font-size="7.00">18</text>
</g>
<!-- 10&#45;&gt;18 -->
<g id="edge8" class="edge">
<title>10&#45;&gt;18</title>
<path fill="none" stroke="black" d="M226,-161.88C226,-153.76 226,-141.13 226,-131.5"/>
<polygon fill="black" stroke="black" points="227.75,-131.24 226,-126.24 224.25,-131.24 227.75,-131.24"/>
<text text-anchor="middle" x="221" y="-146.82" font-family="Times,serif" font-size="8.00">1.0</text>
</g>
<!-- 12 -->
<g id="node12" class="node">
<title>12</title>
<ellipse fill="none" stroke="Turquoise" cx="298" cy="-171" rx="9" ry="9"/>
<text text-anchor="middle" x="298" y="-169.4" font-family="Times,serif" font-size="7.00">12</text>
</g>
<!-- 13 -->
<g id="node13" class="node">
<title>13</title>
<ellipse fill="none" stroke="Turquoise" cx="118" cy="-171" rx="9" ry="9"/>
<text text-anchor="middle" x="118" y="-169.4" font-family="Times,serif" font-size="7.00">13</text>
</g>
<!-- 13&#45;&gt;16 -->
<g id="edge9" class="edge">
<title>13&#45;&gt;16</title>
<path fill="none" stroke="black" d="M113.29,-163.2C107.34,-154.61 97.02,-139.69 89.86,-129.35"/>
<polygon fill="black" stroke="black" points="91.11,-128.08 86.82,-124.97 88.23,-130.07 91.11,-128.08"/>
<text text-anchor="middle" x="95.04" y="-146.66" font-family="Times,serif" font-size="8.00">1.0</text>
</g>
<!-- 14 -->
<g id="node14" class="node">
<title>14</title>
<ellipse fill="none" stroke="Turquoise" cx="334" cy="-171" rx="9" ry="9"/>
<text text-anchor="middle" x="334" y="-169.4" font-family="Times,serif" font-size="7.00">14</text>
</g>
<!-- 15 -->
<g id="node15" class="node">
<title>15</title>
<ellipse fill="none" stroke="Turquoise" cx="370" cy="-171" rx="9" ry="9"/>
<text text-anchor="middle" x="370" y="-169.4" font-family="Times,serif" font-size="7.00">15</text>
</g>
<!-- 17 -->
<g id="node17" class="node">
<title>17</title>
<ellipse fill="none" stroke="Turquoise" cx="262" cy="-63" rx="9" ry="9"/>
<text text-anchor="middle" x="262" y="-61.4" font-family="Times,serif" font-size="7.00">17</text>
</g>
<!-- 17&#45;&gt;5 -->
<g id="edge10" class="edge">
<title>17&#45;&gt;5</title>
<path fill="none" stroke="black" d="M259.34,-54.33C256.45,-45.96 251.76,-32.42 248.33,-22.51"/>
<polygon fill="black" stroke="black" points="249.96,-21.86 246.67,-17.7 246.65,-23 249.96,-21.86"/>
<text text-anchor="middle" x="248.11" y="-38.93" font-family="Times,serif" font-size="8.00">1.0</text>
</g>
<!-- 18&#45;&gt;6 -->
<g id="edge11" class="edge">
<title>18&#45;&gt;6</title>
<path fill="none" stroke="black" d="M226,-107.88C226,-99.76 226,-87.13 226,-77.5"/>
<polygon fill="black" stroke="black" points="227.75,-77.24 226,-72.24 224.25,-77.24 227.75,-77.24"/>
<text text-anchor="middle" x="221" y="-92.82" font-family="Times,serif" font-size="8.00">1.0</text>
</g>
<!-- 19 -->
<g id="node19" class="node">
<title>19</title>
<ellipse fill="none" stroke="Turquoise" cx="10" cy="-171" rx="9" ry="9"/>
<text text-anchor="middle" x="10" y="-169.4" font-family="Times,serif" font-size="7.00">19</text>
</g>
<!-- 19&#45;&gt;1 -->
<g id="edge12" class="edge">
<title>19&#45;&gt;1</title>
<path fill="none" stroke="black" d="M10,-161.88C10,-153.76 10,-141.13 10,-131.5"/>
<polygon fill="black" stroke="black" points="11.75,-131.24 10,-126.24 8.25,-131.24 11.75,-131.24"/>
<text text-anchor="middle" x="5" y="-146.82" font-family="Times,serif" font-size="8.00">1.0</text>
</g>
</g>
</svg>
