<?xml version="1.0" encoding="UTF-8" standalone="no"?>
<!DOCTYPE svg PUBLIC "-//W3C//DTD SVG 1.1//EN"
 "http://www.w3.org/Graphics/SVG/1.1/DTD/svg11.dtd">
<!-- Generated by graphviz version 2.50.0 (20211204.2007)
 -->
<!-- Title: G Pages: 1 -->
<svg width="110pt" height="216pt"
 viewBox="0.00 0.00 110.15 216.00" xmlns="http://www.w3.org/2000/svg" xmlns:xlink="http://www.w3.org/1999/xlink">
<g id="graph0" class="graph" transform="scale(0.53 0.53) rotate(0) translate(4 403)">
<title>G</title>
<polygon fill="white" stroke="transparent" points="-4,4 -4,-403 203.56,-403 203.56,4 -4,4"/>
<g id="clust1" class="cluster">
<title>cluster_0</title>
<polygon fill="lightgrey" stroke="lightgrey" points="10.56,-64 10.56,-355 84.56,-355 84.56,-64 10.56,-64"/>
<text text-anchor="middle" x="47.56" y="-339.8" font-family="Times,serif" font-size="14.00">process #1</text>
</g>
<g id="clust2" class="cluster">
<title>cluster_1</title>
<polygon fill="none" stroke="blue" points="117.56,-64 117.56,-355 191.56,-355 191.56,-64 117.56,-64"/>
<text text-anchor="middle" x="154.56" y="-339.8" font-family="Times,serif" font-size="14.00">process #2</text>
</g>
<!-- 9 -->
<g id="node1" class="node">
<title>9</title>
<ellipse fill="white" stroke="white" cx="47.56" cy="-306" rx="27" ry="18"/>
<text text-anchor="middle" x="47.56" y="-302.3" font-family="Times,serif" font-size="14.00">a0</text>
</g>
<!-- 4 -->
<g id="node2" class="node">
<title>4</title>
<ellipse fill="white" stroke="white" cx="47.56" cy="-234" rx="27" ry="18"/>
<text text-anchor="middle" x="47.56" y="-230.3" font-family="Times,serif" font-size="14.00">a1</text>
</g>
<!-- 9&#45;&gt;4 -->
<g id="edge1" class="edge">
<title>9&#45;&gt;4</title>
<path fill="none" stroke="black" d="M47.56,-287.7C47.56,-279.98 47.56,-270.71 47.56,-262.11"/>
<polygon fill="black" stroke="black" points="51.06,-262.1 47.56,-252.1 44.06,-262.1 51.06,-262.1"/>
</g>
<!-- 3 -->
<g id="node3" class="node">
<title>3</title>
<ellipse fill="white" stroke="white" cx="46.56" cy="-162" rx="27" ry="18"/>
<text text-anchor="middle" x="46.56" y="-158.3" font-family="Times,serif" font-size="14.00">a2</text>
</g>
<!-- 4&#45;&gt;3 -->
<g id="edge2" class="edge">
<title>4&#45;&gt;3</title>
<path fill="none" stroke="black" d="M47.31,-215.7C47.2,-207.98 47.07,-198.71 46.95,-190.11"/>
<polygon fill="black" stroke="black" points="50.45,-190.05 46.8,-180.1 43.45,-190.15 50.45,-190.05"/>
</g>
<!-- 5 -->
<g id="node8" class="node">
<title>5</title>
<ellipse fill="lightgrey" stroke="black" cx="152.56" cy="-90" rx="27" ry="18"/>
<text text-anchor="middle" x="152.56" y="-86.3" font-family="Times,serif" font-size="14.00">b3</text>
</g>
<!-- 4&#45;&gt;5 -->
<g id="edge15" class="edge">
<title>4&#45;&gt;5</title>
<path fill="none" stroke="black" d="M59,-217.53C77.3,-192.78 113.31,-144.08 134.93,-114.85"/>
<polygon fill="black" stroke="black" points="138.01,-116.57 141.14,-106.45 132.38,-112.41 138.01,-116.57"/>
</g>
<!-- 1 -->
<g id="node4" class="node">
<title>1</title>
<ellipse fill="white" stroke="white" cx="48.56" cy="-90" rx="27" ry="18"/>
<text text-anchor="middle" x="48.56" y="-86.3" font-family="Times,serif" font-size="14.00">a3</text>
</g>
<!-- 3&#45;&gt;1 -->
<g id="edge3" class="edge">
<title>3&#45;&gt;1</title>
<path fill="none" stroke="black" d="M47.05,-143.7C47.28,-135.98 47.54,-126.71 47.79,-118.11"/>
<polygon fill="black" stroke="black" points="51.28,-118.2 48.07,-108.1 44.29,-118 51.28,-118.2"/>
</g>
<!-- 1&#45;&gt;9 -->
<g id="edge17" class="edge">
<title>1&#45;&gt;9</title>
<path fill="none" stroke="black" d="M34.45,-105.36C25.7,-115.3 15.27,-129.34 10.56,-144 -4.13,-189.7 -2.87,-206.22 11.56,-252 14.92,-262.66 21.19,-273.12 27.57,-281.89"/>
<polygon fill="black" stroke="black" points="24.99,-284.28 33.88,-290.05 30.53,-280 24.99,-284.28"/>
</g>
<!-- 7 -->
<g id="node10" class="node">
<title>7</title>
<polygon fill="none" stroke="black" points="119.56,-36 83.56,-36 83.56,0 119.56,0 119.56,-36"/>
<polyline fill="none" stroke="black" points="95.56,-36 83.56,-24 "/>
<polyline fill="none" stroke="black" points="83.56,-12 95.56,0 "/>
<polyline fill="none" stroke="black" points="107.56,0 119.56,-12 "/>
<polyline fill="none" stroke="black" points="119.56,-24 107.56,-36 "/>
<text text-anchor="middle" x="101.56" y="-14.3" font-family="Times,serif" font-size="14.00">end</text>
</g>
<!-- 1&#45;&gt;7 -->
<g id="edge9" class="edge">
<title>1&#45;&gt;7</title>
<path fill="none" stroke="black" d="M60.32,-73.46C66.74,-64.99 74.84,-54.29 82.17,-44.61"/>
<polygon fill="black" stroke="black" points="85.09,-46.55 88.34,-36.46 79.51,-42.32 85.09,-46.55"/>
</g>
<!-- 8 -->
<g id="node5" class="node">
<title>8</title>
<ellipse fill="lightgrey" stroke="black" cx="152.56" cy="-306" rx="27" ry="18"/>
<text text-anchor="middle" x="152.56" y="-302.3" font-family="Times,serif" font-size="14.00">b0</text>
</g>
<!-- 10 -->
<g id="node6" class="node">
<title>10</title>
<ellipse fill="lightgrey" stroke="black" cx="154.56" cy="-234" rx="27" ry="18"/>
<text text-anchor="middle" x="154.56" y="-230.3" font-family="Times,serif" font-size="14.00">b1</text>
</g>
<!-- 8&#45;&gt;10 -->
<g id="edge4" class="edge">
<title>8&#45;&gt;10</title>
<path fill="none" stroke="black" d="M153.05,-287.7C153.28,-279.98 153.54,-270.71 153.79,-262.11"/>
<polygon fill="black" stroke="black" points="157.28,-262.2 154.07,-252.1 150.29,-262 157.28,-262.2"/>
</g>
<!-- 6 -->
<g id="node7" class="node">
<title>6</title>
<ellipse fill="lightgrey" stroke="black" cx="156.56" cy="-162" rx="27" ry="18"/>
<text text-anchor="middle" x="156.56" y="-158.3" font-family="Times,serif" font-size="14.00">b2</text>
</g>
<!-- 10&#45;&gt;6 -->
<g id="edge5" class="edge">
<title>10&#45;&gt;6</title>
<path fill="none" stroke="black" d="M155.05,-215.7C155.28,-207.98 155.54,-198.71 155.79,-190.11"/>
<polygon fill="black" stroke="black" points="159.28,-190.2 156.07,-180.1 152.29,-190 159.28,-190.2"/>
</g>
<!-- 6&#45;&gt;1 -->
<g id="edge14" class="edge">
<title>6&#45;&gt;1</title>
<path fill="none" stroke="black" d="M137.75,-148.81C120.56,-137.67 94.94,-121.06 75.57,-108.5"/>
<polygon fill="black" stroke="black" points="77.45,-105.56 67.16,-103.05 73.64,-111.43 77.45,-105.56"/>
</g>
<!-- 6&#45;&gt;5 -->
<g id="edge6" class="edge">
<title>6&#45;&gt;5</title>
<path fill="none" stroke="black" d="M155.57,-143.7C155.13,-135.98 154.6,-126.71 154.11,-118.11"/>
<polygon fill="black" stroke="black" points="157.6,-117.89 153.54,-108.1 150.61,-118.29 157.6,-117.89"/>
</g>
<!-- 5&#45;&gt;7 -->
<g id="edge19" class="edge">
<title>5&#45;&gt;7</title>
<path fill="none" stroke="black" d="M141.24,-73.46C135.07,-64.99 127.27,-54.29 120.22,-44.61"/>
<polygon fill="black" stroke="black" points="123,-42.48 114.28,-36.46 117.34,-46.6 123,-42.48"/>
</g>
<!-- 2 -->
<g id="node9" class="node">
<title>2</title>
<polygon fill="none" stroke="black" points="99.56,-399 63.03,-381 99.56,-363 136.09,-381 99.56,-399"/>
<polyline fill="none" stroke="black" points="73.79,-386.3 73.79,-375.7 "/>
<polyline fill="none" stroke="black" points="88.8,-368.3 110.32,-368.3 "/>
<polyline fill="none" stroke="black" points="125.33,-375.7 125.33,-386.3 "/>
<polyline fill="none" stroke="black" points="110.32,-393.7 88.8,-393.7 "/>
<text text-anchor="middle" x="99.56" y="-377.3" font-family="Times,serif" font-size="14.00">start</text>
</g>
<!-- 2&#45;&gt;9 -->
<g id="edge18" class="edge">
<title>2&#45;&gt;9</title>
<path fill="none" stroke="black" d="M90.5,-367.28C83.38,-357.29 73.27,-343.09 64.64,-330.97"/>
<polygon fill="black" stroke="black" points="67.34,-328.73 58.68,-322.62 61.63,-332.79 67.34,-328.73"/>
</g>
<!-- 2&#45;&gt;8 -->
<g id="edge8" class="edge">
<title>2&#45;&gt;8</title>
<path fill="none" stroke="black" d="M108.79,-367.28C116.05,-357.29 126.36,-343.09 135.15,-330.97"/>
<polygon fill="black" stroke="black" points="138.18,-332.76 141.22,-322.62 132.52,-328.65 138.18,-332.76"/>
</g>
</g>
</svg>
